SplineFontDB: 3.2
FontName: RobotoSemiMono-Light
FullName: Roboto Semi Mono Light
FamilyName: Roboto Semi Mono Light
Weight: Light
Copyright: Roboto - Copyright 2011 Google Inc. All Rights Reserved. Roboto is a trademark of Google. Roboto Mono - Copyright 2015 The Roboto Mono Project Authors (https://github.com/googlefonts/robotomono). Roboto Mono is a trademark of Google. Roboto Serif - Copyright 2020 The Roboto Serif Project Authors (https://github.com/googlefonts/RobotoSerif). Roboto Serif is a trademark of Google, Inc.
Version: 1.0.0
ItalicAngle: 0
UnderlinePosition: -200
UnderlineWidth: 100
Ascent: 1536
Descent: 512
InvalidEm: 0
sfntRevision: 0x00022312
LayerCount: 2
Layer: 0 1 "Back" 1
Layer: 1 1 "Fore" 0
XUID: [1021 216 341419518 13840497]
StyleMap: 0x0040
FSType: 0
OS2Version: 3
OS2_WeightWidthSlopeOnly: 0
OS2_UseTypoMetrics: 0
CreationTime: 1221222574
ModificationTime: 1706467769
PfmFamily: 17
TTFWeight: 300
TTFWidth: 5
LineGap: 0
VLineGap: 0
Panose: 2 0 0 0 0 0 0 0 0 0
OS2TypoAscent: 1536
OS2TypoAOffset: 0
OS2TypoDescent: -512
OS2TypoDOffset: 0
OS2TypoLinegap: 102
OS2WinAscent: 1946
OS2WinAOffset: 0
OS2WinDescent: 512
OS2WinDOffset: 0
HheadAscent: 1900
HheadAOffset: 0
HheadDescent: -500
HheadDOffset: 0
OS2SubXSize: 1434
OS2SubYSize: 1331
OS2SubXOff: 0
OS2SubYOff: 287
OS2SupXSize: 1434
OS2SupYSize: 1331
OS2SupXOff: 0
OS2SupYOff: 977
OS2StrikeYSize: 102
OS2StrikeYPos: 512
OS2CapHeight: 1456
OS2XHeight: 1082
OS2Vendor: 'GOOG'
OS2CodePages: 2000019f.00000000
OS2UnicodeRanges: e00002ff.5000205b.00000020.00000000
Lookup: 1 0 0 "'c2sc' Capitals to Small Capitals lookup 0" { "'c2sc' Capitals to Small Capitals lookup 0 subtable"  } ['c2sc' ('DFLT' <'dflt' > 'cyrl' <'dflt' > 'grek' <'dflt' > 'latn' <'AZE ' 'CRT ' 'FRA ' 'MOL ' 'NAV ' 'ROM ' 'TRK ' 'dflt' > ) ]

StartChar: .notdef
Encoding: 65536 -1 0
Width: 908
GlyphClass: 1
Flags: W
LayerCount: 2
Fore
SplineSet
808 0 m 1,0,-1
 100 0 l 1,1,-1
 100 1456 l 1,2,-1
 808 1456 l 1,3,-1
 808 0 l 1,0,-1
754 84 m 1,4,-1
 754 1371 l 1,5,-1
 480 728 l 1,6,-1
 754 84 l 1,4,-1
154 1359 m 1,7,-1
 154 96 l 1,8,-1
 422 728 l 1,9,-1
 154 1359 l 1,7,-1
194 54 m 1,10,-1
 709 54 l 1,11,-1
 451 660 l 1,12,-1
 194 54 l 1,10,-1
451 796 m 1,13,-1
 709 1402 l 1,14,-1
 194 1402 l 1,15,-1
 451 796 l 1,13,-1
EndSplineSet
EndChar

StartChar: exclam
Encoding: 33 33 5
Width: 1229
GlyphClass: 1
Flags: HW
LayerCount: 2
Fore
SplineSet
655 436 m 1,0,-1
 655 1456 l 1,1,-1
 534 1456 l 1,2,-1
 534 436 l 1,3,-1
 655 436 l 1,0,-1
515 73 m 256,4,5
 515 38 515 38 537.5 15 c 128,-1,6
 560 -8 560 -8 600 -8 c 0,7,8
 639 -8 639 -8 663 15 c 128,-1,9
 687 38 687 38 687 73 c 0,10,11
 687 109 687 109 663.5 133 c 128,-1,12
 640 157 640 157 600 157 c 256,13,14
 560 157 560 157 537.5 132.5 c 128,-1,15
 515 108 515 108 515 73 c 256,4,5
EndSplineSet
EndChar

StartChar: quotedbl
Encoding: 34 34 6
Width: 1229
GlyphClass: 1
Flags: HW
LayerCount: 2
Fore
SplineSet
510 1410 m 1,0,-1
 511 1536 l 1,1,-1
 406 1536 l 1,2,-1
 407 1401 l 1,3,-1
 402 1090 l 1,4,-1
 494 1090 l 1,5,-1
 510 1410 l 1,0,-1
813 1410 m 1,6,-1
 814 1536 l 1,7,-1
 710 1536 l 1,8,-1
 711 1401 l 1,9,-1
 706 1090 l 1,10,-1
 797 1090 l 1,11,-1
 813 1410 l 1,6,-1
EndSplineSet
EndChar

StartChar: numbersign
Encoding: 35 35 7
Width: 1229
GlyphClass: 1
Flags: HW
LayerCount: 2
Fore
SplineSet
730 410 m 1,0,-1
 652 0 l 1,1,-1
 752 0 l 1,2,-1
 829 410 l 1,3,-1
 1102 410 l 1,4,-1
 1102 505 l 1,5,-1
 847 505 l 1,6,-1
 929 944 l 1,7,-1
 1177 944 l 1,8,-1
 1177 1040 l 1,9,-1
 948 1040 l 1,10,-1
 1027 1456 l 1,11,-1
 927 1456 l 1,12,-1
 848 1040 l 1,13,-1
 534 1040 l 1,14,-1
 613 1456 l 1,15,-1
 513 1456 l 1,16,-1
 435 1040 l 1,17,-1
 137 1040 l 1,18,-1
 137 944 l 1,19,-1
 416 944 l 1,20,-1
 334 505 l 1,21,-1
 61 505 l 1,22,-1
 61 410 l 1,23,-1
 316 410 l 1,24,-1
 239 0 l 1,25,-1
 339 0 l 1,26,-1
 416 410 l 1,27,-1
 730 410 l 1,0,-1
434 505 m 1,28,-1
 515 944 l 1,29,-1
 830 944 l 1,30,-1
 747 505 l 1,31,-1
 434 505 l 1,28,-1
EndSplineSet
EndChar

StartChar: dollar
Encoding: 36 36 8
Width: 1229
GlyphClass: 1
Flags: HW
LayerCount: 2
Fore
SplineSet
961 360 m 0,0,1
 961 295 961 295 935.5 244 c 128,-1,2
 910 193 910 193 866 158 c 0,3,4
 823 123 823 123 765 104.5 c 128,-1,5
 707 86 707 86 642 86 c 0,6,7
 575 86 575 86 513 105 c 128,-1,8
 451 124 451 124 404 165 c 0,9,10
 357 205 357 205 328 268 c 128,-1,11
 299 331 299 331 298 419 c 1,12,-1
 178 419 l 1,13,14
 180 312 180 312 213.5 232 c 128,-1,15
 247 152 247 152 304 98 c 256,16,17
 361 44 361 44 436.5 15.5 c 128,-1,18
 512 -13 512 -13 598 -19 c 1,19,-1
 598 -208 l 1,20,-1
 700 -208 l 1,21,-1
 700 -17 l 1,22,23
 781 -10 781 -10 850.5 17.5 c 128,-1,24
 920 45 920 45 971 93 c 256,25,26
 1022 141 1022 141 1051.5 208 c 128,-1,27
 1081 275 1081 275 1081 362 c 0,28,29
 1081 453 1081 453 1049.5 519.5 c 128,-1,30
 1018 586 1018 586 963 635 c 256,31,32
 908 684 908 684 834.5 718.5 c 128,-1,33
 761 753 761 753 677 782 c 0,34,35
 606 806 606 806 546 833.5 c 128,-1,36
 486 861 486 861 442 897 c 256,37,38
 398 933 398 933 373.5 981.5 c 128,-1,39
 349 1030 349 1030 350 1097 c 0,40,41
 350 1161 350 1161 372.5 1211 c 128,-1,42
 395 1261 395 1261 434 1296 c 0,43,44
 474 1332 474 1332 529 1351 c 128,-1,45
 584 1370 584 1370 650 1370 c 0,46,47
 719 1370 719 1370 774.5 1344.5 c 128,-1,48
 830 1319 830 1319 869 1274 c 0,49,50
 908 1228 908 1228 929 1165.5 c 128,-1,51
 950 1103 950 1103 951 1028 c 1,52,-1
 1071 1028 l 1,53,54
 1069 1132 1069 1132 1040.5 1214.5 c 128,-1,55
 1012 1297 1012 1297 959 1355 c 0,56,57
 913 1406 913 1406 848 1436.5 c 128,-1,58
 783 1467 783 1467 703 1474 c 1,59,-1
 703 1678 l 1,60,-1
 600 1678 l 1,61,-1
 600 1474 l 1,62,63
 522 1467 522 1467 454.5 1439 c 128,-1,64
 387 1411 387 1411 337 1363 c 0,65,66
 287 1314 287 1314 258.5 1247 c 128,-1,67
 230 1180 230 1180 230 1095 c 0,68,69
 230 1003 230 1003 262.5 936 c 128,-1,70
 295 869 295 869 351 820 c 0,71,72
 406 770 406 770 479.5 735.5 c 128,-1,73
 553 701 553 701 637 673 c 0,74,75
 705 650 705 650 765 621.5 c 128,-1,76
 825 593 825 593 869 556 c 0,77,78
 912 519 912 519 937 471 c 128,-1,79
 962 423 962 423 961 360 c 0,0,1
EndSplineSet
Substitution2: "'c2sc' Capitals to Small Capitals lookup 0 subtable" dollar.c2sc
Position2: "'cpsp' Capital Spacing lookup 0 subtable" dx=36 dy=0 dh=72 dv=0
EndChar

StartChar: percent
Encoding: 37 37 9
Width: 1229
GlyphClass: 1
Flags: HW
LayerCount: 2
Fore
SplineSet
44 1185 m 2,0,-1
 44 1108 l 2,1,2
 45 1053 45 1053 61.5 1001 c 128,-1,3
 78 949 78 949 110 909 c 0,4,5
 142 868 142 868 189.5 843 c 128,-1,6
 237 818 237 818 300 818 c 0,7,8
 362 818 362 818 409 843 c 128,-1,9
 456 868 456 868 488 909 c 0,10,11
 519 950 519 950 535 1002 c 128,-1,12
 551 1054 551 1054 552 1108 c 2,13,-1
 552 1185 l 2,14,15
 551 1240 551 1240 535 1292.5 c 128,-1,16
 519 1345 519 1345 488 1386 c 0,17,18
 456 1427 456 1427 408.5 1452 c 128,-1,19
 361 1477 361 1477 298 1477 c 256,20,21
 235 1477 235 1477 188 1452 c 128,-1,22
 141 1427 141 1427 109 1386 c 256,23,24
 77 1345 77 1345 61 1292.5 c 128,-1,25
 45 1240 45 1240 44 1185 c 2,0,-1
141 1108 m 2,26,-1
 141 1185 l 2,27,28
 141 1221 141 1221 150 1257.5 c 128,-1,29
 159 1294 159 1294 178 1324 c 0,30,31
 197 1353 197 1353 226.5 1371 c 128,-1,32
 256 1389 256 1389 298 1389 c 256,33,34
 340 1389 340 1389 369.5 1371 c 128,-1,35
 399 1353 399 1353 419 1324 c 0,36,37
 437 1295 437 1295 446 1258.5 c 128,-1,38
 455 1222 455 1222 456 1185 c 2,39,-1
 456 1108 l 2,40,41
 455 1072 455 1072 446 1036 c 128,-1,42
 437 1000 437 1000 419 972 c 0,43,44
 400 943 400 943 370.5 924.5 c 128,-1,45
 341 906 341 906 300 906 c 0,46,47
 257 906 257 906 227.5 924 c 128,-1,48
 198 942 198 942 179 971 c 0,49,50
 159 1000 159 1000 150 1036 c 128,-1,51
 141 1072 141 1072 141 1108 c 2,26,-1
674 348 m 2,52,-1
 674 270 l 2,53,54
 674 215 674 215 690.5 163 c 128,-1,55
 707 111 707 111 739 70 c 256,56,57
 771 29 771 29 818.5 4 c 128,-1,58
 866 -21 866 -21 929 -21 c 256,59,60
 992 -21 992 -21 1038.5 4 c 128,-1,61
 1085 29 1085 29 1117 70 c 256,62,63
 1149 111 1149 111 1165.5 163 c 128,-1,64
 1182 215 1182 215 1182 270 c 2,65,-1
 1182 348 l 2,66,67
 1182 402 1182 402 1165.5 454.5 c 128,-1,68
 1149 507 1149 507 1117 548 c 256,69,70
 1085 589 1085 589 1037.5 614 c 128,-1,71
 990 639 990 639 927 639 c 0,72,73
 865 639 865 639 818 614 c 128,-1,74
 771 589 771 589 739 548 c 256,75,76
 707 507 707 507 690.5 454.5 c 128,-1,77
 674 402 674 402 674 348 c 2,52,-1
770 270 m 2,78,-1
 770 348 l 2,79,80
 771 384 771 384 779.5 420.5 c 128,-1,81
 788 457 788 457 807 486 c 0,82,83
 825 515 825 515 854.5 533 c 128,-1,84
 884 551 884 551 927 551 c 256,85,86
 970 551 970 551 1000 533 c 128,-1,87
 1030 515 1030 515 1049 486 c 256,88,89
 1068 457 1068 457 1076.5 421 c 128,-1,90
 1085 385 1085 385 1085 348 c 2,91,-1
 1085 270 l 2,92,93
 1085 233 1085 233 1076 197 c 128,-1,94
 1067 161 1067 161 1049 132 c 0,95,96
 1030 103 1030 103 1000.5 85 c 128,-1,97
 971 67 971 67 929 67 c 256,98,99
 887 67 887 67 857 85 c 128,-1,100
 827 103 827 103 808 132 c 256,101,102
 789 161 789 161 780 197 c 128,-1,103
 771 233 771 233 770 270 c 2,78,-1
357 160 m 1,104,-1
 952 1247 l 1,105,-1
 875 1294 l 1,106,-1
 280 206 l 1,107,-1
 357 160 l 1,104,-1
EndSplineSet
EndChar

StartChar: ampersand
Encoding: 38 38 10
Width: 1229
GlyphClass: 1
Flags: HW
LayerCount: 2
Fore
SplineSet
136 363 m 0,0,1
 136 276 136 276 167 205 c 128,-1,2
 198 134 198 134 254 84 c 256,3,4
 310 34 310 34 387 7 c 128,-1,5
 464 -20 464 -20 555 -20 c 0,6,7
 615 -20 615 -20 671 -6 c 128,-1,8
 727 8 727 8 778 34 c 0,9,10
 819 54 819 54 856 82 c 128,-1,11
 893 110 893 110 927 143 c 1,12,-1
 1041 0 l 1,13,-1
 1184 0 l 1,14,-1
 1005 227 l 1,15,16
 1072 317 1072 317 1105.5 424.5 c 128,-1,17
 1139 532 1139 532 1139 652 c 1,18,-1
 1028 652 l 1,19,20
 1026 561 1026 561 1002.5 475 c 128,-1,21
 979 389 979 389 936 316 c 1,22,-1
 563 784 l 1,23,-1
 681 885 l 2,24,25
 719 915 719 915 754 948.5 c 128,-1,26
 789 982 789 982 816 1019 c 0,27,28
 842 1057 842 1057 858 1099.5 c 128,-1,29
 874 1142 874 1142 874 1191 c 0,30,31
 874 1250 874 1250 853.5 1302 c 128,-1,32
 833 1354 833 1354 796 1394 c 0,33,34
 758 1432 758 1432 705 1454.5 c 128,-1,35
 652 1477 652 1477 588 1477 c 0,36,37
 514 1477 514 1477 454.5 1453 c 128,-1,38
 395 1429 395 1429 353 1386 c 256,39,40
 311 1343 311 1343 288.5 1282 c 128,-1,41
 266 1221 266 1221 266 1147 c 0,42,43
 266 1101 266 1101 276.5 1058 c 128,-1,44
 287 1015 287 1015 305 974 c 0,45,46
 325 928 325 928 353.5 883.5 c 128,-1,47
 382 839 382 839 416 794 c 1,48,-1
 374 761 l 2,49,50
 327 723 327 723 285.5 681 c 128,-1,51
 244 639 244 639 212 593 c 0,52,53
 177 542 177 542 156.5 485 c 128,-1,54
 136 428 136 428 136 363 c 0,0,1
555 82 m 0,55,56
 489 82 489 82 434 102.5 c 128,-1,57
 379 123 379 123 340 160 c 0,58,59
 300 197 300 197 278 248.5 c 128,-1,60
 256 300 256 300 255 363 c 0,61,62
 255 400 255 400 267.5 440.5 c 128,-1,63
 280 481 280 481 304 522 c 0,64,65
 327 562 327 562 362 602 c 128,-1,66
 397 642 397 642 442 680 c 2,67,-1
 479 712 l 1,68,-1
 864 225 l 1,69,70
 837 194 837 194 805 168.5 c 128,-1,71
 773 143 773 143 737 125 c 0,72,73
 696 104 696 104 650.5 93 c 128,-1,74
 605 82 605 82 555 82 c 0,55,56
386 1149 m 0,75,76
 386 1194 386 1194 399.5 1235 c 128,-1,77
 413 1276 413 1276 439 1307 c 0,78,79
 464 1338 464 1338 502 1356 c 128,-1,80
 540 1374 540 1374 588 1374 c 0,81,82
 627 1374 627 1374 658.5 1359 c 128,-1,83
 690 1344 690 1344 713 1320 c 0,84,85
 736 1294 736 1294 748 1261 c 128,-1,86
 760 1228 760 1228 760 1191 c 0,87,88
 760 1160 760 1160 751.5 1130 c 128,-1,89
 743 1100 743 1100 727 1073 c 0,90,91
 711 1045 711 1045 687.5 1019.5 c 128,-1,92
 664 994 664 994 635 972 c 2,93,-1
 503 863 l 1,94,95
 476 899 476 899 454 935.5 c 128,-1,96
 432 972 432 972 417 1009 c 0,97,98
 402 1043 402 1043 394 1078 c 128,-1,99
 386 1113 386 1113 386 1149 c 0,75,76
EndSplineSet
Substitution2: "'smcp' Lowercase to Small Capitals lookup 1 subtable" ampersand.c2sc
Substitution2: "'c2sc' Capitals to Small Capitals lookup 0 subtable" ampersand.c2sc
Position2: "'cpsp' Capital Spacing lookup 0 subtable" dx=36 dy=0 dh=72 dv=0
EndChar

StartChar: quotesingle
Encoding: 39 39 11
Width: 1229
GlyphClass: 1
Flags: HW
LayerCount: 2
Fore
SplineSet
628 1396 m 1,0,-1
 628 1536 l 1,1,-1
 521 1536 l 1,2,-1
 522 1387 l 1,3,-1
 516 1090 l 1,4,-1
 610 1090 l 1,5,-1
 628 1396 l 1,0,-1
EndSplineSet
EndChar

StartChar: parenleft
Encoding: 40 40 12
Width: 1229
GlyphClass: 1
Flags: HW
LayerCount: 2
Fore
SplineSet
382 589 m 2,0,-1
 382 574 l 2,1,2
 382 458 382 458 397.5 347 c 128,-1,3
 413 236 413 236 442 134 c 0,4,5
 470 31 470 31 510.5 -61 c 128,-1,6
 551 -153 551 -153 602 -230 c 0,7,8
 652 -308 652 -308 710.5 -368.5 c 128,-1,9
 769 -429 769 -429 833 -470 c 1,10,-1
 862 -392 l 1,11,12
 806 -350 806 -350 757.5 -291.5 c 128,-1,13
 709 -233 709 -233 669 -162 c 0,14,15
 630 -89 630 -89 598.5 -3 c 128,-1,16
 567 83 567 83 545 176 c 0,17,18
 524 269 524 269 513 369 c 128,-1,19
 502 469 502 469 501 572 c 2,20,-1
 501 592 l 2,21,22
 501 697 501 697 513 799 c 128,-1,23
 525 901 525 901 547 995 c 0,24,25
 570 1094 570 1094 605.5 1183.5 c 128,-1,26
 641 1273 641 1273 685 1347 c 0,27,28
 722 1410 722 1410 766 1462 c 128,-1,29
 810 1514 810 1514 862 1551 c 1,30,-1
 833 1633 l 1,31,32
 769 1593 769 1593 711 1532 c 128,-1,33
 653 1471 653 1471 603 1394 c 0,34,35
 553 1316 553 1316 512.5 1224 c 128,-1,36
 472 1132 472 1132 443 1029 c 256,37,38
 414 926 414 926 398 815 c 128,-1,39
 382 704 382 704 382 589 c 2,0,-1
EndSplineSet
EndChar

StartChar: parenright
Encoding: 41 41 13
Width: 1229
GlyphClass: 1
Flags: HW
LayerCount: 2
Fore
SplineSet
824 574 m 2,0,-1
 824 589 l 2,1,2
 823 709 823 709 807 818.5 c 128,-1,3
 791 928 791 928 763 1029 c 0,4,5
 734 1133 734 1133 694 1224 c 128,-1,6
 654 1315 654 1315 603 1394 c 0,7,8
 553 1471 553 1471 494.5 1532 c 128,-1,9
 436 1593 436 1593 372 1633 c 1,10,-1
 343 1555 l 1,11,12
 395 1517 395 1517 440.5 1462.5 c 128,-1,13
 486 1408 486 1408 524 1341 c 0,14,15
 566 1267 566 1267 601 1177.5 c 128,-1,16
 636 1088 636 1088 660 986 c 0,17,18
 679 901 679 901 691 800.5 c 128,-1,19
 703 700 703 700 704 592 c 2,20,-1
 704 572 l 2,21,22
 703 472 703 472 693 374 c 128,-1,23
 683 276 683 276 662 185 c 0,24,25
 642 89 642 89 610.5 2.5 c 128,-1,26
 579 -84 579 -84 539 -158 c 256,27,28
 499 -232 499 -232 449.5 -291.5 c 128,-1,29
 400 -351 400 -351 343 -392 c 1,30,-1
 372 -470 l 1,31,32
 436 -429 436 -429 494.5 -368.5 c 128,-1,33
 553 -308 553 -308 604 -230 c 0,34,35
 654 -153 654 -153 694.5 -61 c 128,-1,36
 735 31 735 31 764 134 c 0,37,38
 792 236 792 236 808 347 c 128,-1,39
 824 458 824 458 824 574 c 2,0,-1
EndSplineSet
EndChar

StartChar: asterisk
Encoding: 42 42 14
Width: 1229
GlyphClass: 1
Flags: HW
LayerCount: 2
Fore
SplineSet
571 966 m 1,0,-1
 308 641 l 1,1,-1
 405 572 l 1,2,-1
 640 911 l 1,3,-1
 884 569 l 1,4,-1
 982 640 l 1,5,-1
 713 961 l 1,6,-1
 1100 1076 l 1,7,-1
 1062 1192 l 1,8,-1
 689 1045 l 1,9,-1
 708 1456 l 1,10,-1
 589 1456 l 1,11,-1
 601 1049 l 1,12,-1
 221 1191 l 1,13,-1
 184 1076 l 1,14,-1
 571 966 l 1,0,-1
EndSplineSet
EndChar

StartChar: plus
Encoding: 43 43 15
Width: 1229
GlyphClass: 1
Flags: HW
LayerCount: 2
Fore
SplineSet
673 742 m 1,0,-1
 673 1206 l 1,1,-1
 553 1206 l 1,2,-1
 553 742 l 1,3,-1
 119 742 l 1,4,-1
 119 623 l 1,5,-1
 553 623 l 1,6,-1
 553 146 l 1,7,-1
 673 146 l 1,8,-1
 673 623 l 1,9,-1
 1117 623 l 1,10,-1
 1117 742 l 1,11,-1
 673 742 l 1,0,-1
EndSplineSet
EndChar

StartChar: comma
Encoding: 44 44 16
Width: 1229
GlyphClass: 1
Flags: HW
LayerCount: 2
Fore
SplineSet
601 35 m 2,0,-1
 601 189 l 1,1,-1
 474 189 l 1,2,-1
 474 33 l 2,3,4
 473 -46 473 -46 451.5 -115 c 128,-1,5
 430 -184 430 -184 385 -248 c 1,6,-1
 461 -295 l 1,7,8
 528 -230 528 -230 564 -142.5 c 128,-1,9
 600 -55 600 -55 601 35 c 2,0,-1
EndSplineSet
EndChar

StartChar: hyphen
Encoding: 45 45 17
Width: 1229
GlyphClass: 1
Flags: HW
LayerCount: 2
Fore
SplineSet
979 600 m 1,0,-1
 979 703 l 1,1,-1
 237 703 l 1,2,-1
 237 600 l 1,3,-1
 979 600 l 1,0,-1
EndSplineSet
EndChar

StartChar: period
Encoding: 46 46 18
Width: 1229
GlyphClass: 1
Flags: HW
LayerCount: 2
Fore
SplineSet
543 86 m 0,0,1
 543 45 543 45 570 16.5 c 128,-1,2
 597 -12 597 -12 644 -12 c 256,3,4
 691 -12 691 -12 719.5 16.5 c 128,-1,5
 748 45 748 45 748 86 c 0,6,7
 748 129 748 129 720 158.5 c 128,-1,8
 692 188 692 188 644 188 c 0,9,10
 597 188 597 188 570 158 c 128,-1,11
 543 128 543 128 543 86 c 0,0,1
EndSplineSet
EndChar

StartChar: slash
Encoding: 47 47 19
Width: 1229
GlyphClass: 1
Flags: HW
LayerCount: 2
Fore
SplineSet
392 -125 m 1,0,-1
 999 1456 l 1,1,-1
 887 1456 l 1,2,-1
 279 -125 l 1,3,-1
 392 -125 l 1,0,-1
EndSplineSet
Substitution2: "'frac' Diagonal Fractions lookup 22 subtable" fraction
EndChar

StartChar: zero
Encoding: 48 48 20
Width: 1135
GlyphClass: 1
Flags: W
LayerCount: 2
Fore
SplineSet
1015 607 m 2,0,1
 1015 299 1015 299 902 139.5 c 128,-1,2
 789 -20 789 -20 569 -20 c 0,3,4
 353 -20 353 -20 238 136.5 c 128,-1,5
 123 293 123 293 120 592 c 2,6,-1
 120 853 l 2,7,8
 120 1160 120 1160 234 1318 c 128,-1,9
 348 1476 348 1476 567 1476 c 0,10,11
 783 1476 783 1476 897 1323.5 c 128,-1,12
 1011 1171 1011 1171 1015 874 c 1,13,-1
 1015 607 l 2,0,1
895 868 m 2,14,15
 895 1118 895 1118 813.5 1246 c 128,-1,16
 732 1374 732 1374 567 1374 c 0,17,18
 405 1374 405 1374 323 1249 c 128,-1,19
 241 1124 241 1124 239 880 c 2,20,-1
 239 594 l 2,21,22
 239 345 239 345 323.5 213 c 128,-1,23
 408 81 408 81 569 81 c 0,24,25
 729 81 729 81 811.5 210 c 128,-1,26
 894 339 894 339 895 588 c 2,27,-1
 895 868 l 2,14,15
EndSplineSet
Substitution2: "'numr' Numerators lookup 25 subtable" zero.numr
Substitution2: "'dnom' Denominators lookup 24 subtable" zero.dnom
Substitution2: "'pnum' Proportional Numbers lookup 19 subtable" zero.pnum
Substitution2: "'onum' Oldstyle Figures lookup 18 subtable" zero.oldstyle
Substitution2: "'c2sc' Capitals to Small Capitals lookup 0 subtable" zero.c2sc
Position2: "'cpsp' Capital Spacing lookup 0 subtable" dx=36 dy=0 dh=72 dv=0
EndChar

StartChar: one
Encoding: 49 49 21
Width: 1135
GlyphClass: 1
Flags: W
LayerCount: 2
Fore
SplineSet
694 0 m 1,0,-1
 574 0 l 1,1,-1
 574 1312 l 1,2,-1
 178 1165 l 1,3,-1
 178 1277 l 1,4,-1
 674 1461 l 1,5,-1
 694 1461 l 1,6,-1
 694 0 l 1,0,-1
EndSplineSet
Substitution2: "'numr' Numerators lookup 25 subtable" uni00B9
Substitution2: "'dnom' Denominators lookup 24 subtable" one.dnom
Substitution2: "'pnum' Proportional Numbers lookup 19 subtable" one.pnum
Substitution2: "'onum' Oldstyle Figures lookup 18 subtable" one.oldstyle
Substitution2: "'c2sc' Capitals to Small Capitals lookup 0 subtable" one.c2sc
Position2: "'cpsp' Capital Spacing lookup 0 subtable" dx=36 dy=0 dh=72 dv=0
EndChar

StartChar: two
Encoding: 50 50 22
Width: 1135
GlyphClass: 1
Flags: W
LayerCount: 2
Fore
SplineSet
1049 0 m 1,0,-1
 137 0 l 1,1,-1
 137 92 l 1,2,-1
 636 658 l 2,3,4
 760 801 760 801 808 894 c 128,-1,5
 856 987 856 987 856 1075 c 0,6,7
 856 1213 856 1213 775 1293.5 c 128,-1,8
 694 1374 694 1374 552 1374 c 0,9,10
 405 1374 405 1374 314.5 1280 c 128,-1,11
 224 1186 224 1186 224 1036 c 1,12,-1
 105 1036 l 1,13,14
 105 1159 105 1159 160.5 1260 c 128,-1,15
 216 1361 216 1361 318.5 1418.5 c 128,-1,16
 421 1476 421 1476 552 1476 c 0,17,18
 752 1476 752 1476 864.5 1371 c 128,-1,19
 977 1266 977 1266 977 1085 c 0,20,21
 977 983 977 983 913.5 862 c 128,-1,22
 850 741 850 741 690 560 c 2,23,-1
 284 101 l 1,24,-1
 1049 101 l 1,25,-1
 1049 0 l 1,0,-1
EndSplineSet
Substitution2: "'numr' Numerators lookup 25 subtable" uni00B2
Substitution2: "'dnom' Denominators lookup 24 subtable" two.dnom
Substitution2: "'pnum' Proportional Numbers lookup 19 subtable" two.pnum
Substitution2: "'onum' Oldstyle Figures lookup 18 subtable" two.oldstyle
Substitution2: "'c2sc' Capitals to Small Capitals lookup 0 subtable" two.c2sc
Position2: "'cpsp' Capital Spacing lookup 0 subtable" dx=36 dy=0 dh=72 dv=0
EndChar

StartChar: three
Encoding: 51 51 23
Width: 1135
GlyphClass: 1
Flags: W
LayerCount: 2
Fore
SplineSet
403 793 m 1,0,-1
 527 793 l 2,1,2
 630 793 630 793 707 829.5 c 128,-1,3
 784 866 784 866 824.5 929.5 c 128,-1,4
 865 993 865 993 865 1076 c 0,5,6
 865 1216 865 1216 786 1295 c 128,-1,7
 707 1374 707 1374 559 1374 c 0,8,9
 419 1374 419 1374 329.5 1291.5 c 128,-1,10
 240 1209 240 1209 240 1074 c 1,11,-1
 120 1074 l 1,12,13
 120 1187 120 1187 177 1280.5 c 128,-1,14
 234 1374 234 1374 335 1425 c 128,-1,15
 436 1476 436 1476 559 1476 c 0,16,17
 757 1476 757 1476 871 1368 c 128,-1,18
 985 1260 985 1260 985 1072 c 0,19,20
 985 967 985 967 918.5 878.5 c 128,-1,21
 852 790 852 790 736 746 c 1,22,23
 872 708 872 708 942 615.5 c 128,-1,24
 1012 523 1012 523 1012 395 c 0,25,26
 1012 208 1012 208 890 94 c 128,-1,27
 768 -20 768 -20 564 -20 c 0,28,29
 434 -20 434 -20 325.5 32 c 128,-1,30
 217 84 217 84 157.5 177.5 c 128,-1,31
 98 271 98 271 98 395 c 1,32,-1
 218 395 l 1,33,34
 218 256 218 256 315 168.5 c 128,-1,35
 412 81 412 81 564 81 c 0,36,37
 719 81 719 81 805.5 160.5 c 128,-1,38
 892 240 892 240 892 391 c 0,39,40
 892 537 892 537 798.5 614 c 128,-1,41
 705 691 705 691 523 691 c 2,42,-1
 403 691 l 1,43,-1
 403 793 l 1,0,-1
EndSplineSet
Substitution2: "'numr' Numerators lookup 25 subtable" uni00B3
Substitution2: "'dnom' Denominators lookup 24 subtable" three.dnom
Substitution2: "'pnum' Proportional Numbers lookup 19 subtable" three.pnum
Substitution2: "'onum' Oldstyle Figures lookup 18 subtable" three.oldstyle
Substitution2: "'c2sc' Capitals to Small Capitals lookup 0 subtable" three.c2sc
Position2: "'cpsp' Capital Spacing lookup 0 subtable" dx=36 dy=0 dh=72 dv=0
EndChar

StartChar: four
Encoding: 52 52 24
Width: 1135
GlyphClass: 1
Flags: W
LayerCount: 2
Fore
SplineSet
872 469 m 1,0,-1
 1099 469 l 1,1,-1
 1099 368 l 1,2,-1
 872 368 l 1,3,-1
 872 0 l 1,4,-1
 752 0 l 1,5,-1
 752 368 l 1,6,-1
 67 368 l 1,7,-1
 67 436 l 1,8,-1
 741 1456 l 1,9,-1
 872 1456 l 1,10,-1
 872 469 l 1,0,-1
214 469 m 1,11,-1
 752 469 l 1,12,-1
 752 1301 l 1,13,-1
 699 1209 l 1,14,-1
 214 469 l 1,11,-1
EndSplineSet
Substitution2: "'numr' Numerators lookup 25 subtable" four.numr
Substitution2: "'dnom' Denominators lookup 24 subtable" four.dnom
Substitution2: "'pnum' Proportional Numbers lookup 19 subtable" four.pnum
Substitution2: "'onum' Oldstyle Figures lookup 18 subtable" four.oldstyle
Substitution2: "'c2sc' Capitals to Small Capitals lookup 0 subtable" four.c2sc
Position2: "'cpsp' Capital Spacing lookup 0 subtable" dx=36 dy=0 dh=72 dv=0
EndChar

StartChar: five
Encoding: 53 53 25
Width: 1135
GlyphClass: 1
Flags: W
LayerCount: 2
Fore
SplineSet
218 746 m 1,0,-1
 289 1456 l 1,1,-1
 1017 1456 l 1,2,-1
 1017 1345 l 1,3,-1
 392 1345 l 1,4,-1
 341 853 l 1,5,6
 458 933 458 933 615 933 c 0,7,8
 812 933 812 933 929 805 c 128,-1,9
 1046 677 1046 677 1046 464 c 0,10,11
 1046 234 1046 234 932 107 c 128,-1,12
 818 -20 818 -20 611 -20 c 0,13,14
 421 -20 421 -20 303 86 c 128,-1,15
 185 192 185 192 168 383 c 1,16,-1
 283 383 l 1,17,18
 300 234 300 234 384 157.5 c 128,-1,19
 468 81 468 81 611 81 c 0,20,21
 767 81 767 81 846.5 180 c 128,-1,22
 926 279 926 279 926 462 c 0,23,24
 926 622 926 622 837 723 c 128,-1,25
 748 824 748 824 594 824 c 0,26,27
 509 824 509 824 446 802.5 c 128,-1,28
 383 781 383 781 313 719 c 1,29,-1
 218 746 l 1,0,-1
EndSplineSet
Substitution2: "'numr' Numerators lookup 25 subtable" five.numr
Substitution2: "'dnom' Denominators lookup 24 subtable" five.dnom
Substitution2: "'pnum' Proportional Numbers lookup 19 subtable" five.pnum
Substitution2: "'onum' Oldstyle Figures lookup 18 subtable" five.oldstyle
Substitution2: "'c2sc' Capitals to Small Capitals lookup 0 subtable" five.c2sc
Position2: "'cpsp' Capital Spacing lookup 0 subtable" dx=36 dy=0 dh=72 dv=0
EndChar

StartChar: six
Encoding: 54 54 26
Width: 1135
GlyphClass: 1
Flags: W
LayerCount: 2
Fore
SplineSet
843 1467 m 1,0,-1
 843 1362 l 1,1,-1
 829 1362 l 2,2,3
 568 1362 568 1362 418 1208.5 c 128,-1,4
 268 1055 268 1055 252 782 c 1,5,6
 312 865 312 865 405 910.5 c 128,-1,7
 498 956 498 956 613 956 c 0,8,9
 805 956 805 956 918.5 823.5 c 128,-1,10
 1032 691 1032 691 1032 477 c 0,11,12
 1032 335 1032 335 979 221 c 128,-1,13
 926 107 926 107 827 43.5 c 128,-1,14
 728 -20 728 -20 601 -20 c 0,15,16
 392 -20 392 -20 261 131.5 c 128,-1,17
 130 283 130 283 130 523 c 2,18,-1
 130 643 l 2,19,20
 130 1034 130 1034 308 1248.5 c 128,-1,21
 486 1463 486 1463 813 1467 c 1,22,-1
 843 1467 l 1,0,-1
594 853 m 0,23,24
 480 853 480 853 381.5 785.5 c 128,-1,25
 283 718 283 718 250 614 c 1,26,-1
 250 512 l 2,27,28
 250 322 250 322 347.5 202 c 128,-1,29
 445 82 445 82 601 82 c 0,30,31
 741 82 741 82 827.5 193 c 128,-1,32
 914 304 914 304 914 473 c 0,33,34
 914 645 914 645 827.5 749 c 128,-1,35
 741 853 741 853 594 853 c 0,23,24
EndSplineSet
Substitution2: "'numr' Numerators lookup 25 subtable" six.numr
Substitution2: "'dnom' Denominators lookup 24 subtable" six.dnom
Substitution2: "'lnum' Lining Figures lookup 21 subtable" six.pnum
Substitution2: "'tnum' Tabular Numbers lookup 20 subtable" six.oldstyle
Substitution2: "'pnum' Proportional Numbers lookup 19 subtable" six.pnum
Substitution2: "'onum' Oldstyle Figures lookup 18 subtable" six.oldstyle
Substitution2: "'c2sc' Capitals to Small Capitals lookup 0 subtable" six.c2sc
Position2: "'cpsp' Capital Spacing lookup 0 subtable" dx=36 dy=0 dh=72 dv=0
EndChar

StartChar: seven
Encoding: 55 55 27
Width: 1135
GlyphClass: 1
Flags: W
LayerCount: 2
Fore
SplineSet
1034 1387 m 1,0,-1
 412 0 l 1,1,-1
 287 0 l 1,2,-1
 905 1354 l 1,3,-1
 77 1354 l 1,4,-1
 77 1456 l 1,5,-1
 1034 1456 l 1,6,-1
 1034 1387 l 1,0,-1
EndSplineSet
Substitution2: "'numr' Numerators lookup 25 subtable" seven.numr
Substitution2: "'dnom' Denominators lookup 24 subtable" seven.dnom
Substitution2: "'pnum' Proportional Numbers lookup 19 subtable" seven.pnum
Substitution2: "'onum' Oldstyle Figures lookup 18 subtable" seven.oldstyle
Substitution2: "'c2sc' Capitals to Small Capitals lookup 0 subtable" seven.c2sc
Position2: "'cpsp' Capital Spacing lookup 0 subtable" dx=36 dy=0 dh=72 dv=0
EndChar

StartChar: eight
Encoding: 56 56 28
Width: 1135
GlyphClass: 1
Flags: W
LayerCount: 2
Fore
SplineSet
995 1081 m 0,0,1
 995 968 995 968 929 878.5 c 128,-1,2
 863 789 863 789 755 747 c 1,3,4
 881 704 881 704 957 608 c 128,-1,5
 1033 512 1033 512 1033 386 c 0,6,7
 1033 199 1033 199 906 89.5 c 128,-1,8
 779 -20 779 -20 570 -20 c 0,9,10
 359 -20 359 -20 232.5 89 c 128,-1,11
 106 198 106 198 106 386 c 0,12,13
 106 510 106 510 179 607 c 128,-1,14
 252 704 252 704 379 747 c 1,15,16
 271 789 271 789 207 878.5 c 128,-1,17
 143 968 143 968 143 1081 c 0,18,19
 143 1262 143 1262 259.5 1369 c 128,-1,20
 376 1476 376 1476 568 1476 c 128,-1,21
 760 1476 760 1476 877.5 1368 c 128,-1,22
 995 1260 995 1260 995 1081 c 0,0,1
913 385 m 0,23,24
 913 521 913 521 816 608.5 c 128,-1,25
 719 696 719 696 568 696 c 128,-1,26
 417 696 417 696 321 610 c 128,-1,27
 225 524 225 524 225 385 c 128,-1,28
 225 246 225 246 318 163.5 c 128,-1,29
 411 81 411 81 570 81 c 0,30,31
 725 81 725 81 819 163 c 128,-1,32
 913 245 913 245 913 385 c 0,23,24
875 1082 m 0,33,34
 875 1207 875 1207 788.5 1290.5 c 128,-1,35
 702 1374 702 1374 568 1374 c 0,36,37
 432 1374 432 1374 347.5 1293.5 c 128,-1,38
 263 1213 263 1213 263 1082 c 0,39,40
 263 954 263 954 347.5 876 c 128,-1,41
 432 798 432 798 569 798 c 0,42,43
 704 798 704 798 789.5 876.5 c 128,-1,44
 875 955 875 955 875 1082 c 0,33,34
EndSplineSet
Substitution2: "'numr' Numerators lookup 25 subtable" eight.numr
Substitution2: "'dnom' Denominators lookup 24 subtable" eight.dnom
Substitution2: "'lnum' Lining Figures lookup 21 subtable" eight.pnum
Substitution2: "'tnum' Tabular Numbers lookup 20 subtable" eight.oldstyle
Substitution2: "'pnum' Proportional Numbers lookup 19 subtable" eight.pnum
Substitution2: "'onum' Oldstyle Figures lookup 18 subtable" eight.oldstyle
Substitution2: "'c2sc' Capitals to Small Capitals lookup 0 subtable" eight.c2sc
Position2: "'cpsp' Capital Spacing lookup 0 subtable" dx=36 dy=0 dh=72 dv=0
EndChar

StartChar: nine
Encoding: 57 57 29
Width: 1135
GlyphClass: 1
Flags: W
LayerCount: 2
Fore
SplineSet
884 674 m 1,0,1
 820 580 820 580 725 528.5 c 128,-1,2
 630 477 630 477 519 477 c 0,3,4
 395 477 395 477 300 541 c 128,-1,5
 205 605 205 605 153 718 c 128,-1,6
 101 831 101 831 101 965 c 0,7,8
 101 1109 101 1109 156.5 1227 c 128,-1,9
 212 1345 212 1345 311.5 1410.5 c 128,-1,10
 411 1476 411 1476 541 1476 c 0,11,12
 760 1476 760 1476 882 1322.5 c 128,-1,13
 1004 1169 1004 1169 1004 887 c 2,14,-1
 1004 779 l 2,15,16
 1004 385 1004 385 836 187 c 128,-1,17
 668 -11 668 -11 323 -11 c 2,18,-1
 301 -11 l 1,19,-1
 302 93 l 1,20,-1
 344 93 l 1,21,22
 605 97 605 97 741 241 c 128,-1,23
 877 385 877 385 884 674 c 1,0,1
534 580 m 0,24,25
 654 580 654 580 749.5 651.5 c 128,-1,26
 845 723 845 723 885 837 c 1,27,-1
 885 906 l 2,28,29
 885 1128 885 1128 792.5 1250.5 c 128,-1,30
 700 1373 700 1373 543 1373 c 0,31,32
 401 1373 401 1373 310 1258.5 c 128,-1,33
 219 1144 219 1144 219 970 c 0,34,35
 219 803 219 803 306.5 691.5 c 128,-1,36
 394 580 394 580 534 580 c 0,24,25
EndSplineSet
Substitution2: "'numr' Numerators lookup 25 subtable" nine.numr
Substitution2: "'dnom' Denominators lookup 24 subtable" nine.dnom
Substitution2: "'pnum' Proportional Numbers lookup 19 subtable" nine.pnum
Substitution2: "'onum' Oldstyle Figures lookup 18 subtable" nine.oldstyle
Substitution2: "'c2sc' Capitals to Small Capitals lookup 0 subtable" nine.c2sc
Position2: "'cpsp' Capital Spacing lookup 0 subtable" dx=36 dy=0 dh=72 dv=0
EndChar

StartChar: less
Encoding: 60 60 32
Width: 1229
GlyphClass: 1
Flags: HW
LayerCount: 2
Fore
SplineSet
1023 229 m 1,0,-1
 1023 357 l 1,1,-1
 346 637 l 1,2,-1
 295 656 l 1,3,-1
 345 675 l 1,4,-1
 1023 957 l 1,5,-1
 1023 1084 l 1,6,-1
 166 706 l 1,7,-1
 166 608 l 1,8,-1
 1023 229 l 1,0,-1
EndSplineSet
EndChar

StartChar: equal
Encoding: 61 61 33
Width: 1229
GlyphClass: 1
Flags: HW
LayerCount: 2
Fore
SplineSet
1066 812 m 1,0,-1
 1066 919 l 1,1,-1
 174 919 l 1,2,-1
 174 812 l 1,3,-1
 1066 812 l 1,0,-1
1066 401 m 1,4,-1
 1066 508 l 1,5,-1
 174 508 l 1,6,-1
 174 401 l 1,7,-1
 1066 401 l 1,4,-1
EndSplineSet
EndChar

StartChar: greater
Encoding: 62 62 34
Width: 1229
GlyphClass: 1
Flags: HW
LayerCount: 2
Fore
SplineSet
183 231 m 1,0,-1
 1057 610 l 1,1,-1
 1057 708 l 1,2,-1
 183 1086 l 1,3,-1
 184 961 l 1,4,-1
 864 684 l 1,5,-1
 929 659 l 1,6,-1
 865 636 l 1,7,-1
 184 357 l 1,8,-1
 183 231 l 1,0,-1
EndSplineSet
EndChar

StartChar: question
Encoding: 63 63 35
Width: 1229
GlyphClass: 1
Flags: HW
LayerCount: 2
Fore
SplineSet
540 405 m 1,0,-1
 660 405 l 1,1,2
 660 448 660 448 665.5 484 c 128,-1,3
 671 520 671 520 683 551 c 0,4,5
 696 583 696 583 717.5 612.5 c 128,-1,6
 739 642 739 642 772 672 c 0,7,8
 820 713 820 713 865.5 760 c 128,-1,9
 911 807 911 807 946 861 c 0,10,11
 981 914 981 914 1002.5 974.5 c 128,-1,12
 1024 1035 1024 1035 1024 1104 c 0,13,14
 1024 1189 1024 1189 996.5 1257.5 c 128,-1,15
 969 1326 969 1326 917 1375 c 0,16,17
 866 1424 866 1424 793 1450 c 128,-1,18
 720 1476 720 1476 629 1476 c 0,19,20
 543 1476 543 1476 469.5 1451 c 128,-1,21
 396 1426 396 1426 342 1379 c 256,22,23
 288 1332 288 1332 255.5 1265.5 c 128,-1,24
 223 1199 223 1199 220 1116 c 1,25,-1
 340 1116 l 1,26,27
 342 1177 342 1177 365.5 1224.5 c 128,-1,28
 389 1272 389 1272 428 1304 c 256,29,30
 467 1336 467 1336 519 1352.5 c 128,-1,31
 571 1369 571 1369 629 1369 c 0,32,33
 694 1369 694 1369 746 1350 c 128,-1,34
 798 1331 798 1331 834 1295 c 0,35,36
 868 1260 868 1260 886.5 1211 c 128,-1,37
 905 1162 905 1162 905 1102 c 0,38,39
 905 1046 905 1046 887.5 997.5 c 128,-1,40
 870 949 870 949 842 907 c 0,41,42
 813 865 813 865 776 826.5 c 128,-1,43
 739 788 739 788 701 751 c 0,44,45
 655 709 655 709 625 674 c 128,-1,46
 595 639 595 639 577 600 c 0,47,48
 558 561 558 561 550 515 c 128,-1,49
 542 469 542 469 540 405 c 1,0,-1
517 73 m 0,50,51
 517 39 517 39 540 15.5 c 128,-1,52
 563 -8 563 -8 603 -8 c 0,53,54
 642 -8 642 -8 666 15.5 c 128,-1,55
 690 39 690 39 690 73 c 0,56,57
 690 109 690 109 666 133 c 128,-1,58
 642 157 642 157 603 157 c 0,59,60
 563 157 563 157 540 133 c 128,-1,61
 517 109 517 109 517 73 c 0,50,51
EndSplineSet
EndChar

StartChar: at
Encoding: 64 64 36
Width: 1229
GlyphClass: 1
Flags: HW
LayerCount: 2
Fore
SplineSet
1166 776 m 0,0,1
 1169 918 1169 918 1144.5 1046 c 128,-1,2
 1120 1174 1120 1174 1060 1268 c 0,3,4
 1001 1360 1001 1360 906.5 1412 c 128,-1,5
 812 1464 812 1464 676 1464 c 0,6,7
 539 1464 539 1464 431.5 1407 c 128,-1,8
 324 1350 324 1350 245 1250 c 0,9,10
 162 1144 162 1144 115 995.5 c 128,-1,11
 68 847 68 847 62 684 c 0,12,13
 57 541 57 541 84.5 409 c 128,-1,14
 112 277 112 277 183 180 c 0,15,16
 248 91 248 91 355.5 40 c 128,-1,17
 463 -11 463 -11 620 -11 c 0,18,19
 653 -11 653 -11 691.5 -5.5 c 128,-1,20
 730 0 730 0 768 11 c 0,21,22
 805 22 805 22 839.5 37 c 128,-1,23
 874 52 874 52 901 71 c 1,24,-1
 874 153 l 1,25,26
 849 137 849 137 819 124 c 128,-1,27
 789 111 789 111 755 101 c 0,28,29
 722 91 722 91 688 85.5 c 128,-1,30
 654 80 654 80 623 80 c 0,31,32
 492 80 492 80 401 123 c 128,-1,33
 310 166 310 166 254 243 c 0,34,35
 193 325 193 325 169 441 c 128,-1,36
 145 557 145 557 150 684 c 0,37,38
 155 846 155 846 197.5 974 c 128,-1,39
 240 1102 240 1102 312 1191 c 0,40,41
 385 1280 385 1280 477.5 1326.5 c 128,-1,42
 570 1373 570 1373 673 1373 c 0,43,44
 781 1373 781 1373 860.5 1330.5 c 128,-1,45
 940 1288 940 1288 991 1210 c 256,46,47
 1042 1132 1042 1132 1065 1021.5 c 128,-1,48
 1088 911 1088 911 1084 776 c 0,49,50
 1082 710 1082 710 1070.5 625.5 c 128,-1,51
 1059 541 1059 541 1028 479 c 0,52,53
 1008 436 1008 436 978.5 409.5 c 128,-1,54
 949 383 949 383 909 383 c 0,55,56
 879 383 879 383 860 399 c 128,-1,57
 841 415 841 415 831 442 c 0,58,59
 821 468 821 468 817.5 501 c 128,-1,60
 814 534 814 534 817 568 c 2,61,-1
 864 1072 l 1,62,63
 834 1109 834 1109 790 1135.5 c 128,-1,64
 746 1162 746 1162 687 1162 c 0,65,66
 609 1162 609 1162 549 1125 c 128,-1,67
 489 1088 489 1088 446 1023 c 256,68,69
 403 958 403 958 377.5 871 c 128,-1,70
 352 784 352 784 344 685 c 0,71,72
 340 624 340 624 345 558 c 128,-1,73
 350 492 350 492 371 427 c 0,74,75
 390 373 390 373 428.5 336.5 c 128,-1,76
 467 300 467 300 526 300 c 0,77,78
 563 300 563 300 595.5 314 c 128,-1,79
 628 328 628 328 655 352 c 0,80,81
 680 374 680 374 701 403.5 c 128,-1,82
 722 433 722 433 739 465 c 1,83,84
 744 434 744 434 754.5 406 c 128,-1,85
 765 378 765 378 782 355 c 0,86,87
 802 330 802 330 831.5 315 c 128,-1,88
 861 300 861 300 901 300 c 0,89,90
 964 300 964 300 1009 334 c 128,-1,91
 1054 368 1054 368 1084 423 c 0,92,93
 1127 498 1127 498 1145 598.5 c 128,-1,94
 1163 699 1163 699 1166 776 c 0,0,1
432 685 m 0,95,96
 440 759 440 759 457.5 833 c 128,-1,97
 475 907 475 907 508 963 c 0,98,99
 536 1012 536 1012 581 1042.5 c 128,-1,100
 626 1073 626 1073 689 1073 c 0,101,102
 716 1073 716 1073 738 1063 c 128,-1,103
 760 1053 760 1053 780 1036 c 1,104,-1
 739 614 l 1,105,-1
 738 604 l 1,106,107
 724 571 724 571 707.5 535.5 c 128,-1,108
 691 500 691 500 670 471 c 0,109,110
 645 437 645 437 613 416.5 c 128,-1,111
 581 396 581 396 542 396 c 0,112,113
 504 396 504 396 481.5 422.5 c 128,-1,114
 459 449 459 449 448 486 c 0,115,116
 435 526 435 526 432.5 584.5 c 128,-1,117
 430 643 430 643 432 685 c 0,95,96
EndSplineSet
EndChar

StartChar: A
Encoding: 65 65 37
Width: 1279
GlyphClass: 2
Flags: W
LayerCount: 2
Fore
SplineSet
970 408 m 1,0,-1
 309 408 l 1,1,-1
 159 0 l 1,2,-1
 30 0 l 1,3,-1
 581 1456 l 1,4,-1
 698 1456 l 1,5,-1
 1249 0 l 1,6,-1
 1121 0 l 1,7,-1
 970 408 l 1,0,-1
347 513 m 1,8,-1
 931 513 l 1,9,-1
 639 1306 l 1,10,-1
 347 513 l 1,8,-1
EndSplineSet
Substitution2: "'c2sc' Capitals to Small Capitals lookup 0 subtable" A.c2sc
Position2: "'cpsp' Capital Spacing lookup 0 subtable" dx=36 dy=0 dh=72 dv=0
EndChar

StartChar: B
Encoding: 66 66 38
Width: 1255
GlyphClass: 2
Flags: W
LayerCount: 2
Fore
SplineSet
184 0 m 1,0,-1
 184 1456 l 1,1,-1
 614 1456 l 2,2,3
 848 1456 848 1456 969 1359.5 c 128,-1,4
 1090 1263 1090 1263 1090 1075 c 0,5,6
 1090 962 1090 962 1028.5 878.5 c 128,-1,7
 967 795 967 795 860 759 c 1,8,9
 987 731 987 731 1064.5 634 c 128,-1,10
 1142 537 1142 537 1142 410 c 0,11,12
 1142 217 1142 217 1017.5 108.5 c 128,-1,13
 893 0 893 0 671 0 c 2,14,-1
 184 0 l 1,0,-1
307 700 m 1,15,-1
 307 104 l 1,16,-1
 676 104 l 2,17,18
 834 104 834 104 926.5 184.5 c 128,-1,19
 1019 265 1019 265 1019 408 c 0,20,21
 1019 543 1019 543 930.5 621.5 c 128,-1,22
 842 700 842 700 686 700 c 2,23,-1
 307 700 l 1,15,-1
307 803 m 1,24,-1
 643 803 l 2,25,26
 797 806 797 806 881.5 875.5 c 128,-1,27
 966 945 966 945 966 1078 c 0,28,29
 966 1218 966 1218 878.5 1284.5 c 128,-1,30
 791 1351 791 1351 614 1351 c 2,31,-1
 307 1351 l 1,32,-1
 307 803 l 1,24,-1
EndSplineSet
Substitution2: "'c2sc' Capitals to Small Capitals lookup 0 subtable" B.c2sc
Position2: "'cpsp' Capital Spacing lookup 0 subtable" dx=36 dy=0 dh=72 dv=0
EndChar

StartChar: C
Encoding: 67 67 39
Width: 1330
GlyphClass: 2
Flags: W
LayerCount: 2
Fore
SplineSet
1215 454 m 1,0,1
 1190 224 1190 224 1050.5 102 c 128,-1,2
 911 -20 911 -20 679 -20 c 0,3,4
 517 -20 517 -20 392.5 61 c 128,-1,5
 268 142 268 142 200 290.5 c 128,-1,6
 132 439 132 439 131 630 c 2,7,-1
 131 819 l 2,8,9
 131 1013 131 1013 199 1163 c 128,-1,10
 267 1313 267 1313 394.5 1394.5 c 128,-1,11
 522 1476 522 1476 688 1476 c 0,12,13
 922 1476 922 1476 1057.5 1349.5 c 128,-1,14
 1193 1223 1193 1223 1215 1000 c 1,15,-1
 1091 1000 l 1,16,17
 1045 1371 1045 1371 688 1371 c 0,18,19
 490 1371 490 1371 372.5 1223 c 128,-1,20
 255 1075 255 1075 255 814 c 2,21,-1
 255 636 l 2,22,23
 255 384 255 384 369.5 234 c 128,-1,24
 484 84 484 84 679 84 c 0,25,26
 872 84 872 84 970 176.5 c 128,-1,27
 1068 269 1068 269 1091 454 c 1,28,-1
 1215 454 l 1,0,1
EndSplineSet
Substitution2: "'ss06' Style Set 6 lookup 16 subtable" C.ss06
Substitution2: "'c2sc' Capitals to Small Capitals lookup 0 subtable" C.c2sc
Position2: "'cpsp' Capital Spacing lookup 0 subtable" dx=36 dy=0 dh=72 dv=0
EndChar

StartChar: D
Encoding: 68 68 40
Width: 1341
GlyphClass: 2
Flags: W
LayerCount: 2
Fore
SplineSet
184 0 m 1,0,-1
 184 1456 l 1,1,-1
 591 1456 l 2,2,3
 770 1456 770 1456 912 1374.5 c 128,-1,4
 1054 1293 1054 1293 1133.5 1141 c 128,-1,5
 1213 989 1213 989 1213 795 c 2,6,-1
 1213 661 l 2,7,8
 1213 466 1213 466 1134 315 c 128,-1,9
 1055 164 1055 164 911.5 82 c 128,-1,10
 768 0 768 0 582 0 c 2,11,-1
 184 0 l 1,0,-1
307 1351 m 1,12,-1
 307 104 l 1,13,-1
 583 104 l 2,14,15
 813 104 813 104 952 256.5 c 128,-1,16
 1091 409 1091 409 1091 669 c 2,17,-1
 1091 797 l 2,18,19
 1091 1048 1091 1048 954 1199 c 128,-1,20
 817 1350 817 1350 593 1351 c 2,21,-1
 307 1351 l 1,12,-1
EndSplineSet
Substitution2: "'ss06' Style Set 6 lookup 16 subtable" D.ss06
Substitution2: "'c2sc' Capitals to Small Capitals lookup 0 subtable" D.c2sc
Position2: "'cpsp' Capital Spacing lookup 0 subtable" dx=36 dy=0 dh=72 dv=0
EndChar

StartChar: E
Encoding: 69 69 41
Width: 1165
GlyphClass: 2
Flags: W
LayerCount: 2
Fore
SplineSet
988 698 m 1,0,-1
 307 698 l 1,1,-1
 307 104 l 1,2,-1
 1090 104 l 1,3,-1
 1090 0 l 1,4,-1
 184 0 l 1,5,-1
 184 1456 l 1,6,-1
 1085 1456 l 1,7,-1
 1085 1351 l 1,8,-1
 307 1351 l 1,9,-1
 307 802 l 1,10,-1
 988 802 l 1,11,-1
 988 698 l 1,0,-1
EndSplineSet
Substitution2: "'c2sc' Capitals to Small Capitals lookup 0 subtable" E.c2sc
Position2: "'cpsp' Capital Spacing lookup 0 subtable" dx=36 dy=0 dh=72 dv=0
EndChar

StartChar: F
Encoding: 70 70 42
Width: 1152
GlyphClass: 2
Flags: W
LayerCount: 2
Fore
SplineSet
986 680 m 1,0,-1
 307 680 l 1,1,-1
 307 0 l 1,2,-1
 184 0 l 1,3,-1
 184 1456 l 1,4,-1
 1086 1456 l 1,5,-1
 1086 1351 l 1,6,-1
 307 1351 l 1,7,-1
 307 785 l 1,8,-1
 986 785 l 1,9,-1
 986 680 l 1,0,-1
EndSplineSet
Substitution2: "'c2sc' Capitals to Small Capitals lookup 0 subtable" F.c2sc
Position2: "'cpsp' Capital Spacing lookup 0 subtable" dx=36 dy=0 dh=72 dv=0
EndChar

StartChar: G
Encoding: 71 71 43
Width: 1400
GlyphClass: 2
Flags: W
LayerCount: 2
Fore
SplineSet
1235 173 m 1,0,1
 1171 82 1171 82 1034.5 31 c 128,-1,2
 898 -20 898 -20 729 -20 c 0,3,4
 558 -20 558 -20 425 62 c 128,-1,5
 292 144 292 144 219 294 c 128,-1,6
 146 444 146 444 145 638 c 2,7,-1
 145 822 l 2,8,9
 145 1125 145 1125 298 1300.5 c 128,-1,10
 451 1476 451 1476 709 1476 c 0,11,12
 934 1476 934 1476 1071 1361.5 c 128,-1,13
 1208 1247 1208 1247 1234 1046 c 1,14,-1
 1111 1046 l 1,15,16
 1084 1206 1084 1206 980.5 1288.5 c 128,-1,17
 877 1371 877 1371 710 1371 c 0,18,19
 506 1371 506 1371 387 1226 c 128,-1,20
 268 1081 268 1081 268 817 c 2,21,-1
 268 645 l 2,22,23
 268 479 268 479 324.5 351.5 c 128,-1,24
 381 224 381 224 486.5 154 c 128,-1,25
 592 84 592 84 729 84 c 0,26,27
 888 84 888 84 1002 134 c 0,28,29
 1076 167 1076 167 1112 211 c 1,30,-1
 1112 587 l 1,31,-1
 721 587 l 1,32,-1
 721 691 l 1,33,-1
 1235 691 l 1,34,-1
 1235 173 l 1,0,1
EndSplineSet
Substitution2: "'ss06' Style Set 6 lookup 16 subtable" G.ss06
Substitution2: "'c2sc' Capitals to Small Capitals lookup 0 subtable" G.c2sc
Position2: "'cpsp' Capital Spacing lookup 0 subtable" dx=36 dy=0 dh=72 dv=0
EndChar

StartChar: H
Encoding: 72 72 44
Width: 1449
GlyphClass: 2
Flags: W
LayerCount: 2
Fore
SplineSet
1263 0 m 1,0,-1
 1139 0 l 1,1,-1
 1139 698 l 1,2,-1
 307 698 l 1,3,-1
 307 0 l 1,4,-1
 184 0 l 1,5,-1
 184 1456 l 1,6,-1
 307 1456 l 1,7,-1
 307 802 l 1,8,-1
 1139 802 l 1,9,-1
 1139 1456 l 1,10,-1
 1263 1456 l 1,11,-1
 1263 0 l 1,0,-1
EndSplineSet
Substitution2: "'c2sc' Capitals to Small Capitals lookup 0 subtable" H.c2sc
Position2: "'cpsp' Capital Spacing lookup 0 subtable" dx=36 dy=0 dh=72 dv=0
EndChar

StartChar: I
Encoding: 73 73 45
Width: 545
GlyphClass: 2
Flags: W
LayerCount: 2
Fore
SplineSet
334 0 m 1,0,-1
 211 0 l 1,1,-1
 211 1456 l 1,2,-1
 334 1456 l 1,3,-1
 334 0 l 1,0,-1
EndSplineSet
Substitution2: "'c2sc' Capitals to Small Capitals lookup 0 subtable" I.c2sc
Position2: "'cpsp' Capital Spacing lookup 0 subtable" dx=36 dy=0 dh=72 dv=0
EndChar

StartChar: J
Encoding: 74 74 46
Width: 1127
GlyphClass: 2
Flags: W
LayerCount: 2
Fore
SplineSet
827 1456 m 1,0,-1
 951 1456 l 1,1,-1
 951 433 l 2,2,3
 951 226 951 226 831.5 103 c 128,-1,4
 712 -20 712 -20 511 -20 c 0,5,6
 299 -20 299 -20 185 91 c 128,-1,7
 71 202 71 202 71 401 c 1,8,-1
 194 401 l 1,9,10
 194 243 194 243 277 163.5 c 128,-1,11
 360 84 360 84 511 84 c 0,12,13
 650 84 650 84 737.5 176 c 128,-1,14
 825 268 825 268 827 426 c 2,15,-1
 827 1456 l 1,0,-1
EndSplineSet
Substitution2: "'c2sc' Capitals to Small Capitals lookup 0 subtable" J.c2sc
Position2: "'cpsp' Capital Spacing lookup 0 subtable" dx=36 dy=0 dh=72 dv=0
EndChar

StartChar: K
Encoding: 75 75 47
Width: 1292
GlyphClass: 2
Flags: W
LayerCount: 2
Fore
SplineSet
512 723 m 1,0,-1
 307 521 l 1,1,-1
 307 0 l 1,2,-1
 184 0 l 1,3,-1
 184 1456 l 1,4,-1
 307 1456 l 1,5,-1
 307 671 l 1,6,-1
 1053 1456 l 1,7,-1
 1208 1456 l 1,8,-1
 598 808 l 1,9,-1
 1255 0 l 1,10,-1
 1105 0 l 1,11,-1
 512 723 l 1,0,-1
EndSplineSet
Substitution2: "'ss05' Style Set 5 lookup 15 subtable" K.ss05
Substitution2: "'ss04' Style Set 4 lookup 14 subtable" K.ss04
Substitution2: "'c2sc' Capitals to Small Capitals lookup 0 subtable" K.c2sc
Position2: "'cpsp' Capital Spacing lookup 0 subtable" dx=36 dy=0 dh=72 dv=0
EndChar

StartChar: L
Encoding: 76 76 48
Width: 1079
GlyphClass: 2
Flags: W
LayerCount: 2
Fore
SplineSet
308 104 m 1,0,-1
 1027 104 l 1,1,-1
 1027 0 l 1,2,-1
 184 0 l 1,3,-1
 184 1456 l 1,4,-1
 308 1456 l 1,5,-1
 308 104 l 1,0,-1
EndSplineSet
Substitution2: "'c2sc' Capitals to Small Capitals lookup 0 subtable" L.c2sc
Position2: "'cpsp' Capital Spacing lookup 0 subtable" dx=36 dy=0 dh=72 dv=0
EndChar

StartChar: M
Encoding: 77 77 49
Width: 1772
GlyphClass: 2
Flags: W
LayerCount: 2
Fore
SplineSet
347 1456 m 1,0,-1
 884 171 l 1,1,-1
 1423 1456 l 1,2,-1
 1587 1456 l 1,3,-1
 1587 0 l 1,4,-1
 1464 0 l 1,5,-1
 1464 634 l 1,6,-1
 1474 1284 l 1,7,-1
 932 0 l 1,8,-1
 837 0 l 1,9,-1
 297 1279 l 1,10,-1
 307 638 l 1,11,-1
 307 0 l 1,12,-1
 184 0 l 1,13,-1
 184 1456 l 1,14,-1
 347 1456 l 1,0,-1
EndSplineSet
Substitution2: "'c2sc' Capitals to Small Capitals lookup 0 subtable" M.c2sc
Position2: "'cpsp' Capital Spacing lookup 0 subtable" dx=36 dy=0 dh=72 dv=0
EndChar

StartChar: N
Encoding: 78 78 50
Width: 1454
GlyphClass: 2
Flags: W
LayerCount: 2
Fore
SplineSet
1268 0 m 1,0,-1
 1145 0 l 1,1,-1
 308 1246 l 1,2,-1
 308 0 l 1,3,-1
 184 0 l 1,4,-1
 184 1456 l 1,5,-1
 308 1456 l 1,6,-1
 1146 209 l 1,7,-1
 1146 1456 l 1,8,-1
 1268 1456 l 1,9,-1
 1268 0 l 1,0,-1
EndSplineSet
Substitution2: "'c2sc' Capitals to Small Capitals lookup 0 subtable" N.c2sc
Position2: "'cpsp' Capital Spacing lookup 0 subtable" dx=36 dy=0 dh=72 dv=0
EndChar

StartChar: O
Encoding: 79 79 51
Width: 1386
GlyphClass: 2
Flags: W
LayerCount: 2
Fore
SplineSet
1260 649 m 2,0,1
 1260 448 1260 448 1190.5 296 c 128,-1,2
 1121 144 1121 144 992 62 c 128,-1,3
 863 -20 863 -20 694 -20 c 0,4,5
 439 -20 439 -20 282 162.5 c 128,-1,6
 125 345 125 345 125 655 c 2,7,-1
 125 805 l 2,8,9
 125 1004 125 1004 195.5 1157.5 c 128,-1,10
 266 1311 266 1311 395 1393.5 c 128,-1,11
 524 1476 524 1476 692 1476 c 128,-1,12
 860 1476 860 1476 988.5 1395 c 128,-1,13
 1117 1314 1117 1314 1187 1166 c 128,-1,14
 1257 1018 1257 1018 1260 823 c 2,15,-1
 1260 649 l 2,0,1
1137 807 m 2,16,17
 1137 1070 1137 1070 1018 1219 c 128,-1,18
 899 1368 899 1368 692 1368 c 0,19,20
 489 1368 489 1368 368.5 1218.5 c 128,-1,21
 248 1069 248 1069 248 801 c 2,22,-1
 248 649 l 2,23,24
 248 390 248 390 368 238.5 c 128,-1,25
 488 87 488 87 694 87 c 0,26,27
 903 87 903 87 1020 236.5 c 128,-1,28
 1137 386 1137 386 1137 653 c 2,29,-1
 1137 807 l 2,16,17
EndSplineSet
Substitution2: "'ss06' Style Set 6 lookup 16 subtable" O.ss06
Substitution2: "'c2sc' Capitals to Small Capitals lookup 0 subtable" O.c2sc
Position2: "'cpsp' Capital Spacing lookup 0 subtable" dx=36 dy=0 dh=72 dv=0
EndChar

StartChar: P
Encoding: 80 80 52
Width: 1261
GlyphClass: 2
Flags: W
LayerCount: 2
Fore
SplineSet
307 593 m 1,0,-1
 307 0 l 1,1,-1
 184 0 l 1,2,-1
 184 1456 l 1,3,-1
 680 1456 l 2,4,5
 907 1456 907 1456 1038.5 1340 c 128,-1,6
 1170 1224 1170 1224 1170 1021 c 0,7,8
 1170 816 1170 816 1043.5 704.5 c 128,-1,9
 917 593 917 593 677 593 c 2,10,-1
 307 593 l 1,0,-1
307 697 m 1,11,-1
 680 697 l 2,12,13
 859 697 859 697 953 782 c 128,-1,14
 1047 867 1047 867 1047 1019 c 0,15,16
 1047 1170 1047 1170 953.5 1259.5 c 128,-1,17
 860 1349 860 1349 688 1351 c 2,18,-1
 307 1351 l 1,19,-1
 307 697 l 1,11,-1
EndSplineSet
Substitution2: "'c2sc' Capitals to Small Capitals lookup 0 subtable" P.c2sc
Position2: "'cpsp' Capital Spacing lookup 0 subtable" dx=36 dy=0 dh=72 dv=0
EndChar

StartChar: Q
Encoding: 81 81 53
Width: 1386
GlyphClass: 2
Flags: W
LayerCount: 2
Fore
SplineSet
1256 649 m 2,0,1
 1256 441 1256 441 1182.5 286.5 c 128,-1,2
 1109 132 1109 132 973 53 c 1,3,-1
 1238 -178 l 1,4,-1
 1153 -254 l 1,5,-1
 856 3 l 1,6,7
 774 -20 774 -20 689 -20 c 0,8,9
 523 -20 523 -20 393.5 62 c 128,-1,10
 264 144 264 144 193 294.5 c 128,-1,11
 122 445 122 445 121 642 c 2,12,-1
 121 805 l 2,13,14
 121 1004 121 1004 191.5 1157.5 c 128,-1,15
 262 1311 262 1311 391 1393.5 c 128,-1,16
 520 1476 520 1476 687 1476 c 0,17,18
 857 1476 857 1476 986 1394 c 128,-1,19
 1115 1312 1115 1312 1185.5 1159 c 128,-1,20
 1256 1006 1256 1006 1256 806 c 2,21,-1
 1256 649 l 2,0,1
1133 807 m 2,22,23
 1133 1070 1133 1070 1014 1219 c 128,-1,24
 895 1368 895 1368 687 1368 c 0,25,26
 485 1368 485 1368 364.5 1218.5 c 128,-1,27
 244 1069 244 1069 244 801 c 2,28,-1
 244 649 l 2,29,30
 244 390 244 390 363.5 238.5 c 128,-1,31
 483 87 483 87 689 87 c 0,32,33
 897 87 897 87 1015 236 c 128,-1,34
 1133 385 1133 385 1133 652 c 2,35,-1
 1133 807 l 2,22,23
EndSplineSet
Substitution2: "'ss06' Style Set 6 lookup 16 subtable" Q.ss06
Substitution2: "'c2sc' Capitals to Small Capitals lookup 0 subtable" Q.c2sc
Position2: "'cpsp' Capital Spacing lookup 0 subtable" dx=36 dy=0 dh=72 dv=0
EndChar

StartChar: R
Encoding: 82 82 54
Width: 1300
GlyphClass: 2
Flags: W
LayerCount: 2
Fore
SplineSet
728 606 m 1,0,-1
 305 606 l 1,1,-1
 305 0 l 1,2,-1
 181 0 l 1,3,-1
 181 1456 l 1,4,-1
 654 1456 l 2,5,6
 887 1456 887 1456 1018 1343 c 128,-1,7
 1149 1230 1149 1230 1149 1027 c 0,8,9
 1149 887 1149 887 1067 780 c 128,-1,10
 985 673 985 673 847 632 c 1,11,-1
 1211 13 l 1,12,-1
 1211 0 l 1,13,-1
 1080 0 l 1,14,-1
 728 606 l 1,0,-1
305 711 m 1,15,-1
 682 711 l 2,16,17
 837 711 837 711 931 799 c 128,-1,18
 1025 887 1025 887 1025 1027 c 0,19,20
 1025 1181 1025 1181 927 1266 c 128,-1,21
 829 1351 829 1351 652 1351 c 2,22,-1
 305 1351 l 1,23,-1
 305 711 l 1,15,-1
EndSplineSet
Substitution2: "'ss03' Style Set 3 lookup 13 subtable" R.ss03
Substitution2: "'c2sc' Capitals to Small Capitals lookup 0 subtable" R.c2sc
Position2: "'cpsp' Capital Spacing lookup 0 subtable" dx=36 dy=0 dh=72 dv=0
EndChar

StartChar: S
Encoding: 83 83 55
Width: 1213
GlyphClass: 2
Flags: W
LayerCount: 2
Fore
SplineSet
1008 358 m 0,0,1
 1008 479 1008 479 923 549.5 c 128,-1,2
 838 620 838 620 612 683.5 c 128,-1,3
 386 747 386 747 282 822 c 0,4,5
 134 928 134 928 134 1100 c 0,6,7
 134 1267 134 1267 271.5 1371.5 c 128,-1,8
 409 1476 409 1476 623 1476 c 0,9,10
 768 1476 768 1476 882.5 1420 c 128,-1,11
 997 1364 997 1364 1060 1264 c 128,-1,12
 1123 1164 1123 1164 1123 1041 c 1,13,-1
 999 1041 l 1,14,15
 999 1190 999 1190 897 1280.5 c 128,-1,16
 795 1371 795 1371 623 1371 c 0,17,18
 456 1371 456 1371 357 1296.5 c 128,-1,19
 258 1222 258 1222 258 1102 c 0,20,21
 258 991 258 991 347 921 c 128,-1,22
 436 851 436 851 632 797.5 c 128,-1,23
 828 744 828 744 929 686.5 c 128,-1,24
 1030 629 1030 629 1081 549 c 128,-1,25
 1132 469 1132 469 1132 360 c 0,26,27
 1132 188 1132 188 994.5 84 c 128,-1,28
 857 -20 857 -20 632 -20 c 0,29,30
 478 -20 478 -20 349.5 35 c 128,-1,31
 221 90 221 90 154.5 189 c 128,-1,32
 88 288 88 288 88 416 c 1,33,-1
 211 416 l 1,34,35
 211 262 211 262 326 173 c 128,-1,36
 441 84 441 84 632 84 c 0,37,38
 802 84 802 84 905 159 c 128,-1,39
 1008 234 1008 234 1008 358 c 0,0,1
EndSplineSet
Substitution2: "'c2sc' Capitals to Small Capitals lookup 0 subtable" S.c2sc
Position2: "'cpsp' Capital Spacing lookup 0 subtable" dx=36 dy=0 dh=72 dv=0
EndChar

StartChar: T
Encoding: 84 84 56
Width: 1223
GlyphClass: 2
Flags: W
LayerCount: 2
Fore
SplineSet
1172 1351 m 1,0,-1
 673 1351 l 1,1,-1
 673 0 l 1,2,-1
 550 0 l 1,3,-1
 550 1351 l 1,4,-1
 52 1351 l 1,5,-1
 52 1456 l 1,6,-1
 1172 1456 l 1,7,-1
 1172 1351 l 1,0,-1
EndSplineSet
Substitution2: "'c2sc' Capitals to Small Capitals lookup 0 subtable" T.c2sc
Position2: "'cpsp' Capital Spacing lookup 0 subtable" dx=36 dy=0 dh=72 dv=0
EndChar

StartChar: U
Encoding: 85 85 57
Width: 1346
GlyphClass: 2
Flags: W
LayerCount: 2
Fore
SplineSet
1187 1456 m 1,0,-1
 1187 462 l 2,1,2
 1186 315 1186 315 1122 206 c 128,-1,3
 1058 97 1058 97 941.5 38.5 c 128,-1,4
 825 -20 825 -20 674 -20 c 0,5,6
 444 -20 444 -20 305.5 105.5 c 128,-1,7
 167 231 167 231 162 453 c 1,8,-1
 162 1456 l 1,9,-1
 284 1456 l 1,10,-1
 284 471 l 2,11,12
 284 287 284 287 389 185.5 c 128,-1,13
 494 84 494 84 674 84 c 128,-1,14
 854 84 854 84 958.5 186 c 128,-1,15
 1063 288 1063 288 1063 470 c 2,16,-1
 1063 1456 l 1,17,-1
 1187 1456 l 1,0,-1
EndSplineSet
Substitution2: "'c2sc' Capitals to Small Capitals lookup 0 subtable" U.c2sc
Position2: "'cpsp' Capital Spacing lookup 0 subtable" dx=36 dy=0 dh=72 dv=0
EndChar

StartChar: V
Encoding: 86 86 58
Width: 1263
GlyphClass: 2
Flags: W
LayerCount: 2
Fore
SplineSet
623 180 m 1,0,-1
 631 149 l 1,1,-1
 640 180 l 1,2,-1
 1098 1456 l 1,3,-1
 1233 1456 l 1,4,-1
 691 0 l 1,5,-1
 573 0 l 1,6,-1
 31 1456 l 1,7,-1
 165 1456 l 1,8,-1
 623 180 l 1,0,-1
EndSplineSet
Substitution2: "'c2sc' Capitals to Small Capitals lookup 0 subtable" V.c2sc
Position2: "'cpsp' Capital Spacing lookup 0 subtable" dx=36 dy=0 dh=72 dv=0
EndChar

StartChar: W
Encoding: 87 87 59
Width: 1836
GlyphClass: 2
Flags: W
LayerCount: 2
Fore
SplineSet
453 393 m 1,0,-1
 498 167 l 1,1,-1
 553 383 l 1,2,-1
 869 1456 l 1,3,-1
 980 1456 l 1,4,-1
 1292 383 l 1,5,-1
 1346 165 l 1,6,-1
 1394 393 l 1,7,-1
 1657 1456 l 1,8,-1
 1783 1456 l 1,9,-1
 1410 0 l 1,10,-1
 1292 0 l 1,11,-1
 962 1139 l 1,12,-1
 925 1283 l 1,13,-1
 889 1139 l 1,14,-1
 551 0 l 1,15,-1
 433 0 l 1,16,-1
 61 1456 l 1,17,-1
 187 1456 l 1,18,-1
 453 393 l 1,0,-1
EndSplineSet
Substitution2: "'c2sc' Capitals to Small Capitals lookup 0 subtable" W.c2sc
Position2: "'cpsp' Capital Spacing lookup 0 subtable" dx=36 dy=0 dh=72 dv=0
EndChar

StartChar: X
Encoding: 88 88 60
Width: 1253
GlyphClass: 2
Flags: W
LayerCount: 2
Fore
SplineSet
627 840 m 1,0,-1
 1037 1456 l 1,1,-1
 1184 1456 l 1,2,-1
 702 738 l 1,3,-1
 1199 0 l 1,4,-1
 1051 0 l 1,5,-1
 627 636 l 1,6,-1
 201 0 l 1,7,-1
 55 0 l 1,8,-1
 553 738 l 1,9,-1
 70 1456 l 1,10,-1
 217 1456 l 1,11,-1
 627 840 l 1,0,-1
EndSplineSet
Substitution2: "'c2sc' Capitals to Small Capitals lookup 0 subtable" X.c2sc
Position2: "'cpsp' Capital Spacing lookup 0 subtable" dx=36 dy=0 dh=72 dv=0
EndChar

StartChar: Y
Encoding: 89 89 61
Width: 1226
GlyphClass: 2
Flags: W
LayerCount: 2
Fore
SplineSet
611 662 m 1,0,-1
 1056 1456 l 1,1,-1
 1198 1456 l 1,2,-1
 672 548 l 1,3,-1
 672 0 l 1,4,-1
 549 0 l 1,5,-1
 549 548 l 1,6,-1
 24 1456 l 1,7,-1
 170 1456 l 1,8,-1
 611 662 l 1,0,-1
EndSplineSet
Substitution2: "'c2sc' Capitals to Small Capitals lookup 0 subtable" Y.c2sc
Position2: "'cpsp' Capital Spacing lookup 0 subtable" dx=36 dy=0 dh=72 dv=0
EndChar

StartChar: Z
Encoding: 90 90 62
Width: 1225
GlyphClass: 2
Flags: W
LayerCount: 2
Fore
SplineSet
239 104 m 1,0,-1
 1138 104 l 1,1,-1
 1138 0 l 1,2,-1
 90 0 l 1,3,-1
 90 93 l 1,4,-1
 954 1351 l 1,5,-1
 116 1351 l 1,6,-1
 116 1456 l 1,7,-1
 1106 1456 l 1,8,-1
 1106 1368 l 1,9,-1
 239 104 l 1,0,-1
EndSplineSet
Substitution2: "'c2sc' Capitals to Small Capitals lookup 0 subtable" Z.c2sc
Position2: "'cpsp' Capital Spacing lookup 0 subtable" dx=36 dy=0 dh=72 dv=0
EndChar

StartChar: bracketleft
Encoding: 91 91 63
Width: 1229
GlyphClass: 1
Flags: HW
LayerCount: 2
Fore
SplineSet
798 1561 m 1,0,-1
 798 1664 l 1,1,-1
 452 1664 l 1,2,-1
 452 -312 l 1,3,-1
 798 -312 l 1,4,-1
 798 -209 l 1,5,-1
 567 -209 l 1,6,-1
 567 1561 l 1,7,-1
 798 1561 l 1,0,-1
EndSplineSet
EndChar

StartChar: backslash
Encoding: 92 92 64
Width: 1229
GlyphClass: 1
Flags: HW
LayerCount: 2
Fore
SplineSet
257 1456 m 1,0,-1
 865 -125 l 1,1,-1
 977 -125 l 1,2,-1
 369 1456 l 1,3,-1
 257 1456 l 1,0,-1
EndSplineSet
EndChar

StartChar: bracketright
Encoding: 93 93 65
Width: 1229
GlyphClass: 1
Flags: HW
LayerCount: 2
Fore
SplineSet
430 1664 m 1,0,-1
 430 1561 l 1,1,-1
 661 1561 l 1,2,-1
 661 -209 l 1,3,-1
 430 -209 l 1,4,-1
 430 -312 l 1,5,-1
 776 -312 l 1,6,-1
 776 1664 l 1,7,-1
 430 1664 l 1,0,-1
EndSplineSet
EndChar

StartChar: asciicircum
Encoding: 94 94 66
Width: 1229
GlyphClass: 1
Flags: HW
LayerCount: 2
Fore
SplineSet
246 668 m 1,0,-1
 361 668 l 1,1,-1
 589 1231 l 1,2,-1
 614 1307 l 1,3,-1
 638 1231 l 1,4,-1
 868 668 l 1,5,-1
 984 668 l 1,6,-1
 660 1456 l 1,7,-1
 570 1456 l 1,8,-1
 246 668 l 1,0,-1
EndSplineSet
EndChar

StartChar: underscore
Encoding: 95 95 67
Width: 1229
GlyphClass: 1
Flags: HW
LayerCount: 2
Fore
SplineSet
1055 -102 m 1,0,-1
 1055 0 l 1,1,-1
 173 0 l 1,2,-1
 173 -102 l 1,3,-1
 1055 -102 l 1,0,-1
EndSplineSet
EndChar

StartChar: grave
Encoding: 96 96 68
Width: 1229
GlyphClass: 1
Flags: HW
LayerCount: 2
Fore
SplineSet
775 1233 m 1,0,-1
 598 1499 l 1,1,-1
 454 1499 l 1,2,-1
 671 1233 l 1,3,-1
 775 1233 l 1,0,-1
EndSplineSet
EndChar

StartChar: a
Encoding: 97 97 69
Width: 1097
GlyphClass: 2
Flags: W
LayerCount: 2
Fore
SplineSet
839 0 m 1,0,1
 821 51 821 51 816 151 c 1,2,3
 753 69 753 69 655.5 24.5 c 128,-1,4
 558 -20 558 -20 449 -20 c 0,5,6
 293 -20 293 -20 196.5 67 c 128,-1,7
 100 154 100 154 100 287 c 0,8,9
 100 445 100 445 231.5 537 c 128,-1,10
 363 629 363 629 598 629 c 2,11,-1
 815 629 l 1,12,-1
 815 752 l 2,13,14
 815 868 815 868 743.5 934.5 c 128,-1,15
 672 1001 672 1001 535 1001 c 0,16,17
 410 1001 410 1001 328 937 c 128,-1,18
 246 873 246 873 246 783 c 1,19,-1
 126 784 l 1,20,21
 126 913 126 913 246 1007.5 c 128,-1,22
 366 1102 366 1102 541 1102 c 0,23,24
 722 1102 722 1102 826.5 1011.5 c 128,-1,25
 931 921 931 921 934 759 c 2,26,-1
 934 247 l 2,27,28
 934 90 934 90 967 12 c 1,29,-1
 967 0 l 1,30,-1
 839 0 l 1,0,1
463 86 m 0,31,32
 583 86 583 86 677.5 144 c 128,-1,33
 772 202 772 202 815 299 c 1,34,-1
 815 537 l 1,35,-1
 601 537 l 2,36,37
 422 535 422 535 321 471.5 c 128,-1,38
 220 408 220 408 220 297 c 0,39,40
 220 206 220 206 287.5 146 c 128,-1,41
 355 86 355 86 463 86 c 0,31,32
EndSplineSet
Substitution2: "'smcp' Lowercase to Small Capitals lookup 1 subtable" A.c2sc
EndChar

StartChar: b
Encoding: 98 98 70
Width: 1135
GlyphClass: 2
Flags: W
LayerCount: 2
Fore
SplineSet
1027 530 m 2,0,1
 1027 277 1027 277 915 128.5 c 128,-1,2
 803 -20 803 -20 614 -20 c 0,3,4
 388 -20 388 -20 272 148 c 1,5,-1
 267 0 l 1,6,-1
 155 0 l 1,7,-1
 155 1536 l 1,8,-1
 274 1536 l 1,9,-1
 274 925 l 1,10,11
 388 1102 388 1102 612 1102 c 0,12,13
 804 1102 804 1102 915.5 955.5 c 128,-1,14
 1027 809 1027 809 1027 548 c 2,15,-1
 1027 530 l 2,0,1
907 551 m 0,16,17
 907 765 907 765 824 881.5 c 128,-1,18
 741 998 741 998 590 998 c 0,19,20
 475 998 475 998 395 941.5 c 128,-1,21
 315 885 315 885 274 776 c 1,22,-1
 274 288 l 1,23,24
 364 84 364 84 592 84 c 0,25,26
 740 84 740 84 823.5 201 c 128,-1,27
 907 318 907 318 907 551 c 0,16,17
EndSplineSet
Substitution2: "'ss06' Style Set 6 lookup 16 subtable" b.ss06
Substitution2: "'smcp' Lowercase to Small Capitals lookup 1 subtable" B.c2sc
EndChar

StartChar: c
Encoding: 99 99 71
Width: 1055
GlyphClass: 2
Flags: W
LayerCount: 2
Fore
SplineSet
556 81 m 0,0,1
 681 81 681 81 765.5 151.5 c 128,-1,2
 850 222 850 222 857 334 c 1,3,-1
 972 334 l 1,4,5
 967 235 967 235 910 153.5 c 128,-1,6
 853 72 853 72 758.5 26 c 128,-1,7
 664 -20 664 -20 556 -20 c 0,8,9
 343 -20 343 -20 218.5 128 c 128,-1,10
 94 276 94 276 94 526 c 2,11,-1
 94 562 l 2,12,13
 94 722 94 722 150 845 c 128,-1,14
 206 968 206 968 310.5 1035 c 128,-1,15
 415 1102 415 1102 555 1102 c 0,16,17
 733 1102 733 1102 848.5 996 c 128,-1,18
 964 890 964 890 972 717 c 1,19,-1
 857 717 l 1,20,21
 849 844 849 844 765.5 922 c 128,-1,22
 682 1000 682 1000 555 1000 c 0,23,24
 393 1000 393 1000 303.5 883 c 128,-1,25
 214 766 214 766 214 555 c 2,26,-1
 214 520 l 2,27,28
 214 313 214 313 303.5 197 c 128,-1,29
 393 81 393 81 556 81 c 0,0,1
EndSplineSet
Substitution2: "'ss06' Style Set 6 lookup 16 subtable" c.ss06
Substitution2: "'smcp' Lowercase to Small Capitals lookup 1 subtable" C.c2sc
EndChar

StartChar: d
Encoding: 100 100 72
Width: 1138
GlyphClass: 2
Flags: W
LayerCount: 2
Fore
SplineSet
108 551 m 2,0,1
 108 803 108 803 220.5 952.5 c 128,-1,2
 333 1102 333 1102 526 1102 c 0,3,4
 745 1102 745 1102 860 929 c 1,5,-1
 860 1536 l 1,6,-1
 979 1536 l 1,7,-1
 979 0 l 1,8,-1
 867 0 l 1,9,-1
 862 144 l 1,10,11
 747 -20 747 -20 524 -20 c 0,12,13
 337 -20 337 -20 222.5 130.5 c 128,-1,14
 108 281 108 281 108 537 c 2,15,-1
 108 551 l 2,0,1
229 530 m 0,16,17
 229 323 229 323 312 203.5 c 128,-1,18
 395 84 395 84 546 84 c 0,19,20
 767 84 767 84 860 279 c 1,21,-1
 860 787 l 1,22,23
 767 998 767 998 548 998 c 0,24,25
 397 998 397 998 313 879.5 c 128,-1,26
 229 761 229 761 229 530 c 0,16,17
EndSplineSet
Substitution2: "'ss06' Style Set 6 lookup 16 subtable" d.ss06
Substitution2: "'smcp' Lowercase to Small Capitals lookup 1 subtable" D.c2sc
EndChar

StartChar: e
Encoding: 101 101 73
Width: 1058
GlyphClass: 2
Flags: W
LayerCount: 2
Fore
SplineSet
575 -20 m 0,0,1
 437 -20 437 -20 325.5 48 c 128,-1,2
 214 116 214 116 152 237.5 c 128,-1,3
 90 359 90 359 90 510 c 2,4,-1
 90 553 l 2,5,6
 90 709 90 709 150.5 834 c 128,-1,7
 211 959 211 959 319 1030.5 c 128,-1,8
 427 1102 427 1102 553 1102 c 0,9,10
 750 1102 750 1102 865.5 967.5 c 128,-1,11
 981 833 981 833 981 600 c 2,12,-1
 981 533 l 1,13,-1
 209 533 l 1,14,-1
 209 510 l 2,15,16
 209 326 209 326 314.5 203.5 c 128,-1,17
 420 81 420 81 580 81 c 0,18,19
 676 81 676 81 749.5 116 c 128,-1,20
 823 151 823 151 883 228 c 1,21,-1
 958 171 l 1,22,23
 826 -20 826 -20 575 -20 c 0,0,1
553 1000 m 0,24,25
 418 1000 418 1000 325.5 901 c 128,-1,26
 233 802 233 802 213 635 c 1,27,-1
 862 635 l 1,28,-1
 862 648 l 1,29,30
 857 804 857 804 773 902 c 128,-1,31
 689 1000 689 1000 553 1000 c 0,24,25
EndSplineSet
Substitution2: "'ss07' Style Set 7 lookup 17 subtable" e.ss07
Substitution2: "'smcp' Lowercase to Small Capitals lookup 1 subtable" E.c2sc
EndChar

StartChar: f
Encoding: 102 102 74
Width: 678
GlyphClass: 2
Flags: W
LayerCount: 2
Fore
SplineSet
242 0 m 1,0,-1
 242 984 l 1,1,-1
 63 984 l 1,2,-1
 63 1082 l 1,3,-1
 242 1082 l 1,4,-1
 242 1213 l 2,5,6
 242 1379 242 1379 326.5 1468 c 128,-1,7
 411 1557 411 1557 562 1557 c 0,8,9
 630 1557 630 1557 689 1540 c 1,10,-1
 680 1440 l 1,11,12
 630 1452 630 1452 571 1452 c 0,13,14
 472 1452 472 1452 417 1390.5 c 128,-1,15
 362 1329 362 1329 362 1216 c 2,16,-1
 362 1082 l 1,17,-1
 620 1082 l 1,18,-1
 620 984 l 1,19,-1
 362 984 l 1,20,-1
 362 0 l 1,21,-1
 242 0 l 1,0,-1
EndSplineSet
Substitution2: "'smcp' Lowercase to Small Capitals lookup 1 subtable" F.c2sc
EndChar

StartChar: g
Encoding: 103 103 75
Width: 1136
GlyphClass: 2
Flags: W
LayerCount: 2
Fore
SplineSet
108 551 m 2,0,1
 108 805 108 805 220.5 953.5 c 128,-1,2
 333 1102 333 1102 526 1102 c 0,3,4
 747 1102 747 1102 862 926 c 1,5,-1
 868 1082 l 1,6,-1
 980 1082 l 1,7,-1
 980 22 l 2,8,9
 980 -187 980 -187 863 -309 c 128,-1,10
 746 -431 746 -431 546 -431 c 0,11,12
 433 -431 433 -431 330.5 -380.5 c 128,-1,13
 228 -330 228 -330 169 -246 c 1,14,-1
 236 -174 l 1,15,16
 363 -330 363 -330 538 -330 c 0,17,18
 688 -330 688 -330 772 -241.5 c 128,-1,19
 856 -153 856 -153 859 4 c 2,20,-1
 859 140 l 1,21,22
 744 -20 744 -20 524 -20 c 0,23,24
 336 -20 336 -20 222 130 c 128,-1,25
 108 280 108 280 108 535 c 2,26,-1
 108 551 l 2,0,1
229 530 m 0,27,28
 229 323 229 323 312 203.5 c 128,-1,29
 395 84 395 84 546 84 c 0,30,31
 767 84 767 84 859 282 c 1,32,-1
 859 785 l 1,33,34
 817 889 817 889 738 943.5 c 128,-1,35
 659 998 659 998 548 998 c 0,36,37
 397 998 397 998 313 879.5 c 128,-1,38
 229 761 229 761 229 530 c 0,27,28
EndSplineSet
Substitution2: "'ss07' Style Set 7 lookup 17 subtable" g.ss07
Substitution2: "'ss06' Style Set 6 lookup 16 subtable" g.ss06
Substitution2: "'ss01' Style Set 1 lookup 11 subtable" g.ss01
Substitution2: "'smcp' Lowercase to Small Capitals lookup 1 subtable" G.c2sc
EndChar

StartChar: h
Encoding: 104 104 76
Width: 1124
GlyphClass: 2
Flags: W
LayerCount: 2
Fore
SplineSet
275 899 m 1,0,1
 334 996 334 996 426 1049 c 128,-1,2
 518 1102 518 1102 627 1102 c 0,3,4
 801 1102 801 1102 886 1004 c 128,-1,5
 971 906 971 906 972 710 c 2,6,-1
 972 0 l 1,7,-1
 853 0 l 1,8,-1
 853 711 l 2,9,10
 852 856 852 856 791.5 927 c 128,-1,11
 731 998 731 998 598 998 c 0,12,13
 487 998 487 998 401.5 928.5 c 128,-1,14
 316 859 316 859 275 741 c 1,15,-1
 275 0 l 1,16,-1
 156 0 l 1,17,-1
 156 1536 l 1,18,-1
 275 1536 l 1,19,-1
 275 899 l 1,0,1
EndSplineSet
Substitution2: "'smcp' Lowercase to Small Capitals lookup 1 subtable" H.c2sc
EndChar

StartChar: i
Encoding: 105 105 77
Width: 459
GlyphClass: 2
Flags: W
LayerCount: 2
Fore
SplineSet
290 0 m 1,0,-1
 170 0 l 1,1,-1
 170 1082 l 1,2,-1
 290 1082 l 1,3,-1
 290 0 l 1,0,-1
149 1395 m 256,4,5
 149 1429 149 1429 171 1452.5 c 128,-1,6
 193 1476 193 1476 231 1476 c 128,-1,7
 269 1476 269 1476 291.5 1452.5 c 128,-1,8
 314 1429 314 1429 314 1395 c 128,-1,9
 314 1361 314 1361 291.5 1338 c 128,-1,10
 269 1315 269 1315 231 1315 c 128,-1,11
 193 1315 193 1315 171 1338 c 128,-1,12
 149 1361 149 1361 149 1395 c 256,4,5
EndSplineSet
Substitution2: "Single Substitution lookup 3 subtable" glyph609
Substitution2: "'smcp' Lowercase to Small Capitals lookup 1 subtable" I.c2sc
EndChar

StartChar: j
Encoding: 106 106 78
Width: 467
GlyphClass: 2
Flags: W
LayerCount: 2
Fore
SplineSet
285 1082 m 1,0,-1
 285 -129 l 2,1,2
 285 -279 285 -279 213 -358 c 128,-1,3
 141 -437 141 -437 1 -437 c 0,4,5
 -53 -437 -53 -437 -104 -418 c 1,6,-1
 -102 -319 l 1,7,8
 -58 -332 -58 -332 -12 -332 c 0,9,10
 166 -332 166 -332 166 -127 c 2,11,-1
 166 1082 l 1,12,-1
 285 1082 l 1,0,-1
226 1476 m 0,13,14
 265 1476 265 1476 287 1452.5 c 128,-1,15
 309 1429 309 1429 309 1395 c 128,-1,16
 309 1361 309 1361 287 1338 c 128,-1,17
 265 1315 265 1315 226 1315 c 0,18,19
 188 1315 188 1315 166.5 1338 c 128,-1,20
 145 1361 145 1361 145 1395 c 128,-1,21
 145 1429 145 1429 166.5 1452.5 c 128,-1,22
 188 1476 188 1476 226 1476 c 0,13,14
EndSplineSet
Substitution2: "Single Substitution lookup 3 subtable" glyph607
Substitution2: "'smcp' Lowercase to Small Capitals lookup 1 subtable" J.c2sc
EndChar

StartChar: k
Encoding: 107 107 79
Width: 1003
GlyphClass: 2
Flags: W
LayerCount: 2
Fore
SplineSet
413 545 m 1,0,-1
 276 413 l 1,1,-1
 276 0 l 1,2,-1
 156 0 l 1,3,-1
 156 1536 l 1,4,-1
 276 1536 l 1,5,-1
 276 553 l 1,6,-1
 389 675 l 1,7,-1
 803 1082 l 1,8,-1
 954 1082 l 1,9,-1
 495 626 l 1,10,-1
 994 0 l 1,11,-1
 851 0 l 1,12,-1
 413 545 l 1,0,-1
EndSplineSet
Substitution2: "'ss05' Style Set 5 lookup 15 subtable" k.ss05
Substitution2: "'ss04' Style Set 4 lookup 14 subtable" k.ss04
Substitution2: "'smcp' Lowercase to Small Capitals lookup 1 subtable" K.c2sc
EndChar

StartChar: l
Encoding: 108 108 80
Width: 459
GlyphClass: 2
Flags: W
LayerCount: 2
Fore
SplineSet
290 0 m 1,0,-1
 170 0 l 1,1,-1
 170 1536 l 1,2,-1
 290 1536 l 1,3,-1
 290 0 l 1,0,-1
EndSplineSet
Substitution2: "'smcp' Lowercase to Small Capitals lookup 1 subtable" L.c2sc
EndChar

StartChar: m
Encoding: 109 109 81
Width: 1815
GlyphClass: 2
Flags: W
LayerCount: 2
Fore
SplineSet
265 1082 m 1,0,-1
 269 906 l 1,1,2
 329 1004 329 1004 419 1053 c 128,-1,3
 509 1102 509 1102 619 1102 c 0,4,5
 875 1102 875 1102 944 892 c 1,6,7
 1002 993 1002 993 1099 1047.5 c 128,-1,8
 1196 1102 1196 1102 1313 1102 c 0,9,10
 1661 1102 1661 1102 1668 722 c 1,11,-1
 1668 0 l 1,12,-1
 1548 0 l 1,13,-1
 1548 713 l 2,14,15
 1547 858 1547 858 1485.5 928 c 128,-1,16
 1424 998 1424 998 1285 998 c 0,17,18
 1156 996 1156 996 1067 914.5 c 128,-1,19
 978 833 978 833 968 716 c 1,20,-1
 968 0 l 1,21,-1
 848 0 l 1,22,-1
 848 722 l 2,23,24
 847 861 847 861 782.5 929.5 c 128,-1,25
 718 998 718 998 584 998 c 0,26,27
 471 998 471 998 390 933.5 c 128,-1,28
 309 869 309 869 270 742 c 1,29,-1
 270 0 l 1,30,-1
 150 0 l 1,31,-1
 150 1082 l 1,32,-1
 265 1082 l 1,0,-1
EndSplineSet
Substitution2: "'smcp' Lowercase to Small Capitals lookup 1 subtable" M.c2sc
EndChar

StartChar: n
Encoding: 110 110 82
Width: 1125
GlyphClass: 2
Flags: W
LayerCount: 2
Fore
SplineSet
270 1082 m 1,0,-1
 274 897 l 1,1,2
 335 997 335 997 426 1049.5 c 128,-1,3
 517 1102 517 1102 627 1102 c 0,4,5
 801 1102 801 1102 886 1004 c 128,-1,6
 971 906 971 906 972 710 c 2,7,-1
 972 0 l 1,8,-1
 853 0 l 1,9,-1
 853 711 l 2,10,11
 852 856 852 856 791.5 927 c 128,-1,12
 731 998 731 998 598 998 c 0,13,14
 487 998 487 998 401.5 928.5 c 128,-1,15
 316 859 316 859 275 741 c 1,16,-1
 275 0 l 1,17,-1
 156 0 l 1,18,-1
 156 1082 l 1,19,-1
 270 1082 l 1,0,-1
EndSplineSet
Substitution2: "'smcp' Lowercase to Small Capitals lookup 1 subtable" N.c2sc
EndChar

StartChar: o
Encoding: 111 111 83
Width: 1147
GlyphClass: 2
Flags: W
LayerCount: 2
Fore
SplineSet
90 557 m 2,0,1
 90 713 90 713 150.5 838 c 128,-1,2
 211 963 211 963 321.5 1032.5 c 128,-1,3
 432 1102 432 1102 572 1102 c 0,4,5
 788 1102 788 1102 922 950.5 c 128,-1,6
 1056 799 1056 799 1056 549 c 2,7,-1
 1056 524 l 2,8,9
 1056 367 1056 367 995.5 241.5 c 128,-1,10
 935 116 935 116 825 48 c 128,-1,11
 715 -20 715 -20 574 -20 c 0,12,13
 359 -20 359 -20 224.5 131.5 c 128,-1,14
 90 283 90 283 90 533 c 2,15,-1
 90 557 l 2,0,1
210 524 m 2,16,17
 210 330 210 330 310.5 205.5 c 128,-1,18
 411 81 411 81 574 81 c 0,19,20
 736 81 736 81 836.5 205.5 c 128,-1,21
 937 330 937 330 937 534 c 2,22,-1
 937 557 l 2,23,24
 937 681 937 681 891 784 c 128,-1,25
 845 887 845 887 762 943.5 c 128,-1,26
 679 1000 679 1000 572 1000 c 0,27,28
 412 1000 412 1000 311 874.5 c 128,-1,29
 210 749 210 749 210 546 c 2,30,-1
 210 524 l 2,16,17
EndSplineSet
Substitution2: "'ss06' Style Set 6 lookup 16 subtable" o.ss06
Substitution2: "'smcp' Lowercase to Small Capitals lookup 1 subtable" O.c2sc
EndChar

StartChar: p
Encoding: 112 112 84
Width: 1135
GlyphClass: 2
Flags: W
LayerCount: 2
Fore
SplineSet
1026 530 m 2,0,1
 1026 277 1026 277 914 128.5 c 128,-1,2
 802 -20 802 -20 614 -20 c 0,3,4
 392 -20 392 -20 274 136 c 1,5,-1
 274 -416 l 1,6,-1
 155 -416 l 1,7,-1
 155 1082 l 1,8,-1
 266 1082 l 1,9,-1
 272 929 l 1,10,11
 389 1102 389 1102 611 1102 c 0,12,13
 805 1102 805 1102 915.5 955 c 128,-1,14
 1026 808 1026 808 1026 547 c 2,15,-1
 1026 530 l 2,0,1
906 551 m 0,16,17
 906 758 906 758 821 878 c 128,-1,18
 736 998 736 998 584 998 c 0,19,20
 474 998 474 998 395 945 c 128,-1,21
 316 892 316 892 274 791 c 1,22,-1
 274 272 l 1,23,24
 317 179 317 179 397 130 c 128,-1,25
 477 81 477 81 586 81 c 0,26,27
 737 81 737 81 821.5 201.5 c 128,-1,28
 906 322 906 322 906 551 c 0,16,17
EndSplineSet
Substitution2: "'ss06' Style Set 6 lookup 16 subtable" p.ss06
Substitution2: "'smcp' Lowercase to Small Capitals lookup 1 subtable" P.c2sc
EndChar

StartChar: q
Encoding: 113 113 85
Width: 1142
GlyphClass: 2
Flags: W
LayerCount: 2
Fore
SplineSet
108 551 m 2,0,1
 108 805 108 805 220.5 953.5 c 128,-1,2
 333 1102 333 1102 528 1102 c 0,3,4
 747 1102 747 1102 861 935 c 1,5,-1
 867 1082 l 1,6,-1
 979 1082 l 1,7,-1
 979 -416 l 1,8,-1
 859 -416 l 1,9,-1
 859 134 l 1,10,11
 741 -20 741 -20 526 -20 c 0,12,13
 336 -20 336 -20 222 130 c 128,-1,14
 108 280 108 280 108 535 c 2,15,-1
 108 551 l 2,0,1
229 530 m 0,16,17
 229 320 229 320 313.5 200.5 c 128,-1,18
 398 81 398 81 548 81 c 0,19,20
 763 81 763 81 859 268 c 1,21,-1
 859 798 l 1,22,23
 814 895 814 895 734.5 947.5 c 128,-1,24
 655 1000 655 1000 550 1000 c 0,25,26
 399 1000 399 1000 314 880.5 c 128,-1,27
 229 761 229 761 229 530 c 0,16,17
EndSplineSet
Substitution2: "'ss06' Style Set 6 lookup 16 subtable" q.ss06
Substitution2: "'smcp' Lowercase to Small Capitals lookup 1 subtable" Q.c2sc
EndChar

StartChar: r
Encoding: 114 114 86
Width: 689
GlyphClass: 2
Flags: W
LayerCount: 2
Fore
SplineSet
656 980 m 1,0,1
 618 987 618 987 575 987 c 0,2,3
 463 987 463 987 385.5 924.5 c 128,-1,4
 308 862 308 862 275 743 c 1,5,-1
 275 0 l 1,6,-1
 156 0 l 1,7,-1
 156 1082 l 1,8,-1
 273 1082 l 1,9,-1
 275 910 l 1,10,11
 370 1102 370 1102 580 1102 c 0,12,13
 630 1102 630 1102 659 1089 c 1,14,-1
 656 980 l 1,0,1
EndSplineSet
Substitution2: "'smcp' Lowercase to Small Capitals lookup 1 subtable" R.c2sc
EndChar

StartChar: s
Encoding: 115 115 87
Width: 1037
GlyphClass: 2
Flags: W
LayerCount: 2
Fore
SplineSet
804 275 m 0,0,1
 804 364 804 364 732.5 418 c 128,-1,2
 661 472 661 472 517 502.5 c 128,-1,3
 373 533 373 533 293.5 572.5 c 128,-1,4
 214 612 214 612 175.5 669 c 128,-1,5
 137 726 137 726 137 807 c 0,6,7
 137 935 137 935 244 1018.5 c 128,-1,8
 351 1102 351 1102 518 1102 c 0,9,10
 699 1102 699 1102 808.5 1012.5 c 128,-1,11
 918 923 918 923 918 779 c 1,12,-1
 798 779 l 1,13,14
 798 874 798 874 718.5 937 c 128,-1,15
 639 1000 639 1000 518 1000 c 0,16,17
 400 1000 400 1000 328.5 947.5 c 128,-1,18
 257 895 257 895 257 811 c 0,19,20
 257 730 257 730 316.5 685.5 c 128,-1,21
 376 641 376 641 533.5 604 c 128,-1,22
 691 567 691 567 769.5 525 c 128,-1,23
 848 483 848 483 886 424 c 128,-1,24
 924 365 924 365 924 281 c 0,25,26
 924 144 924 144 813.5 62 c 128,-1,27
 703 -20 703 -20 525 -20 c 0,28,29
 336 -20 336 -20 218.5 71.5 c 128,-1,30
 101 163 101 163 101 303 c 1,31,-1
 221 303 l 1,32,33
 228 198 228 198 309.5 139.5 c 128,-1,34
 391 81 391 81 525 81 c 0,35,36
 650 81 650 81 727 136 c 128,-1,37
 804 191 804 191 804 275 c 0,0,1
EndSplineSet
Substitution2: "'smcp' Lowercase to Small Capitals lookup 1 subtable" S.c2sc
EndChar

StartChar: t
Encoding: 116 116 88
Width: 658
GlyphClass: 2
Flags: W
LayerCount: 2
Fore
SplineSet
342 1359 m 1,0,-1
 342 1082 l 1,1,-1
 566 1082 l 1,2,-1
 566 984 l 1,3,-1
 342 984 l 1,4,-1
 342 263 l 2,5,6
 342 173 342 173 374.5 129 c 128,-1,7
 407 85 407 85 483 85 c 0,8,9
 513 85 513 85 580 95 c 1,10,-1
 585 -3 l 1,11,12
 538 -20 538 -20 457 -20 c 0,13,14
 334 -20 334 -20 278 51.5 c 128,-1,15
 222 123 222 123 222 262 c 2,16,-1
 222 984 l 1,17,-1
 23 984 l 1,18,-1
 23 1082 l 1,19,-1
 222 1082 l 1,20,-1
 222 1359 l 1,21,-1
 342 1359 l 1,0,-1
EndSplineSet
Substitution2: "'smcp' Lowercase to Small Capitals lookup 1 subtable" T.c2sc
EndChar

StartChar: u
Encoding: 117 117 89
Width: 1125
GlyphClass: 2
Flags: W
LayerCount: 2
Fore
SplineSet
852 137 m 1,0,1
 744 -20 744 -20 507 -20 c 0,2,3
 334 -20 334 -20 244 80.5 c 128,-1,4
 154 181 154 181 152 378 c 2,5,-1
 152 1082 l 1,6,-1
 271 1082 l 1,7,-1
 271 393 l 2,8,9
 271 84 271 84 521 84 c 0,10,11
 781 84 781 84 850 299 c 1,12,-1
 850 1082 l 1,13,-1
 970 1082 l 1,14,-1
 970 0 l 1,15,-1
 854 0 l 1,16,-1
 852 137 l 1,0,1
EndSplineSet
Substitution2: "'smcp' Lowercase to Small Capitals lookup 1 subtable" U.c2sc
EndChar

StartChar: v
Encoding: 118 118 90
Width: 985
GlyphClass: 2
Flags: W
LayerCount: 2
Fore
SplineSet
493 165 m 1,0,-1
 822 1082 l 1,1,-1
 945 1082 l 1,2,-1
 541 0 l 1,3,-1
 444 0 l 1,4,-1
 38 1082 l 1,5,-1
 161 1082 l 1,6,-1
 493 165 l 1,0,-1
EndSplineSet
Substitution2: "'smcp' Lowercase to Small Capitals lookup 1 subtable" V.c2sc
EndChar

StartChar: w
Encoding: 119 119 91
Width: 1544
GlyphClass: 2
Flags: W
LayerCount: 2
Fore
SplineSet
415 249 m 1,0,-1
 433 156 l 1,1,-1
 457 254 l 1,2,-1
 717 1082 l 1,3,-1
 819 1082 l 1,4,-1
 1076 261 l 1,5,-1
 1104 147 l 1,6,-1
 1127 252 l 1,7,-1
 1349 1082 l 1,8,-1
 1473 1082 l 1,9,-1
 1158 0 l 1,10,-1
 1056 0 l 1,11,-1
 778 858 l 1,12,-1
 765 917 l 1,13,-1
 752 857 l 1,14,-1
 479 0 l 1,15,-1
 377 0 l 1,16,-1
 63 1082 l 1,17,-1
 186 1082 l 1,18,-1
 415 249 l 1,0,-1
EndSplineSet
Substitution2: "'smcp' Lowercase to Small Capitals lookup 1 subtable" W.c2sc
EndChar

StartChar: x
Encoding: 120 120 92
Width: 996
GlyphClass: 2
Flags: W
LayerCount: 2
Fore
SplineSet
496 643 m 1,0,-1
 788 1082 l 1,1,-1
 930 1082 l 1,2,-1
 563 551 l 1,3,-1
 946 0 l 1,4,-1
 805 0 l 1,5,-1
 497 458 l 1,6,-1
 189 0 l 1,7,-1
 48 0 l 1,8,-1
 430 551 l 1,9,-1
 63 1082 l 1,10,-1
 204 1082 l 1,11,-1
 496 643 l 1,0,-1
EndSplineSet
Substitution2: "'smcp' Lowercase to Small Capitals lookup 1 subtable" X.c2sc
EndChar

StartChar: y
Encoding: 121 121 93
Width: 973
GlyphClass: 2
Flags: W
LayerCount: 2
Fore
SplineSet
499 172 m 1,0,-1
 815 1082 l 1,1,-1
 944 1082 l 1,2,-1
 482 -184 l 1,3,-1
 458 -240 l 1,4,5
 369 -437 369 -437 183 -437 c 0,6,7
 140 -437 140 -437 91 -423 c 1,8,-1
 90 -324 l 1,9,-1
 152 -330 l 1,10,11
 240 -330 240 -330 294.5 -286.5 c 128,-1,12
 349 -243 349 -243 387 -137 c 2,13,-1
 440 9 l 1,14,-1
 32 1082 l 1,15,-1
 163 1082 l 1,16,-1
 499 172 l 1,0,-1
EndSplineSet
Substitution2: "'smcp' Lowercase to Small Capitals lookup 1 subtable" Y.c2sc
EndChar

StartChar: z
Encoding: 122 122 94
Width: 996
GlyphClass: 2
Flags: W
LayerCount: 2
Fore
SplineSet
235 101 m 1,0,-1
 938 101 l 1,1,-1
 938 0 l 1,2,-1
 87 0 l 1,3,-1
 87 88 l 1,4,-1
 743 979 l 1,5,-1
 107 979 l 1,6,-1
 107 1082 l 1,7,-1
 894 1082 l 1,8,-1
 894 993 l 1,9,-1
 235 101 l 1,0,-1
EndSplineSet
Substitution2: "'smcp' Lowercase to Small Capitals lookup 1 subtable" Z.c2sc
EndChar

StartChar: braceleft
Encoding: 123 123 95
Width: 1229
GlyphClass: 1
Flags: HW
LayerCount: 2
Fore
SplineSet
974 -403 m 1,0,-1
 995 -323 l 1,1,2
 927 -309 927 -309 877.5 -274 c 128,-1,3
 828 -239 828 -239 796 -188 c 0,4,5
 763 -138 763 -138 746.5 -74.5 c 128,-1,6
 730 -11 730 -11 730 60 c 2,7,-1
 730 267 l 2,8,9
 728 391 728 391 667 475.5 c 128,-1,10
 606 560 606 560 492 595 c 1,11,12
 606 630 606 630 668 714 c 128,-1,13
 730 798 730 798 730 924 c 2,14,-1
 730 1132 l 2,15,16
 730 1201 730 1201 742.5 1264 c 128,-1,17
 755 1327 755 1327 784 1377 c 0,18,19
 815 1430 815 1430 866 1466.5 c 128,-1,20
 917 1503 917 1503 992 1517 c 1,21,-1
 974 1597 l 1,22,23
 881 1582 881 1582 812 1540 c 128,-1,24
 743 1498 743 1498 699 1436 c 0,25,26
 654 1374 654 1374 632 1295.5 c 128,-1,27
 610 1217 610 1217 610 1132 c 2,28,-1
 610 924 l 2,29,30
 609 785 609 785 538 718 c 128,-1,31
 467 651 467 651 331 649 c 1,32,-1
 331 543 l 1,33,34
 467 540 467 540 538 473 c 128,-1,35
 609 406 609 406 610 267 c 2,36,-1
 610 60 l 2,37,38
 610 -25 610 -25 633 -102 c 128,-1,39
 656 -179 656 -179 700 -240 c 0,40,41
 746 -303 746 -303 814.5 -345.5 c 128,-1,42
 883 -388 883 -388 974 -403 c 1,0,-1
EndSplineSet
EndChar

StartChar: bar
Encoding: 124 124 96
Width: 1229
GlyphClass: 1
Flags: HW
LayerCount: 2
Fore
SplineSet
666 -334 m 1,0,-1
 666 1456 l 1,1,-1
 564 1456 l 1,2,-1
 564 -334 l 1,3,-1
 666 -334 l 1,0,-1
EndSplineSet
EndChar

StartChar: braceright
Encoding: 125 125 97
Width: 1229
GlyphClass: 1
Flags: HW
LayerCount: 2
Fore
SplineSet
331 -323 m 1,0,-1
 351 -403 l 1,1,2
 440 -389 440 -389 507 -348 c 128,-1,3
 574 -307 574 -307 620 -247 c 0,4,5
 667 -185 667 -185 691 -106 c 128,-1,6
 715 -27 715 -27 715 60 c 2,7,-1
 715 267 l 2,8,9
 715 332 715 332 731.5 381.5 c 128,-1,10
 748 431 748 431 779 465 c 0,11,12
 814 503 814 503 868 522 c 128,-1,13
 922 541 922 541 994 543 c 1,14,-1
 994 649 l 1,15,16
 918 650 918 650 862 671 c 128,-1,17
 806 692 806 692 771 735 c 0,18,19
 744 769 744 769 730 816 c 128,-1,20
 716 863 716 863 715 924 c 2,21,-1
 715 1132 l 2,22,23
 715 1227 715 1227 688 1311 c 128,-1,24
 661 1395 661 1395 606 1460 c 0,25,26
 562 1512 562 1512 498.5 1548 c 128,-1,27
 435 1584 435 1584 351 1597 c 1,28,-1
 334 1517 l 1,29,30
 401 1506 401 1506 448 1474 c 128,-1,31
 495 1442 495 1442 525 1397 c 0,32,33
 561 1345 561 1345 578 1276.5 c 128,-1,34
 595 1208 595 1208 596 1132 c 2,35,-1
 596 924 l 2,36,37
 596 848 596 848 618.5 786.5 c 128,-1,38
 641 725 641 725 684 681 c 0,39,40
 713 652 713 652 750.5 630 c 128,-1,41
 788 608 788 608 833 595 c 1,42,43
 788 582 788 582 750.5 560.5 c 128,-1,44
 713 539 713 539 684 510 c 0,45,46
 641 465 641 465 618.5 403.5 c 128,-1,47
 596 342 596 342 596 267 c 2,48,-1
 596 60 l 2,49,50
 595 -11 595 -11 578.5 -74 c 128,-1,51
 562 -137 562 -137 530 -188 c 0,52,53
 497 -239 497 -239 447.5 -274 c 128,-1,54
 398 -309 398 -309 331 -323 c 1,0,-1
EndSplineSet
EndChar

StartChar: asciitilde
Encoding: 126 126 98
Width: 1229
GlyphClass: 1
Flags: HW
LayerCount: 2
Fore
SplineSet
1169 746 m 1,0,-1
 1074 756 l 1,1,2
 1073 712 1073 712 1060 671 c 128,-1,3
 1047 630 1047 630 1024 600 c 0,4,5
 999 568 999 568 964 549.5 c 128,-1,6
 929 531 929 531 884 531 c 0,7,8
 850 530 850 530 819 539.5 c 128,-1,9
 788 549 788 549 760 565 c 0,10,11
 733 580 733 580 707 600.5 c 128,-1,12
 681 621 681 621 654 644 c 0,13,14
 619 674 619 674 583 700.5 c 128,-1,15
 547 727 547 727 510 747 c 0,16,17
 472 766 472 766 431 777 c 128,-1,18
 390 788 390 788 344 788 c 0,19,20
 276 788 276 788 224 762 c 128,-1,21
 172 736 172 736 136 692 c 0,22,23
 99 648 99 648 80 589.5 c 128,-1,24
 61 531 61 531 60 468 c 1,25,-1
 154 459 l 1,26,27
 155 504 155 504 167.5 544 c 128,-1,28
 180 584 180 584 204 614 c 256,29,30
 228 644 228 644 263 662 c 128,-1,31
 298 680 298 680 344 680 c 0,32,33
 375 680 375 680 402.5 672.5 c 128,-1,34
 430 665 430 665 456 652 c 0,35,36
 486 637 486 637 515.5 615 c 128,-1,37
 545 593 545 593 575 568 c 0,38,39
 611 536 611 536 646.5 509.5 c 128,-1,40
 682 483 682 483 720 464 c 0,41,42
 757 444 757 444 797 433.5 c 128,-1,43
 837 423 837 423 884 423 c 0,44,45
 950 423 950 423 1002.5 450 c 128,-1,46
 1055 477 1055 477 1092 522 c 0,47,48
 1128 566 1128 566 1148 624.5 c 128,-1,49
 1168 683 1168 683 1169 746 c 1,0,-1
EndSplineSet
EndChar

StartChar: exclamdown
Encoding: 161 161 99
Width: 452
GlyphClass: 1
Flags: W
LayerCount: 2
Fore
SplineSet
174 690 m 1,0,-1
 285 690 l 1,1,-1
 292 -359 l 1,2,-1
 168 -359 l 1,3,-1
 174 690 l 1,0,-1
305 1022 m 256,4,5
 305 988 305 988 283 965 c 128,-1,6
 261 942 261 942 223 942 c 128,-1,7
 185 942 185 942 162.5 965 c 128,-1,8
 140 988 140 988 140 1022 c 128,-1,9
 140 1056 140 1056 162.5 1079 c 128,-1,10
 185 1102 185 1102 223 1102 c 128,-1,11
 261 1102 261 1102 283 1079 c 128,-1,12
 305 1056 305 1056 305 1022 c 256,4,5
EndSplineSet
EndChar

StartChar: cent
Encoding: 162 162 100
Width: 1115
GlyphClass: 1
Flags: W
LayerCount: 2
Fore
SplineSet
581 81 m 0,0,1
 704 81 704 81 788.5 150.5 c 128,-1,2
 873 220 873 220 882 334 c 1,3,-1
 997 334 l 1,4,5
 989 195 989 195 886.5 97 c 128,-1,6
 784 -1 784 -1 636 -17 c 1,7,-1
 636 -245 l 1,8,-1
 516 -245 l 1,9,-1
 516 -16 l 1,10,11
 331 7 331 7 225 150 c 128,-1,12
 119 293 119 293 119 526 c 2,13,-1
 119 562 l 2,14,15
 119 784 119 784 224.5 929.5 c 128,-1,16
 330 1075 330 1075 516 1098 c 1,17,-1
 516 1318 l 1,18,-1
 636 1318 l 1,19,-1
 636 1099 l 1,20,21
 791 1083 791 1083 891 978 c 128,-1,22
 991 873 991 873 997 717 c 1,23,-1
 882 717 l 1,24,25
 874 844 874 844 790.5 922 c 128,-1,26
 707 1000 707 1000 580 1000 c 0,27,28
 418 1000 418 1000 328.5 883 c 128,-1,29
 239 766 239 766 239 555 c 2,30,-1
 239 520 l 2,31,32
 239 313 239 313 328.5 197 c 128,-1,33
 418 81 418 81 581 81 c 0,0,1
EndSplineSet
EndChar

StartChar: sterling
Encoding: 163 163 101
Width: 1170
GlyphClass: 1
Flags: W
LayerCount: 2
Fore
SplineSet
404 645 m 1,0,-1
 413 368 l 2,1,2
 415 194 415 194 349 104 c 1,3,-1
 1094 104 l 1,4,-1
 1094 0 l 1,5,-1
 97 0 l 1,6,-1
 97 104 l 1,7,-1
 195 104 l 1,8,9
 246 117 246 117 272 211 c 0,10,11
 292 285 292 285 290 367 c 2,12,-1
 281 645 l 1,13,-1
 93 645 l 1,14,-1
 93 749 l 1,15,-1
 277 749 l 1,16,-1
 268 1039 l 1,17,18
 268 1239 268 1239 378.5 1357.5 c 128,-1,19
 489 1476 489 1476 674 1476 c 0,20,21
 856 1476 856 1476 961.5 1370.5 c 128,-1,22
 1067 1265 1067 1265 1067 1088 c 1,23,-1
 944 1088 l 1,24,25
 944 1223 944 1223 869 1297 c 128,-1,26
 794 1371 794 1371 665 1371 c 0,27,28
 540 1371 540 1371 466 1282.5 c 128,-1,29
 392 1194 392 1194 392 1039 c 1,30,-1
 401 749 l 1,31,-1
 745 749 l 1,32,-1
 745 645 l 1,33,-1
 404 645 l 1,0,-1
EndSplineSet
Substitution2: "'c2sc' Capitals to Small Capitals lookup 0 subtable" sterling.c2sc
Position2: "'cpsp' Capital Spacing lookup 0 subtable" dx=36 dy=0 dh=72 dv=0
EndChar

StartChar: currency
Encoding: 164 164 102
Width: 1481
GlyphClass: 1
Flags: W
LayerCount: 2
Fore
SplineSet
1131 133 m 1,0,1
 1053 61 1053 61 953 20.5 c 128,-1,2
 853 -20 853 -20 740 -20 c 0,3,4
 514 -20 514 -20 349 132 c 1,5,-1
 194 -26 l 1,6,-1
 109 60 l 1,7,-1
 268 221 l 1,8,9
 144 389 144 389 144 608 c 0,10,11
 144 835 144 835 277 1006 c 1,12,-1
 109 1177 l 1,13,-1
 194 1264 l 1,14,-1
 361 1094 l 1,15,16
 526 1234 526 1234 740 1234 c 128,-1,17
 954 1234 954 1234 1119 1092 c 1,18,-1
 1289 1265 l 1,19,-1
 1375 1177 l 1,20,-1
 1204 1002 l 1,21,22
 1334 832 1334 832 1334 608 c 0,23,24
 1334 393 1334 393 1212 224 c 1,25,-1
 1375 60 l 1,26,-1
 1289 -27 l 1,27,-1
 1131 133 l 1,0,1
257 608 m 0,28,29
 257 470 257 470 321.5 350 c 128,-1,30
 386 230 386 230 499 160.5 c 128,-1,31
 612 91 612 91 740 91 c 0,32,33
 869 91 869 91 981 161 c 128,-1,34
 1093 231 1093 231 1157 350.5 c 128,-1,35
 1221 470 1221 470 1221 608 c 0,36,37
 1221 747 1221 747 1155.5 866.5 c 128,-1,38
 1090 986 1090 986 979 1054 c 128,-1,39
 868 1122 868 1122 740 1122 c 128,-1,40
 612 1122 612 1122 500 1054 c 128,-1,41
 388 986 388 986 322.5 866.5 c 128,-1,42
 257 747 257 747 257 608 c 0,28,29
EndSplineSet
EndChar

StartChar: yen
Encoding: 165 165 103
Width: 1056
GlyphClass: 1
Flags: W
LayerCount: 2
Fore
SplineSet
527 731 m 1,0,-1
 892 1456 l 1,1,-1
 1030 1456 l 1,2,-1
 631 705 l 1,3,-1
 944 705 l 1,4,-1
 944 616 l 1,5,-1
 586 616 l 1,6,-1
 586 412 l 1,7,-1
 944 412 l 1,8,-1
 944 324 l 1,9,-1
 586 324 l 1,10,-1
 586 0 l 1,11,-1
 463 0 l 1,12,-1
 463 324 l 1,13,-1
 109 324 l 1,14,-1
 109 412 l 1,15,-1
 463 412 l 1,16,-1
 463 616 l 1,17,-1
 109 616 l 1,18,-1
 109 705 l 1,19,-1
 422 705 l 1,20,-1
 24 1456 l 1,21,-1
 163 1456 l 1,22,-1
 527 731 l 1,0,-1
EndSplineSet
Substitution2: "'c2sc' Capitals to Small Capitals lookup 0 subtable" yen.c2sc
Position2: "'cpsp' Capital Spacing lookup 0 subtable" dx=36 dy=0 dh=72 dv=0
EndChar

StartChar: brokenbar
Encoding: 166 166 104
Width: 444
GlyphClass: 1
Flags: W
LayerCount: 2
Fore
SplineSet
159 -270 m 1,0,-1
 159 501 l 1,1,-1
 279 501 l 1,2,-1
 279 -270 l 1,3,-1
 159 -270 l 1,0,-1
279 698 m 1,4,-1
 159 698 l 1,5,-1
 159 1456 l 1,6,-1
 279 1456 l 1,7,-1
 279 698 l 1,4,-1
EndSplineSet
EndChar

StartChar: section
Encoding: 167 167 105
Width: 1239
GlyphClass: 1
Flags: W
LayerCount: 2
Fore
SplineSet
1119 431 m 0,0,1
 1119 331 1119 331 1057.5 261.5 c 128,-1,2
 996 192 996 192 887 159 c 1,3,4
 978 111 978 111 1026.5 41 c 128,-1,5
 1075 -29 1075 -29 1075 -139 c 0,6,7
 1075 -303 1075 -303 949 -399 c 128,-1,8
 823 -495 823 -495 606 -495 c 0,9,10
 497 -495 497 -495 400.5 -467 c 128,-1,11
 304 -439 304 -439 236 -382 c 0,12,13
 102 -268 102 -268 102 -64 c 1,14,-1
 222 -62 l 1,15,16
 222 -218 222 -218 325.5 -305.5 c 128,-1,17
 429 -393 429 -393 606 -393 c 0,18,19
 766 -393 766 -393 860 -323.5 c 128,-1,20
 954 -254 954 -254 954 -141 c 0,21,22
 954 -64 954 -64 919.5 -17 c 128,-1,23
 885 30 885 30 805 69 c 128,-1,24
 725 108 725 108 548 156 c 128,-1,25
 371 204 371 204 284 255.5 c 128,-1,26
 197 307 197 307 152.5 378.5 c 128,-1,27
 108 450 108 450 108 551 c 0,28,29
 108 651 108 651 166.5 721.5 c 128,-1,30
 225 792 225 792 331 825 c 1,31,32
 245 872 245 872 199 942 c 128,-1,33
 153 1012 153 1012 153 1120 c 0,34,35
 153 1281 153 1281 282 1378.5 c 128,-1,36
 411 1476 411 1476 624 1476 c 0,37,38
 848 1476 848 1476 972.5 1363 c 128,-1,39
 1097 1250 1097 1250 1097 1045 c 1,40,-1
 977 1045 l 1,41,42
 977 1191 977 1191 881 1282.5 c 128,-1,43
 785 1374 785 1374 624 1374 c 0,44,45
 459 1374 459 1374 366 1305.5 c 128,-1,46
 273 1237 273 1237 273 1122 c 0,47,48
 273 1043 273 1043 304 996 c 128,-1,49
 335 949 335 949 411 911 c 128,-1,50
 487 873 487 873 646 828 c 0,51,52
 842 777 842 777 936.5 725.5 c 128,-1,53
 1031 674 1031 674 1075 603 c 128,-1,54
 1119 532 1119 532 1119 431 c 0,0,1
454 771 m 1,55,56
 346 758 346 758 287 700 c 128,-1,57
 228 642 228 642 228 553 c 0,58,59
 228 470 228 470 263.5 422 c 128,-1,60
 299 374 299 374 379.5 336 c 128,-1,61
 460 298 460 298 663 242 c 1,62,-1
 755 214 l 1,63,64
 867 227 867 227 933 284.5 c 128,-1,65
 999 342 999 342 999 428 c 0,66,67
 999 526 999 526 932 585 c 128,-1,68
 865 644 865 644 692 700 c 1,69,-1
 454 771 l 1,55,56
EndSplineSet
EndChar

StartChar: dieresis
Encoding: 168 168 106
Width: 881
GlyphClass: 1
Flags: W
LayerCount: 2
Fore
SplineSet
137 1396 m 0,0,1
 137 1430 137 1430 159 1453.5 c 128,-1,2
 181 1477 181 1477 219 1477 c 128,-1,3
 257 1477 257 1477 279.5 1453.5 c 128,-1,4
 302 1430 302 1430 302 1396 c 0,5,6
 302 1363 302 1363 279.5 1340 c 128,-1,7
 257 1317 257 1317 219 1317 c 128,-1,8
 181 1317 181 1317 159 1340 c 128,-1,9
 137 1363 137 1363 137 1396 c 0,0,1
575 1395 m 0,10,11
 575 1429 575 1429 597 1452.5 c 128,-1,12
 619 1476 619 1476 657 1476 c 128,-1,13
 695 1476 695 1476 717.5 1452.5 c 128,-1,14
 740 1429 740 1429 740 1395 c 0,15,16
 740 1362 740 1362 717.5 1339 c 128,-1,17
 695 1316 695 1316 657 1316 c 128,-1,18
 619 1316 619 1316 597 1339 c 128,-1,19
 575 1362 575 1362 575 1395 c 0,10,11
EndSplineSet
EndChar

StartChar: copyright
Encoding: 169 169 107
Width: 1637
GlyphClass: 1
Flags: W
LayerCount: 2
Fore
SplineSet
1121 607 m 1,0,1
 1121 455 1121 455 1039 374 c 128,-1,2
 957 293 957 293 807 293 c 128,-1,3
 657 293 657 293 565.5 399 c 128,-1,4
 474 505 474 505 474 686 c 2,5,-1
 474 776 l 2,6,7
 474 950 474 950 566 1056.5 c 128,-1,8
 658 1163 658 1163 807 1163 c 128,-1,9
 956 1163 956 1163 1039 1082.5 c 128,-1,10
 1122 1002 1122 1002 1122 850 c 1,11,-1
 1023 850 l 1,12,13
 1023 1074 1023 1074 807 1074 c 0,14,15
 701 1074 701 1074 637 993 c 128,-1,16
 573 912 573 912 573 771 c 2,17,-1
 573 680 l 2,18,19
 573 546 573 546 636 464.5 c 128,-1,20
 699 383 699 383 807 383 c 0,21,22
 913 383 913 383 967.5 436 c 128,-1,23
 1022 489 1022 489 1022 607 c 1,24,-1
 1121 607 l 1,0,1
192 729 m 0,25,26
 192 553 192 553 273.5 399 c 128,-1,27
 355 245 355 245 502 155 c 128,-1,28
 649 65 649 65 817 65 c 0,29,30
 984 65 984 65 1129 154 c 128,-1,31
 1274 243 1274 243 1357.5 396.5 c 128,-1,32
 1441 550 1441 550 1441 729 c 0,33,34
 1441 907 1441 907 1358 1059.5 c 128,-1,35
 1275 1212 1275 1212 1129.5 1300.5 c 128,-1,36
 984 1389 984 1389 817 1389 c 0,37,38
 646 1389 646 1389 499 1298 c 128,-1,39
 352 1207 352 1207 272 1055 c 128,-1,40
 192 903 192 903 192 729 c 0,25,26
107 729 m 0,41,42
 107 931 107 931 200.5 1104 c 128,-1,43
 294 1277 294 1277 459.5 1376.5 c 128,-1,44
 625 1476 625 1476 817 1476 c 128,-1,45
 1009 1476 1009 1476 1174 1376.5 c 128,-1,46
 1339 1277 1339 1277 1432.5 1104 c 128,-1,47
 1526 931 1526 931 1526 729 c 0,48,49
 1526 532 1526 532 1436 360 c 128,-1,50
 1346 188 1346 188 1180.5 83.5 c 128,-1,51
 1015 -21 1015 -21 817 -21 c 0,52,53
 620 -21 620 -21 454.5 82.5 c 128,-1,54
 289 186 289 186 198 358 c 128,-1,55
 107 530 107 530 107 729 c 0,41,42
EndSplineSet
EndChar

StartChar: ordfeminine
Encoding: 170 170 108
Width: 906
GlyphClass: 1
Flags: W
LayerCount: 2
Fore
SplineSet
649 705 m 1,0,1
 634 748 634 748 628 799 c 1,2,3
 541 691 541 691 406 691 c 0,4,5
 289 691 289 691 223 749.5 c 128,-1,6
 157 808 157 808 157 908 c 0,7,8
 157 1018 157 1018 240.5 1079 c 128,-1,9
 324 1140 324 1140 486 1140 c 2,10,-1
 625 1140 l 1,11,-1
 625 1201 l 2,12,13
 625 1286 625 1286 585 1333 c 128,-1,14
 545 1380 545 1380 464 1380 c 0,15,16
 374 1380 374 1380 322.5 1344.5 c 128,-1,17
 271 1309 271 1309 271 1237 c 1,18,-1
 164 1243 l 1,19,20
 164 1345 164 1345 247 1410.5 c 128,-1,21
 330 1476 330 1476 464 1476 c 0,22,23
 588 1476 588 1476 661 1404.5 c 128,-1,24
 734 1333 734 1333 734 1199 c 2,25,-1
 734 884 l 2,26,27
 734 792 734 792 760 705 c 1,28,-1
 649 705 l 1,0,1
426 786 m 0,29,30
 479 786 479 786 536.5 816 c 128,-1,31
 594 846 594 846 625 890 c 1,32,-1
 625 1058 l 1,33,-1
 496 1058 l 2,34,35
 266 1058 266 1058 266 912 c 0,36,37
 266 786 266 786 426 786 c 0,29,30
EndSplineSet
EndChar

StartChar: logicalnot
Encoding: 172 172 110
Width: 1117
GlyphClass: 1
Flags: W
LayerCount: 2
Fore
SplineSet
936 386 m 1,0,-1
 816 386 l 1,1,-1
 816 670 l 1,2,-1
 124 670 l 1,3,-1
 124 776 l 1,4,-1
 936 776 l 1,5,-1
 936 386 l 1,0,-1
EndSplineSet
EndChar

StartChar: registered
Encoding: 174 174 111
Width: 1642
GlyphClass: 1
Flags: W
LayerCount: 2
Fore
SplineSet
102 729 m 0,0,1
 102 931 102 931 195.5 1104 c 128,-1,2
 289 1277 289 1277 454.5 1376.5 c 128,-1,3
 620 1476 620 1476 812 1476 c 128,-1,4
 1004 1476 1004 1476 1169.5 1376.5 c 128,-1,5
 1335 1277 1335 1277 1428.5 1104 c 128,-1,6
 1522 931 1522 931 1522 729 c 0,7,8
 1522 530 1522 530 1431 358 c 128,-1,9
 1340 186 1340 186 1174.5 82.5 c 128,-1,10
 1009 -21 1009 -21 812 -21 c 128,-1,11
 615 -21 615 -21 449.5 82.5 c 128,-1,12
 284 186 284 186 193 358 c 128,-1,13
 102 530 102 530 102 729 c 0,0,1
187 729 m 0,14,15
 187 550 187 550 270.5 396 c 128,-1,16
 354 242 354 242 499.5 153.5 c 128,-1,17
 645 65 645 65 812 65 c 128,-1,18
 979 65 979 65 1125 153.5 c 128,-1,19
 1271 242 1271 242 1353.5 396.5 c 128,-1,20
 1436 551 1436 551 1436 729 c 0,21,22
 1436 905 1436 905 1355 1057 c 128,-1,23
 1274 1209 1274 1209 1128.5 1299 c 128,-1,24
 983 1389 983 1389 812 1389 c 0,25,26
 644 1389 644 1389 498.5 1300.5 c 128,-1,27
 353 1212 353 1212 270 1059.5 c 128,-1,28
 187 907 187 907 187 729 c 0,14,15
650 666 m 1,29,-1
 650 321 l 1,30,-1
 552 321 l 1,31,-1
 552 1160 l 1,32,-1
 810 1160 l 2,33,34
 957 1160 957 1160 1036 1098.5 c 128,-1,35
 1115 1037 1115 1037 1115 912 c 0,36,37
 1115 779 1115 779 974 715 c 1,38,39
 1046 689 1046 689 1074 634.5 c 128,-1,40
 1102 580 1102 580 1102 504 c 128,-1,41
 1102 428 1102 428 1106 394 c 128,-1,42
 1110 360 1110 360 1119 337 c 1,43,-1
 1119 321 l 1,44,-1
 1017 321 l 1,45,46
 1003 357 1003 357 1003 503 c 0,47,48
 1003 592 1003 592 965.5 629 c 128,-1,49
 928 666 928 666 838 666 c 2,50,-1
 650 666 l 1,29,-1
650 757 m 1,51,-1
 831 757 l 2,52,53
 912 757 912 757 964.5 799 c 128,-1,54
 1017 841 1017 841 1017 910 c 0,55,56
 1017 995 1017 995 973.5 1031.5 c 128,-1,57
 930 1068 930 1068 824 1070 c 2,58,-1
 650 1070 l 1,59,-1
 650 757 l 1,51,-1
EndSplineSet
EndChar

StartChar: macron
Encoding: 175 175 112
Width: 874
GlyphClass: 1
Flags: W
LayerCount: 2
Fore
SplineSet
756 1343 m 1,0,-1
 137 1343 l 1,1,-1
 137 1440 l 1,2,-1
 756 1440 l 1,3,-1
 756 1343 l 1,0,-1
EndSplineSet
EndChar

StartChar: degree
Encoding: 176 176 113
Width: 774
GlyphClass: 1
Flags: W
LayerCount: 2
Fore
SplineSet
630 1226 m 0,0,1
 630 1122 630 1122 559 1051 c 128,-1,2
 488 980 488 980 388 980 c 0,3,4
 287 980 287 980 215 1051.5 c 128,-1,5
 143 1123 143 1123 143 1226 c 128,-1,6
 143 1329 143 1329 216 1402.5 c 128,-1,7
 289 1476 289 1476 388 1476 c 128,-1,8
 487 1476 487 1476 558.5 1402.5 c 128,-1,9
 630 1329 630 1329 630 1226 c 0,0,1
233 1226 m 0,10,11
 233 1159 233 1159 277.5 1115 c 128,-1,12
 322 1071 322 1071 388 1071 c 128,-1,13
 454 1071 454 1071 497 1115 c 128,-1,14
 540 1159 540 1159 540 1226 c 0,15,16
 540 1295 540 1295 497 1340 c 128,-1,17
 454 1385 454 1385 388 1385 c 0,18,19
 323 1385 323 1385 278 1340 c 128,-1,20
 233 1295 233 1295 233 1226 c 0,10,11
EndSplineSet
EndChar

StartChar: plusminus
Encoding: 177 177 114
Width: 1085
GlyphClass: 1
Flags: W
LayerCount: 2
Fore
SplineSet
609 829 m 1,0,-1
 1000 829 l 1,1,-1
 1000 727 l 1,2,-1
 609 727 l 1,3,-1
 609 289 l 1,4,-1
 498 289 l 1,5,-1
 498 727 l 1,6,-1
 84 727 l 1,7,-1
 84 829 l 1,8,-1
 498 829 l 1,9,-1
 498 1267 l 1,10,-1
 609 1267 l 1,11,-1
 609 829 l 1,0,-1
963 0 m 1,12,-1
 128 0 l 1,13,-1
 128 101 l 1,14,-1
 963 101 l 1,15,-1
 963 0 l 1,12,-1
EndSplineSet
EndChar

StartChar: uni00B2
Encoding: 178 178 115
Width: 740
GlyphClass: 1
Flags: W
LayerCount: 2
Fore
SplineSet
667 665 m 1,0,-1
 96 665 l 1,1,-1
 96 740 l 1,2,-1
 416 1054 l 1,3,4
 522 1164 522 1164 522 1237 c 0,5,6
 522 1300 522 1300 481.5 1338.5 c 128,-1,7
 441 1377 441 1377 362 1377 c 0,8,9
 275 1377 275 1377 228 1332.5 c 128,-1,10
 181 1288 181 1288 181 1215 c 1,11,-1
 76 1215 l 1,12,13
 76 1323 76 1323 155 1394 c 128,-1,14
 234 1465 234 1465 360 1465 c 128,-1,15
 486 1465 486 1465 557 1403 c 128,-1,16
 628 1341 628 1341 628 1239 c 0,17,18
 628 1138 628 1138 510 1016 c 2,19,-1
 455 961 l 1,20,-1
 229 752 l 1,21,-1
 667 752 l 1,22,-1
 667 665 l 1,0,-1
EndSplineSet
EndChar

StartChar: uni00B3
Encoding: 179 179 116
Width: 740
GlyphClass: 1
Flags: W
LayerCount: 2
Fore
SplineSet
267 1107 m 1,0,-1
 353 1107 l 2,1,2
 434 1109 434 1109 481.5 1145 c 128,-1,3
 529 1181 529 1181 529 1241 c 0,4,5
 529 1303 529 1303 486 1340 c 128,-1,6
 443 1377 443 1377 362 1377 c 0,7,8
 286 1377 286 1377 238 1340 c 128,-1,9
 190 1303 190 1303 190 1245 c 1,10,-1
 85 1245 l 1,11,12
 85 1341 85 1341 163.5 1403 c 128,-1,13
 242 1465 242 1465 361 1465 c 0,14,15
 489 1465 489 1465 562 1405 c 128,-1,16
 635 1345 635 1345 635 1243 c 0,17,18
 635 1187 635 1187 597 1140 c 128,-1,19
 559 1093 559 1093 489 1069 c 1,20,21
 651 1027 651 1027 651 880 c 0,22,23
 651 778 651 778 572 716 c 128,-1,24
 493 654 493 654 363 654 c 0,25,26
 234 654 234 654 152.5 717.5 c 128,-1,27
 71 781 71 781 71 884 c 1,28,-1
 177 884 l 1,29,30
 177 822 177 822 229.5 781.5 c 128,-1,31
 282 741 282 741 366 741 c 0,32,33
 453 741 453 741 499.5 779 c 128,-1,34
 546 817 546 817 546 883 c 0,35,36
 546 1025 546 1025 340 1025 c 2,37,-1
 267 1025 l 1,38,-1
 267 1107 l 1,0,-1
EndSplineSet
EndChar

StartChar: acute
Encoding: 180 180 117
Width: 576
GlyphClass: 1
Flags: W
LayerCount: 2
Fore
SplineSet
315 1536 m 1,0,-1
 460 1536 l 1,1,-1
 229 1256 l 1,2,-1
 124 1256 l 1,3,-1
 315 1536 l 1,0,-1
EndSplineSet
EndChar

StartChar: mu
Encoding: 181 181 118
Width: 1140
GlyphClass: 1
Flags: W
LayerCount: 2
Fore
SplineSet
281 1082 m 1,0,-1
 281 446 l 2,1,2
 281 266 281 266 344 173.5 c 128,-1,3
 407 81 407 81 544 81 c 0,4,5
 676 81 676 81 753 138.5 c 128,-1,6
 830 196 830 196 859 312 c 1,7,-1
 859 1082 l 1,8,-1
 979 1082 l 1,9,-1
 979 0 l 1,10,-1
 870 0 l 1,11,-1
 863 154 l 1,12,13
 765 -20 765 -20 552 -20 c 0,14,15
 368 -20 368 -20 281 105 c 1,16,-1
 281 -416 l 1,17,-1
 162 -416 l 1,18,-1
 162 1082 l 1,19,-1
 281 1082 l 1,0,-1
EndSplineSet
EndChar

StartChar: paragraph
Encoding: 182 182 119
Width: 973
GlyphClass: 1
Flags: W
LayerCount: 2
Fore
SplineSet
681 0 m 1,0,-1
 681 520 l 1,1,-1
 573 520 l 2,2,3
 423 520 423 520 312 578 c 128,-1,4
 201 636 201 636 142 742.5 c 128,-1,5
 83 849 83 849 83 988 c 0,6,7
 83 1201 83 1201 216 1328.5 c 128,-1,8
 349 1456 349 1456 577 1456 c 2,9,-1
 801 1456 l 1,10,-1
 801 0 l 1,11,-1
 681 0 l 1,0,-1
EndSplineSet
EndChar

StartChar: periodcentered
Encoding: 183 183 120
Width: 503
GlyphClass: 1
Flags: W
LayerCount: 2
Fore
SplineSet
163 717 m 256,0,1
 163 752 163 752 185 776 c 128,-1,2
 207 800 207 800 247 800 c 128,-1,3
 287 800 287 800 310 776 c 128,-1,4
 333 752 333 752 333 717 c 128,-1,5
 333 682 333 682 310 658.5 c 128,-1,6
 287 635 287 635 247 635 c 128,-1,7
 207 635 207 635 185 658.5 c 128,-1,8
 163 682 163 682 163 717 c 256,0,1
EndSplineSet
EndChar

StartChar: cedilla
Encoding: 184 184 121
Width: 498
GlyphClass: 2
Flags: W
LayerCount: 2
Fore
SplineSet
246 0 m 1,0,-1
 234 -64 l 1,1,2
 399 -85 399 -85 399 -235 c 0,3,4
 399 -327 399 -327 320 -381 c 128,-1,5
 241 -435 241 -435 105 -435 c 1,6,-1
 98 -357 l 1,7,8
 187 -357 187 -357 243.5 -324.5 c 128,-1,9
 300 -292 300 -292 300 -237 c 0,10,11
 300 -179 300 -179 256.5 -157 c 128,-1,12
 213 -135 213 -135 124 -127 c 1,13,-1
 153 0 l 1,14,-1
 246 0 l 1,0,-1
EndSplineSet
EndChar

StartChar: uni00B9
Encoding: 185 185 122
Width: 740
GlyphClass: 1
Flags: W
LayerCount: 2
Fore
SplineSet
464 665 m 1,0,-1
 358 665 l 1,1,-1
 358 1328 l 1,2,-1
 126 1258 l 1,3,-1
 126 1348 l 1,4,-1
 450 1455 l 1,5,-1
 464 1455 l 1,6,-1
 464 665 l 1,0,-1
EndSplineSet
EndChar

StartChar: ordmasculine
Encoding: 186 186 123
Width: 922
GlyphClass: 1
Flags: W
LayerCount: 2
Fore
SplineSet
135 1132 m 2,0,1
 135 1285 135 1285 223.5 1380.5 c 128,-1,2
 312 1476 312 1476 458 1476 c 0,3,4
 605 1476 605 1476 693.5 1380.5 c 128,-1,5
 782 1285 782 1285 782 1127 c 2,6,-1
 782 1033 l 2,7,8
 782 880 782 880 694 785 c 128,-1,9
 606 690 606 690 460 690 c 0,10,11
 313 690 313 690 224 784.5 c 128,-1,12
 135 879 135 879 135 1038 c 2,13,-1
 135 1132 l 2,0,1
243 1033 m 2,14,15
 243 919 243 919 299.5 852 c 128,-1,16
 356 785 356 785 460 785 c 0,17,18
 559 785 559 785 616.5 851 c 128,-1,19
 674 917 674 917 674 1037 c 2,20,-1
 674 1132 l 2,21,22
 674 1247 674 1247 616 1313.5 c 128,-1,23
 558 1380 558 1380 458 1380 c 128,-1,24
 358 1380 358 1380 300.5 1312 c 128,-1,25
 243 1244 243 1244 243 1127 c 2,26,-1
 243 1033 l 2,14,15
EndSplineSet
EndChar

StartChar: questiondown
Encoding: 191 191 128
Width: 940
GlyphClass: 1
Flags: W
LayerCount: 2
Fore
SplineSet
551 687 m 1,0,1
 549 564 549 564 524 505 c 128,-1,2
 499 446 499 446 405 352 c 128,-1,3
 311 258 311 258 288 228 c 0,4,5
 207 123 207 123 207 -8 c 0,6,7
 207 -137 207 -137 274 -207 c 128,-1,8
 341 -277 341 -277 469 -277 c 0,9,10
 588 -277 588 -277 659 -207 c 128,-1,11
 730 -137 730 -137 732 -20 c 1,12,-1
 852 -20 l 1,13,14
 850 -186 850 -186 745 -284.5 c 128,-1,15
 640 -383 640 -383 469 -383 c 0,16,17
 291 -383 291 -383 189.5 -283 c 128,-1,18
 88 -183 88 -183 88 -10 c 0,19,20
 88 101 88 101 141 202 c 128,-1,21
 194 303 194 303 337 438 c 1,22,23
 422 509 422 509 429 618 c 2,24,-1
 431 687 l 1,25,-1
 551 687 l 1,0,1
567 1022 m 0,26,27
 567 988 567 988 545 964.5 c 128,-1,28
 523 941 523 941 485 941 c 128,-1,29
 447 941 447 941 424.5 964.5 c 128,-1,30
 402 988 402 988 402 1022 c 0,31,32
 402 1055 402 1055 424.5 1078 c 128,-1,33
 447 1101 447 1101 485 1101 c 128,-1,34
 523 1101 523 1101 545 1078 c 128,-1,35
 567 1055 567 1055 567 1022 c 0,26,27
EndSplineSet
EndChar

StartChar: AE
Encoding: 198 198 129
Width: 1865
GlyphClass: 2
Flags: W
LayerCount: 2
Fore
SplineSet
1823 0 m 1,0,-1
 1006 0 l 1,1,-1
 989 389 l 1,2,-1
 393 389 l 1,3,-1
 163 0 l 1,4,-1
 17 0 l 1,5,-1
 898 1456 l 1,6,-1
 1762 1456 l 1,7,-1
 1762 1354 l 1,8,-1
 1068 1354 l 1,9,-1
 1091 809 l 1,10,-1
 1680 809 l 1,11,-1
 1680 707 l 1,12,-1
 1095 707 l 1,13,-1
 1121 101 l 1,14,-1
 1823 101 l 1,15,-1
 1823 0 l 1,0,-1
460 502 m 1,16,-1
 985 502 l 1,17,-1
 950 1331 l 1,18,-1
 460 502 l 1,16,-1
EndSplineSet
Substitution2: "'c2sc' Capitals to Small Capitals lookup 0 subtable" AE.c2sc
Position2: "'cpsp' Capital Spacing lookup 0 subtable" dx=36 dy=0 dh=72 dv=0
EndChar

StartChar: multiply
Encoding: 215 215 130
Width: 1072
GlyphClass: 1
Flags: W
LayerCount: 2
Fore
SplineSet
93 179 m 1,0,-1
 451 544 l 1,1,-1
 108 894 l 1,2,-1
 187 974 l 1,3,-1
 529 624 l 1,4,-1
 872 974 l 1,5,-1
 951 894 l 1,6,-1
 608 544 l 1,7,-1
 966 179 l 1,8,-1
 887 100 l 1,9,-1
 529 464 l 1,10,-1
 172 100 l 1,11,-1
 93 179 l 1,0,-1
EndSplineSet
EndChar

StartChar: Oslash
Encoding: 216 216 131
Width: 1386
GlyphClass: 2
Flags: W
LayerCount: 2
Fore
SplineSet
1260 649 m 2,0,1
 1260 448 1260 448 1190.5 296 c 128,-1,2
 1121 144 1121 144 992 62 c 128,-1,3
 863 -20 863 -20 694 -20 c 0,4,5
 508 -20 508 -20 375 77 c 1,6,-1
 274 -83 l 1,7,-1
 170 -83 l 1,8,-1
 307 134 l 1,9,10
 125 318 125 318 125 658 c 2,11,-1
 125 805 l 2,12,13
 125 1004 125 1004 195.5 1157.5 c 128,-1,14
 266 1311 266 1311 395 1393.5 c 128,-1,15
 524 1476 524 1476 692 1476 c 0,16,17
 916 1476 916 1476 1064 1336 c 1,18,-1
 1171 1505 l 1,19,-1
 1274 1505 l 1,20,-1
 1125 1268 l 1,21,22
 1259 1088 1259 1088 1260 807 c 2,23,-1
 1260 649 l 2,0,1
248 649 m 2,24,25
 248 388 248 388 370 235 c 1,26,-1
 1002 1237 l 1,27,28
 883 1368 883 1368 692 1368 c 0,29,30
 489 1368 489 1368 368.5 1218.5 c 128,-1,31
 248 1069 248 1069 248 801 c 2,32,-1
 248 649 l 2,24,25
1137 807 m 2,33,34
 1137 1018 1137 1018 1057 1160 c 1,35,-1
 434 171 l 1,36,37
 541 87 541 87 694 87 c 0,38,39
 903 87 903 87 1020 236.5 c 128,-1,40
 1137 386 1137 386 1137 653 c 2,41,-1
 1137 807 l 2,33,34
EndSplineSet
Substitution2: "'c2sc' Capitals to Small Capitals lookup 0 subtable" Oslash.c2sc
Position2: "'cpsp' Capital Spacing lookup 0 subtable" dx=36 dy=0 dh=72 dv=0
EndChar

StartChar: Thorn
Encoding: 222 222 132
Width: 1214
GlyphClass: 1
Flags: W
LayerCount: 2
Fore
SplineSet
303 1456 m 1,0,-1
 303 1152 l 1,1,-1
 628 1152 l 2,2,3
 771 1152 771 1152 877 1101 c 128,-1,4
 983 1050 983 1050 1039.5 955.5 c 128,-1,5
 1096 861 1096 861 1096 738 c 0,6,7
 1096 553 1096 553 974 440.5 c 128,-1,8
 852 328 852 328 641 324 c 1,9,-1
 303 324 l 1,10,-1
 303 0 l 1,11,-1
 183 0 l 1,12,-1
 183 1456 l 1,13,-1
 303 1456 l 1,0,-1
303 1051 m 1,14,-1
 303 425 l 1,15,-1
 627 425 l 2,16,17
 784 425 784 425 880 510.5 c 128,-1,18
 976 596 976 596 976 736 c 128,-1,19
 976 876 976 876 884.5 961.5 c 128,-1,20
 793 1047 793 1047 642 1051 c 1,21,-1
 303 1051 l 1,14,-1
EndSplineSet
Substitution2: "'c2sc' Capitals to Small Capitals lookup 0 subtable" Thorn.c2sc
Position2: "'cpsp' Capital Spacing lookup 0 subtable" dx=36 dy=0 dh=72 dv=0
EndChar

StartChar: germandbls
Encoding: 223 223 133
Width: 1200
GlyphClass: 1
Flags: W
LayerCount: 2
Fore
SplineSet
271 0 m 1,0,-1
 151 0 l 1,1,-1
 151 1127 l 2,2,3
 151 1327 151 1327 246.5 1435.5 c 128,-1,4
 342 1544 342 1544 512 1544 c 0,5,6
 665 1544 665 1544 760.5 1459.5 c 128,-1,7
 856 1375 856 1375 856 1237 c 0,8,9
 856 1179 856 1179 842.5 1131 c 128,-1,10
 829 1083 829 1083 793.5 1018.5 c 128,-1,11
 758 954 758 954 745.5 913 c 128,-1,12
 733 872 733 872 733 824 c 0,13,14
 733 768 733 768 774.5 716 c 128,-1,15
 816 664 816 664 911.5 593 c 128,-1,16
 1007 522 1007 522 1051.5 453.5 c 128,-1,17
 1096 385 1096 385 1096 306 c 0,18,19
 1096 160 1096 160 990 70 c 128,-1,20
 884 -20 884 -20 720 -20 c 0,21,22
 636 -20 636 -20 545 4 c 128,-1,23
 454 28 454 28 414 60 c 1,24,-1
 448 161 l 1,25,26
 485 132 485 132 562 106 c 128,-1,27
 639 80 639 80 706 80 c 0,28,29
 828 80 828 80 902 144 c 128,-1,30
 976 208 976 208 976 306 c 0,31,32
 976 367 976 367 932 423.5 c 128,-1,33
 888 480 888 480 796.5 547 c 128,-1,34
 705 614 705 614 659 681.5 c 128,-1,35
 613 749 613 749 613 826 c 0,36,37
 613 922 613 922 676 1034 c 128,-1,38
 739 1146 739 1146 739 1230 c 0,39,40
 739 1323 739 1323 676 1382.5 c 128,-1,41
 613 1442 613 1442 522 1442 c 0,42,43
 275 1442 275 1442 271 1136 c 1,44,-1
 271 0 l 1,0,-1
EndSplineSet
Substitution2: "'smcp' Lowercase to Small Capitals lookup 1 subtable" germandbls.sc
EndChar

StartChar: ae
Encoding: 230 230 134
Width: 1732
GlyphClass: 2
Flags: W
LayerCount: 2
Fore
SplineSet
1265 -20 m 0,0,1
 1126 -20 1126 -20 1026.5 34.5 c 128,-1,2
 927 89 927 89 867 186 c 1,3,4
 807 88 807 88 693 34 c 128,-1,5
 579 -20 579 -20 440 -20 c 0,6,7
 271 -20 271 -20 178 64.5 c 128,-1,8
 85 149 85 149 85 293 c 0,9,10
 85 450 85 450 195.5 539.5 c 128,-1,11
 306 629 306 629 511 632 c 2,12,-1
 781 632 l 1,13,-1
 781 720 l 2,14,15
 781 852 781 852 717.5 926 c 128,-1,16
 654 1000 654 1000 528 1000 c 0,17,18
 398 1000 398 1000 315 935 c 128,-1,19
 232 870 232 870 232 765 c 1,20,-1
 113 778 l 1,21,22
 113 922 113 922 229.5 1012 c 128,-1,23
 346 1102 346 1102 528 1102 c 0,24,25
 653 1102 653 1102 741.5 1048.5 c 128,-1,26
 830 995 830 995 870 889 c 1,27,28
 930 989 930 989 1024.5 1045.5 c 128,-1,29
 1119 1102 1119 1102 1235 1102 c 0,30,31
 1431 1102 1431 1102 1543.5 981.5 c 128,-1,32
 1656 861 1656 861 1658 644 c 2,33,-1
 1658 538 l 1,34,-1
 901 538 l 1,35,-1
 901 509 l 2,36,37
 901 308 901 308 997 194.5 c 128,-1,38
 1093 81 1093 81 1265 81 c 0,39,40
 1450 81 1450 81 1589 199 c 1,41,-1
 1636 112 l 1,42,43
 1491 -20 1491 -20 1265 -20 c 0,0,1
458 80 m 0,44,45
 549 80 549 80 642.5 126 c 128,-1,46
 736 172 736 172 781 236 c 1,47,-1
 781 536 l 1,48,-1
 525 536 l 2,49,50
 388 536 388 536 302 475 c 128,-1,51
 216 414 216 414 207 309 c 2,52,-1
 206 289 l 1,53,54
 206 192 206 192 271.5 136 c 128,-1,55
 337 80 337 80 458 80 c 0,44,45
1235 1000 m 0,56,57
 1103 1000 1103 1000 1013 902 c 128,-1,58
 923 804 923 804 904 636 c 1,59,-1
 1539 636 l 1,60,-1
 1539 667 l 2,61,62
 1539 821 1539 821 1458.5 910.5 c 128,-1,63
 1378 1000 1378 1000 1235 1000 c 0,56,57
EndSplineSet
Substitution2: "'smcp' Lowercase to Small Capitals lookup 1 subtable" AE.c2sc
EndChar

StartChar: eth
Encoding: 240 240 135
Width: 1191
GlyphClass: 1
Flags: W
LayerCount: 2
Fore
SplineSet
811 1303 m 1,0,1
 1049 1053 1049 1053 1055 645 c 1,2,-1
 1055 535 l 2,3,4
 1055 376 1055 376 999 248.5 c 128,-1,5
 943 121 943 121 842 50.5 c 128,-1,6
 741 -20 741 -20 615 -20 c 0,7,8
 485 -20 485 -20 379 41.5 c 128,-1,9
 273 103 273 103 211 216.5 c 128,-1,10
 149 330 149 330 149 466 c 0,11,12
 149 695 149 695 268.5 830 c 128,-1,13
 388 965 388 965 587 965 c 0,14,15
 687 965 687 965 773.5 926.5 c 128,-1,16
 860 888 860 888 919 821 c 1,17,18
 877 1072 877 1072 709 1240 c 1,19,-1
 484 1101 l 1,20,-1
 433 1174 l 1,21,-1
 639 1302 l 1,22,23
 502 1408 502 1408 296 1475 c 1,24,-1
 335 1578 l 1,25,26
 577 1506 577 1506 744 1366 c 1,27,-1
 938 1487 l 1,28,-1
 989 1414 l 1,29,-1
 811 1303 l 1,0,1
935 625 m 1,30,-1
 933 682 l 1,31,32
 894 765 894 765 807 813 c 128,-1,33
 720 861 720 861 609 861 c 0,34,35
 448 861 448 861 358.5 756 c 128,-1,36
 269 651 269 651 269 466 c 0,37,38
 269 363 269 363 314 273.5 c 128,-1,39
 359 184 359 184 438.5 133.5 c 128,-1,40
 518 83 518 83 619 83 c 0,41,42
 760 83 760 83 847.5 207.5 c 128,-1,43
 935 332 935 332 935 543 c 2,44,-1
 935 625 l 1,30,-1
EndSplineSet
Substitution2: "'smcp' Lowercase to Small Capitals lookup 1 subtable" Eth.c2sc
EndChar

StartChar: divide
Encoding: 247 247 136
Width: 1164
GlyphClass: 1
Flags: W
LayerCount: 2
Fore
SplineSet
1070 644 m 1,0,-1
 72 644 l 1,1,-1
 72 760 l 1,2,-1
 1070 760 l 1,3,-1
 1070 644 l 1,0,-1
495 1088 m 256,4,5
 495 1123 495 1123 517 1147 c 128,-1,6
 539 1171 539 1171 579 1171 c 128,-1,7
 619 1171 619 1171 642 1147 c 128,-1,8
 665 1123 665 1123 665 1088 c 128,-1,9
 665 1053 665 1053 642 1029.5 c 128,-1,10
 619 1006 619 1006 579 1006 c 128,-1,11
 539 1006 539 1006 517 1029.5 c 128,-1,12
 495 1053 495 1053 495 1088 c 256,4,5
495 291 m 256,13,14
 495 326 495 326 517 350 c 128,-1,15
 539 374 539 374 579 374 c 128,-1,16
 619 374 619 374 642 350 c 128,-1,17
 665 326 665 326 665 291 c 128,-1,18
 665 256 665 256 642 233 c 128,-1,19
 619 210 619 210 579 210 c 128,-1,20
 539 210 539 210 517 233 c 128,-1,21
 495 256 495 256 495 291 c 256,13,14
EndSplineSet
EndChar

StartChar: oslash
Encoding: 248 248 137
Width: 1140
GlyphClass: 2
Flags: W
LayerCount: 2
Fore
SplineSet
89 557 m 2,0,1
 89 713 89 713 149.5 838 c 128,-1,2
 210 963 210 963 320.5 1032.5 c 128,-1,3
 431 1102 431 1102 571 1102 c 0,4,5
 685 1102 685 1102 785 1054 c 1,6,-1
 863 1214 l 1,7,-1
 957 1214 l 1,8,-1
 857 1010 l 1,9,10
 951 938 951 938 1003 821 c 128,-1,11
 1055 704 1055 704 1055 557 c 2,12,-1
 1055 524 l 2,13,14
 1055 368 1055 368 994 242 c 128,-1,15
 933 116 933 116 823 48 c 128,-1,16
 713 -20 713 -20 573 -20 c 0,17,18
 465 -20 465 -20 373 21 c 1,19,-1
 294 -140 l 1,20,-1
 200 -140 l 1,21,-1
 299 63 l 1,22,23
 199 134 199 134 144 253 c 128,-1,24
 89 372 89 372 89 524 c 2,25,-1
 89 557 l 2,0,1
208 524 m 2,26,27
 208 414 208 414 243.5 319 c 128,-1,28
 279 224 279 224 348 163 c 1,29,-1
 737 957 l 1,30,31
 662 1000 662 1000 571 1000 c 0,32,33
 410 1000 410 1000 309 874.5 c 128,-1,34
 208 749 208 749 208 546 c 2,35,-1
 208 524 l 2,26,27
935 557 m 2,36,37
 935 660 935 660 902 751 c 128,-1,38
 869 842 869 842 806 905 c 1,39,-1
 419 115 l 1,40,41
 487 81 487 81 573 81 c 0,42,43
 734 81 734 81 834.5 205.5 c 128,-1,44
 935 330 935 330 935 534 c 2,45,-1
 935 557 l 2,36,37
EndSplineSet
Substitution2: "'smcp' Lowercase to Small Capitals lookup 1 subtable" Oslash.c2sc
EndChar

StartChar: thorn
Encoding: 254 254 138
Width: 1150
GlyphClass: 1
Flags: W
LayerCount: 2
Fore
SplineSet
1031 530 m 2,0,1
 1031 277 1031 277 919 128.5 c 128,-1,2
 807 -20 807 -20 618 -20 c 0,3,4
 397 -20 397 -20 279 136 c 1,5,-1
 279 -416 l 1,6,-1
 159 -416 l 1,7,-1
 159 1536 l 1,8,-1
 279 1536 l 1,9,-1
 279 932 l 1,10,11
 396 1102 396 1102 616 1102 c 0,12,13
 808 1102 808 1102 919.5 955.5 c 128,-1,14
 1031 809 1031 809 1031 548 c 2,15,-1
 1031 530 l 2,0,1
911 551 m 0,16,17
 911 758 911 758 826 878 c 128,-1,18
 741 998 741 998 589 998 c 0,19,20
 479 998 479 998 400 945 c 128,-1,21
 321 892 321 892 279 791 c 1,22,-1
 279 270 l 1,23,24
 321 180 321 180 400 130.5 c 128,-1,25
 479 81 479 81 591 81 c 0,26,27
 742 81 742 81 826.5 201.5 c 128,-1,28
 911 322 911 322 911 551 c 0,16,17
EndSplineSet
Substitution2: "'smcp' Lowercase to Small Capitals lookup 1 subtable" Thorn.c2sc
EndChar

StartChar: dcroat
Encoding: 273 273 139
Width: 1172
GlyphClass: 2
Flags: W
LayerCount: 2
Fore
SplineSet
1153 1257 m 1,0,-1
 979 1257 l 1,1,-1
 979 0 l 1,2,-1
 867 0 l 1,3,-1
 862 144 l 1,4,5
 747 -20 747 -20 524 -20 c 0,6,7
 337 -20 337 -20 222.5 130.5 c 128,-1,8
 108 281 108 281 108 537 c 2,9,-1
 108 551 l 2,10,11
 108 803 108 803 220.5 952.5 c 128,-1,12
 333 1102 333 1102 526 1102 c 0,13,14
 745 1102 745 1102 860 929 c 1,15,-1
 860 1257 l 1,16,-1
 541 1257 l 1,17,-1
 541 1359 l 1,18,-1
 860 1359 l 1,19,-1
 860 1536 l 1,20,-1
 979 1536 l 1,21,-1
 979 1359 l 1,22,-1
 1153 1359 l 1,23,-1
 1153 1257 l 1,0,-1
229 530 m 0,24,25
 229 323 229 323 312 203.5 c 128,-1,26
 395 84 395 84 546 84 c 0,27,28
 767 84 767 84 860 279 c 1,29,-1
 860 787 l 1,30,31
 767 998 767 998 548 998 c 0,32,33
 397 998 397 998 313 879.5 c 128,-1,34
 229 761 229 761 229 530 c 0,24,25
EndSplineSet
Substitution2: "'smcp' Lowercase to Small Capitals lookup 1 subtable" Dcroat.c2sc
EndChar

StartChar: Hbar
Encoding: 294 294 140
Width: 1411
GlyphClass: 2
Flags: W
LayerCount: 2
Fore
SplineSet
1239 1122 m 1,0,-1
 1384 1122 l 1,1,-1
 1384 1026 l 1,2,-1
 1239 1026 l 1,3,-1
 1239 0 l 1,4,-1
 1116 0 l 1,5,-1
 1116 698 l 1,6,-1
 284 698 l 1,7,-1
 284 0 l 1,8,-1
 161 0 l 1,9,-1
 161 1026 l 1,10,-1
 24 1026 l 1,11,-1
 24 1122 l 1,12,-1
 161 1122 l 1,13,-1
 161 1456 l 1,14,-1
 284 1456 l 1,15,-1
 284 1122 l 1,16,-1
 1116 1122 l 1,17,-1
 1116 1456 l 1,18,-1
 1239 1456 l 1,19,-1
 1239 1122 l 1,0,-1
284 802 m 1,20,-1
 1116 802 l 1,21,-1
 1116 1026 l 1,22,-1
 284 1026 l 1,23,-1
 284 802 l 1,20,-1
EndSplineSet
Substitution2: "'c2sc' Capitals to Small Capitals lookup 0 subtable" Hbar.c2sc
Position2: "'cpsp' Capital Spacing lookup 0 subtable" dx=36 dy=0 dh=72 dv=0
EndChar

StartChar: dotlessi
Encoding: 305 305 141
Width: 456
GlyphClass: 2
Flags: W
LayerCount: 2
Fore
SplineSet
288 0 m 1,0,-1
 168 0 l 1,1,-1
 168 1082 l 1,2,-1
 288 1082 l 1,3,-1
 288 0 l 1,0,-1
EndSplineSet
Substitution2: "'smcp' Lowercase to Small Capitals lookup 1 subtable" I.c2sc
EndChar

StartChar: kgreenlandic
Encoding: 312 312 142
Width: 1111
GlyphClass: 2
Flags: W
LayerCount: 2
Fore
SplineSet
420 496 m 1,0,-1
 283 496 l 1,1,-1
 283 0 l 1,2,-1
 162 0 l 1,3,-1
 162 1082 l 1,4,-1
 283 1082 l 1,5,-1
 283 602 l 1,6,-1
 417 602 l 1,7,-1
 860 1082 l 1,8,-1
 1006 1082 l 1,9,-1
 526 555 l 1,10,-1
 1056 0 l 1,11,-1
 904 0 l 1,12,-1
 420 496 l 1,0,-1
EndSplineSet
EndChar

StartChar: Lslash
Encoding: 321 321 143
Width: 1082
GlyphClass: 2
Flags: W
LayerCount: 2
Fore
SplineSet
304 817 m 1,0,-1
 611 914 l 1,1,-1
 611 824 l 1,2,-1
 304 727 l 1,3,-1
 304 104 l 1,4,-1
 1022 104 l 1,5,-1
 1022 0 l 1,6,-1
 180 0 l 1,7,-1
 180 687 l 1,8,-1
 21 637 l 1,9,-1
 21 727 l 1,10,-1
 180 777 l 1,11,-1
 180 1456 l 1,12,-1
 304 1456 l 1,13,-1
 304 817 l 1,0,-1
EndSplineSet
Substitution2: "'c2sc' Capitals to Small Capitals lookup 0 subtable" Lslash.c2sc
Position2: "'cpsp' Capital Spacing lookup 0 subtable" dx=36 dy=0 dh=72 dv=0
EndChar

StartChar: lslash
Encoding: 322 322 144
Width: 529
GlyphClass: 2
Flags: W
LayerCount: 2
Fore
SplineSet
325 860 m 1,0,-1
 504 930 l 1,1,-1
 504 839 l 1,2,-1
 325 769 l 1,3,-1
 325 0 l 1,4,-1
 205 0 l 1,5,-1
 205 722 l 1,6,-1
 25 652 l 1,7,-1
 25 743 l 1,8,-1
 205 813 l 1,9,-1
 205 1536 l 1,10,-1
 325 1536 l 1,11,-1
 325 860 l 1,0,-1
EndSplineSet
Substitution2: "'smcp' Lowercase to Small Capitals lookup 1 subtable" Lslash.c2sc
EndChar

StartChar: Eng
Encoding: 330 330 145
Width: 1434
GlyphClass: 2
Flags: W
LayerCount: 2
Fore
SplineSet
1257 1456 m 1,0,-1
 1257 -86 l 2,1,2
 1257 -257 1257 -257 1176 -347 c 128,-1,3
 1095 -437 1095 -437 951 -437 c 0,4,5
 893 -437 893 -437 838 -418 c 1,6,-1
 851 -316 l 1,7,8
 896 -332 896 -332 950 -332 c 0,9,10
 1038 -332 1038 -332 1085.5 -268 c 128,-1,11
 1133 -204 1133 -204 1133 -86 c 2,12,-1
 1133 0 l 1,13,-1
 304 1250 l 1,14,-1
 304 0 l 1,15,-1
 181 0 l 1,16,-1
 181 1456 l 1,17,-1
 304 1456 l 1,18,-1
 1133 207 l 1,19,-1
 1133 1456 l 1,20,-1
 1257 1456 l 1,0,-1
EndSplineSet
Substitution2: "'c2sc' Capitals to Small Capitals lookup 0 subtable" Eng.c2sc
Position2: "'cpsp' Capital Spacing lookup 0 subtable" dx=36 dy=0 dh=72 dv=0
EndChar

StartChar: eng
Encoding: 331 331 146
Width: 1140
GlyphClass: 2
Flags: W
LayerCount: 2
Fore
SplineSet
264 1082 m 1,0,-1
 274 898 l 1,1,2
 384 1102 384 1102 621 1102 c 0,3,4
 801 1102 801 1102 890 994 c 128,-1,5
 979 886 979 886 981 669 c 2,6,-1
 981 -89 l 2,7,8
 981 -259 981 -259 900.5 -348 c 128,-1,9
 820 -437 820 -437 677 -437 c 0,10,11
 614 -437 614 -437 553 -418 c 1,12,-1
 567 -315 l 1,13,14
 612 -330 612 -330 677 -330 c 0,15,16
 765 -330 765 -330 813 -268.5 c 128,-1,17
 861 -207 861 -207 861 -89 c 2,18,-1
 861 658 l 2,19,20
 861 830 861 830 798 914 c 128,-1,21
 735 998 735 998 594 998 c 0,22,23
 478 998 478 998 397.5 942 c 128,-1,24
 317 886 317 886 277 774 c 1,25,-1
 277 0 l 1,26,-1
 157 0 l 1,27,-1
 157 1082 l 1,28,-1
 264 1082 l 1,0,-1
EndSplineSet
Substitution2: "'smcp' Lowercase to Small Capitals lookup 1 subtable" Eng.c2sc
EndChar

StartChar: OE
Encoding: 338 338 147
Width: 1913
GlyphClass: 2
Flags: W
LayerCount: 2
Fore
SplineSet
1801 0 m 1,0,-1
 957 0 l 1,1,2
 768 -21 768 -21 646 -21 c 0,3,4
 490 -21 490 -21 368 53 c 128,-1,5
 246 127 246 127 178 261.5 c 128,-1,6
 110 396 110 396 108 566 c 2,7,-1
 108 880 l 2,8,9
 108 1052 108 1052 175 1189 c 128,-1,10
 242 1326 242 1326 365 1401 c 128,-1,11
 488 1476 488 1476 644 1476 c 0,12,13
 777 1476 777 1476 957 1456 c 1,14,-1
 1796 1456 l 1,15,-1
 1796 1351 l 1,16,-1
 1018 1351 l 1,17,-1
 1018 802 l 1,18,-1
 1699 802 l 1,19,-1
 1699 698 l 1,20,-1
 1018 698 l 1,21,-1
 1018 104 l 1,22,-1
 1801 104 l 1,23,-1
 1801 0 l 1,0,-1
646 80 m 0,24,25
 779 80 779 80 895 94 c 1,26,-1
 895 1360 l 1,27,28
 777 1374 777 1374 644 1374 c 0,29,30
 453 1374 453 1374 341 1242 c 128,-1,31
 229 1110 229 1110 228 885 c 2,32,-1
 228 576 l 2,33,34
 228 349 228 349 341 214.5 c 128,-1,35
 454 80 454 80 646 80 c 0,24,25
EndSplineSet
Substitution2: "'c2sc' Capitals to Small Capitals lookup 0 subtable" OE.c2sc
Position2: "'cpsp' Capital Spacing lookup 0 subtable" dx=36 dy=0 dh=72 dv=0
EndChar

StartChar: oe
Encoding: 339 339 148
Width: 1892
GlyphClass: 2
Flags: W
LayerCount: 2
Fore
SplineSet
94 557 m 2,0,1
 94 714 94 714 154.5 840 c 128,-1,2
 215 966 215 966 324.5 1034 c 128,-1,3
 434 1102 434 1102 572 1102 c 0,4,5
 714 1102 714 1102 824 1032.5 c 128,-1,6
 934 963 934 963 996 830 c 1,7,8
 1056 956 1056 956 1163 1029 c 128,-1,9
 1270 1102 1270 1102 1396 1102 c 0,10,11
 1593 1102 1593 1102 1708 977.5 c 128,-1,12
 1823 853 1823 853 1823 634 c 2,13,-1
 1823 538 l 1,14,-1
 1059 538 l 1,15,-1
 1059 509 l 2,16,17
 1059 324 1059 324 1158 202.5 c 128,-1,18
 1257 81 1257 81 1411 81 c 0,19,20
 1621 81 1621 81 1736 200 c 1,21,-1
 1788 118 l 1,22,23
 1655 -20 1655 -20 1411 -20 c 0,24,25
 1275 -20 1275 -20 1164 52 c 128,-1,26
 1053 124 1053 124 995 248 c 1,27,28
 934 118 934 118 824.5 49 c 128,-1,29
 715 -20 715 -20 574 -20 c 0,30,31
 359 -20 359 -20 226.5 131.5 c 128,-1,32
 94 283 94 283 94 533 c 2,33,-1
 94 557 l 2,0,1
214 524 m 2,34,35
 214 327 214 327 313 204 c 128,-1,36
 412 81 412 81 574 81 c 0,37,38
 734 81 734 81 832.5 204 c 128,-1,39
 931 327 931 327 931 534 c 2,40,-1
 931 557 l 2,41,42
 931 752 931 752 831.5 876 c 128,-1,43
 732 1000 732 1000 572 1000 c 128,-1,44
 412 1000 412 1000 313 876 c 128,-1,45
 214 752 214 752 214 546 c 2,46,-1
 214 524 l 2,34,35
1396 1000 m 0,47,48
 1266 1000 1266 1000 1174 899 c 128,-1,49
 1082 798 1082 798 1063 639 c 1,50,-1
 1703 639 l 1,51,-1
 1703 669 l 2,52,53
 1703 815 1703 815 1619 907.5 c 128,-1,54
 1535 1000 1535 1000 1396 1000 c 0,47,48
EndSplineSet
Substitution2: "'smcp' Lowercase to Small Capitals lookup 1 subtable" OE.c2sc
EndChar

StartChar: longs
Encoding: 383 383 149
Width: 465
GlyphClass: 2
Flags: W
LayerCount: 2
Fore
SplineSet
167 0 m 1,0,-1
 167 1213 l 2,1,2
 167 1378 167 1378 248.5 1467.5 c 128,-1,3
 330 1557 330 1557 477 1557 c 0,4,5
 541 1557 541 1557 613 1538 c 1,6,-1
 597 1442 l 1,7,8
 547 1455 547 1455 492 1455 c 0,9,10
 394 1455 394 1455 340 1392 c 128,-1,11
 286 1329 286 1329 286 1216 c 2,12,-1
 286 0 l 1,13,-1
 167 0 l 1,0,-1
EndSplineSet
EndChar

StartChar: uni018F
Encoding: 399 399 150
Width: 1433
GlyphClass: 2
Flags: W
LayerCount: 2
Fore
SplineSet
725 -20 m 0,0,1
 446 -20 446 -20 285 149 c 128,-1,2
 124 318 124 318 124 619 c 2,3,-1
 124 738 l 1,4,-1
 1189 738 l 1,5,-1
 1189 805 l 2,6,7
 1189 1071 1189 1071 1056.5 1220.5 c 128,-1,8
 924 1370 924 1370 684 1370 c 0,9,10
 449 1370 449 1370 274 1250 c 1,11,-1
 235 1342 l 1,12,13
 407 1476 407 1476 684 1476 c 0,14,15
 976 1476 976 1476 1144 1295 c 128,-1,16
 1312 1114 1312 1114 1312 795 c 2,17,-1
 1312 671 l 2,18,19
 1312 474 1312 474 1235.5 315 c 128,-1,20
 1159 156 1159 156 1023.5 68 c 128,-1,21
 888 -20 888 -20 725 -20 c 0,0,1
725 85 m 0,22,23
 923 85 923 85 1050 236.5 c 128,-1,24
 1177 388 1177 388 1188 637 c 1,25,-1
 248 637 l 1,26,-1
 248 584 l 2,27,28
 248 352 248 352 374 218.5 c 128,-1,29
 500 85 500 85 725 85 c 0,22,23
EndSplineSet
EndChar

StartChar: florin
Encoding: 402 402 151
Width: 670
GlyphClass: 1
Flags: W
LayerCount: 2
Fore
SplineSet
600 984 m 1,0,-1
 356 984 l 1,1,-1
 356 -89 l 2,2,3
 356 -259 356 -259 275.5 -348 c 128,-1,4
 195 -437 195 -437 52 -437 c 0,5,6
 -4 -437 -4 -437 -59 -418 c 1,7,-1
 -45 -319 l 1,8,9
 -8 -335 -8 -335 52 -335 c 0,10,11
 140 -335 140 -335 188 -271 c 128,-1,12
 236 -207 236 -207 236 -89 c 2,13,-1
 236 984 l 1,14,-1
 56 984 l 1,15,-1
 56 1082 l 1,16,-1
 236 1082 l 1,17,-1
 236 1213 l 2,18,19
 236 1385 236 1385 325 1475 c 0,20,21
 407 1557 407 1557 546 1557 c 0,22,23
 610 1557 610 1557 682 1538 c 1,24,-1
 667 1439 l 1,25,26
 622 1452 622 1452 558 1452 c 0,27,28
 460 1452 460 1452 408 1390.5 c 128,-1,29
 356 1329 356 1329 356 1216 c 2,30,-1
 356 1082 l 1,31,-1
 600 1082 l 1,32,-1
 600 984 l 1,0,-1
EndSplineSet
EndChar

StartChar: Ohorn
Encoding: 416 416 152
Width: 1428
GlyphClass: 2
Flags: W
LayerCount: 2
Fore
SplineSet
1267 649 m 2,0,1
 1267 448 1267 448 1197.5 296 c 128,-1,2
 1128 144 1128 144 999 62 c 128,-1,3
 870 -20 870 -20 701 -20 c 0,4,5
 534 -20 534 -20 404 62.5 c 128,-1,6
 274 145 274 145 203.5 295.5 c 128,-1,7
 133 446 133 446 132 642 c 2,8,-1
 132 805 l 2,9,10
 132 1003 132 1003 202 1156 c 128,-1,11
 272 1309 272 1309 401.5 1392.5 c 128,-1,12
 531 1476 531 1476 699 1476 c 0,13,14
 834 1476 834 1476 941.5 1424.5 c 128,-1,15
 1049 1373 1049 1373 1124 1278 c 1,16,17
 1231 1283 1231 1283 1284 1348.5 c 128,-1,18
 1337 1414 1337 1414 1337 1565 c 1,19,-1
 1448 1565 l 1,20,21
 1448 1402 1448 1402 1384.5 1306.5 c 128,-1,22
 1321 1211 1321 1211 1181 1190 c 1,23,24
 1264 1033 1264 1033 1267 819 c 2,25,-1
 1267 649 l 2,0,1
1145 807 m 2,26,27
 1145 1070 1145 1070 1026 1219 c 128,-1,28
 907 1368 907 1368 699 1368 c 0,29,30
 496 1368 496 1368 375.5 1218.5 c 128,-1,31
 255 1069 255 1069 255 801 c 2,32,-1
 255 649 l 2,33,34
 255 390 255 390 375 238.5 c 128,-1,35
 495 87 495 87 701 87 c 0,36,37
 909 87 909 87 1027 236 c 128,-1,38
 1145 385 1145 385 1145 652 c 2,39,-1
 1145 807 l 2,26,27
EndSplineSet
EndChar

StartChar: ohorn
Encoding: 417 417 153
Width: 1146
GlyphClass: 2
Flags: W
LayerCount: 2
Fore
SplineSet
89 557 m 2,0,1
 89 713 89 713 149.5 838 c 128,-1,2
 210 963 210 963 320.5 1032.5 c 128,-1,3
 431 1102 431 1102 571 1102 c 0,4,5
 781 1102 781 1102 914 958 c 1,6,7
 1004 965 1004 965 1042.5 1016 c 128,-1,8
 1081 1067 1081 1067 1081 1198 c 1,9,-1
 1184 1198 l 1,10,11
 1184 1051 1184 1051 1131.5 974 c 128,-1,12
 1079 897 1079 897 973 879 c 1,13,14
 1052 746 1052 746 1055 569 c 2,15,-1
 1055 524 l 2,16,17
 1055 368 1055 368 994 242 c 128,-1,18
 933 116 933 116 823 48 c 128,-1,19
 713 -20 713 -20 573 -20 c 0,20,21
 356 -20 356 -20 222.5 132 c 128,-1,22
 89 284 89 284 89 533 c 2,23,-1
 89 557 l 2,0,1
208 524 m 2,24,25
 208 330 208 330 308.5 205.5 c 128,-1,26
 409 81 409 81 573 81 c 0,27,28
 734 81 734 81 834.5 205.5 c 128,-1,29
 935 330 935 330 935 534 c 2,30,-1
 935 557 l 2,31,32
 935 749 935 749 834 874.5 c 128,-1,33
 733 1000 733 1000 571 1000 c 0,34,35
 410 1000 410 1000 309 874.5 c 128,-1,36
 208 749 208 749 208 546 c 2,37,-1
 208 524 l 2,24,25
EndSplineSet
EndChar

StartChar: Uhorn
Encoding: 431 431 154
Width: 1394
GlyphClass: 2
Flags: W
LayerCount: 2
Fore
SplineSet
1187 1456 m 1,0,-1
 1187 1245 l 1,1,2
 1307 1254 1307 1254 1358.5 1321.5 c 128,-1,3
 1410 1389 1410 1389 1410 1544 c 1,4,-1
 1516 1544 l 1,5,6
 1516 1346 1516 1346 1435 1252.5 c 128,-1,7
 1354 1159 1354 1159 1187 1152 c 1,8,-1
 1187 462 l 2,9,10
 1186 315 1186 315 1122 206 c 128,-1,11
 1058 97 1058 97 941.5 38.5 c 128,-1,12
 825 -20 825 -20 674 -20 c 0,13,14
 444 -20 444 -20 305.5 105.5 c 128,-1,15
 167 231 167 231 162 453 c 1,16,-1
 162 1456 l 1,17,-1
 284 1456 l 1,18,-1
 284 471 l 2,19,20
 284 287 284 287 389 185.5 c 128,-1,21
 494 84 494 84 674 84 c 128,-1,22
 854 84 854 84 958.5 186 c 128,-1,23
 1063 288 1063 288 1063 470 c 2,24,-1
 1063 1456 l 1,25,-1
 1187 1456 l 1,0,-1
EndSplineSet
EndChar

StartChar: uhorn
Encoding: 432 432 155
Width: 1200
GlyphClass: 2
Flags: W
LayerCount: 2
Fore
SplineSet
1241 1179 m 1,0,1
 1241 1015 1241 1015 1175.5 943 c 128,-1,2
 1110 871 1110 871 970 866 c 1,3,-1
 970 0 l 1,4,-1
 854 0 l 1,5,-1
 852 137 l 1,6,7
 744 -20 744 -20 507 -20 c 0,8,9
 334 -20 334 -20 244 80.5 c 128,-1,10
 154 181 154 181 152 378 c 2,11,-1
 152 1082 l 1,12,-1
 271 1082 l 1,13,-1
 271 393 l 2,14,15
 271 84 271 84 521 84 c 0,16,17
 781 84 781 84 850 299 c 1,18,-1
 850 1082 l 1,19,-1
 970 1082 l 1,20,-1
 970 949 l 1,21,22
 1095 955 1095 955 1126 1036 c 0,23,24
 1142 1077 1142 1077 1142 1179 c 1,25,-1
 1241 1179 l 1,0,1
EndSplineSet
EndChar

StartChar: uni0237
Encoding: 567 567 156
Width: 468
GlyphClass: 2
Flags: W
LayerCount: 2
Fore
SplineSet
298 1082 m 1,0,-1
 298 -89 l 2,1,2
 298 -258 298 -258 218 -347.5 c 128,-1,3
 138 -437 138 -437 -4 -437 c 0,4,5
 -61 -437 -61 -437 -116 -418 c 1,6,-1
 -103 -319 l 1,7,8
 -60 -335 -60 -335 -4 -335 c 0,9,10
 84 -335 84 -335 131.5 -271 c 128,-1,11
 179 -207 179 -207 179 -89 c 2,12,-1
 179 1082 l 1,13,-1
 298 1082 l 1,0,-1
EndSplineSet
EndChar

StartChar: uni0259
Encoding: 601 601 157
Width: 1055
GlyphClass: 2
Flags: W
LayerCount: 2
Fore
SplineSet
504 1102 m 0,0,1
 636 1102 636 1102 744.5 1034 c 128,-1,2
 853 966 853 966 914.5 843.5 c 128,-1,3
 976 721 976 721 976 573 c 2,4,-1
 976 517 l 2,5,6
 976 367 976 367 915.5 243.5 c 128,-1,7
 855 120 855 120 750 50 c 128,-1,8
 645 -20 645 -20 520 -20 c 0,9,10
 322 -20 322 -20 207 104.5 c 128,-1,11
 92 229 92 229 92 446 c 2,12,-1
 92 543 l 1,13,-1
 857 543 l 1,14,-1
 857 572 l 2,15,16
 857 756 857 756 758.5 878.5 c 128,-1,17
 660 1001 660 1001 504 1001 c 0,18,19
 386 1001 386 1001 309 968 c 128,-1,20
 232 935 232 935 179 880 c 1,21,-1
 128 963 l 1,22,23
 262 1102 262 1102 504 1102 c 0,0,1
520 81 m 0,24,25
 648 81 648 81 740.5 181 c 128,-1,26
 833 281 833 281 852 441 c 1,27,-1
 212 441 l 1,28,-1
 212 412 l 2,29,30
 212 266 212 266 296 173.5 c 128,-1,31
 380 81 380 81 520 81 c 0,24,25
EndSplineSet
EndChar

StartChar: circumflex
Encoding: 710 710 158
Width: 880
GlyphClass: 1
Flags: W
LayerCount: 2
Fore
SplineSet
715 1268 m 1,0,-1
 715 1258 l 1,1,-1
 604 1258 l 1,2,-1
 436 1441 l 1,3,-1
 269 1258 l 1,4,-1
 160 1258 l 1,5,-1
 160 1271 l 1,6,-1
 398 1526 l 1,7,-1
 474 1526 l 1,8,-1
 715 1268 l 1,0,-1
EndSplineSet
EndChar

StartChar: caron
Encoding: 711 711 159
Width: 836
GlyphClass: 1
Flags: W
LayerCount: 2
Fore
SplineSet
422 1326 m 1,0,-1
 594 1520 l 1,1,-1
 701 1520 l 1,2,-1
 701 1508 l 1,3,-1
 465 1247 l 1,4,-1
 379 1247 l 1,5,-1
 143 1509 l 1,6,-1
 143 1520 l 1,7,-1
 250 1520 l 1,8,-1
 422 1326 l 1,0,-1
EndSplineSet
EndChar

StartChar: breve
Encoding: 728 728 161
Width: 865
GlyphClass: 1
Flags: W
LayerCount: 2
Fore
SplineSet
716 1490 m 1,0,1
 716 1375 716 1375 637.5 1304 c 128,-1,2
 559 1233 559 1233 427 1233 c 0,3,4
 297 1233 297 1233 217.5 1303.5 c 128,-1,5
 138 1374 138 1374 138 1490 c 1,6,-1
 240 1490 l 1,7,8
 240 1407 240 1407 289.5 1363 c 128,-1,9
 339 1319 339 1319 427 1319 c 128,-1,10
 515 1319 515 1319 564.5 1365 c 128,-1,11
 614 1411 614 1411 614 1490 c 1,12,-1
 716 1490 l 1,0,1
EndSplineSet
EndChar

StartChar: dotaccent
Encoding: 729 729 162
Width: 459
GlyphClass: 1
Flags: W
LayerCount: 2
Fore
SplineSet
148 1382 m 0,0,1
 148 1416 148 1416 170 1439.5 c 128,-1,2
 192 1463 192 1463 230 1463 c 0,3,4
 269 1463 269 1463 291 1439.5 c 128,-1,5
 313 1416 313 1416 313 1382 c 0,6,7
 313 1349 313 1349 291 1326 c 128,-1,8
 269 1303 269 1303 230 1303 c 0,9,10
 192 1303 192 1303 170 1326 c 128,-1,11
 148 1349 148 1349 148 1382 c 0,0,1
EndSplineSet
EndChar

StartChar: ring
Encoding: 730 730 163
Width: 635
GlyphClass: 1
Flags: W
LayerCount: 2
Fore
SplineSet
117 1395 m 0,0,1
 117 1475 117 1475 173.5 1530 c 128,-1,2
 230 1585 230 1585 310 1585 c 0,3,4
 389 1585 389 1585 446 1530 c 128,-1,5
 503 1475 503 1475 503 1395 c 0,6,7
 503 1316 503 1316 448 1262 c 128,-1,8
 393 1208 393 1208 310 1208 c 128,-1,9
 227 1208 227 1208 172 1262 c 128,-1,10
 117 1316 117 1316 117 1395 c 0,0,1
194 1395 m 0,11,12
 194 1345 194 1345 227 1312 c 128,-1,13
 260 1279 260 1279 310 1279 c 0,14,15
 359 1279 359 1279 393 1311.5 c 128,-1,16
 427 1344 427 1344 427 1395 c 0,17,18
 427 1448 427 1448 392 1481 c 128,-1,19
 357 1514 357 1514 310 1514 c 0,20,21
 261 1514 261 1514 227.5 1480 c 128,-1,22
 194 1446 194 1446 194 1395 c 0,11,12
EndSplineSet
EndChar

StartChar: ogonek
Encoding: 731 731 164
Width: 512
GlyphClass: 2
Flags: W
LayerCount: 2
Fore
SplineSet
347 0 m 1,0,1
 242 -80 242 -80 205 -132.5 c 128,-1,2
 168 -185 168 -185 168 -234 c 0,3,4
 168 -318 168 -318 253 -318 c 0,5,6
 307 -318 307 -318 358 -285 c 1,7,-1
 373 -369 l 1,8,9
 308 -413 308 -413 230 -413 c 0,10,11
 150 -413 150 -413 105 -368.5 c 128,-1,12
 60 -324 60 -324 60 -244 c 0,13,14
 60 -170 60 -170 122 -95.5 c 128,-1,15
 184 -21 184 -21 288 37 c 1,16,-1
 347 0 l 1,0,1
EndSplineSet
EndChar

StartChar: tilde
Encoding: 732 732 165
Width: 891
GlyphClass: 1
Flags: W
LayerCount: 2
Fore
SplineSet
779 1485 m 1,0,1
 779 1389 779 1389 722.5 1330.5 c 128,-1,2
 666 1272 666 1272 584 1272 c 0,3,4
 508 1272 508 1272 435.5 1327 c 128,-1,5
 363 1382 363 1382 306 1382 c 0,6,7
 259 1382 259 1382 227.5 1351 c 128,-1,8
 196 1320 196 1320 196 1264 c 1,9,-1
 106 1267 l 1,10,11
 106 1359 106 1359 160.5 1419 c 128,-1,12
 215 1479 215 1479 301 1479 c 0,13,14
 349 1479 349 1479 383 1462 c 128,-1,15
 417 1445 417 1445 447 1424 c 128,-1,16
 477 1403 477 1403 507.5 1386 c 128,-1,17
 538 1369 538 1369 579 1369 c 0,18,19
 625 1369 625 1369 657.5 1402 c 128,-1,20
 690 1435 690 1435 690 1491 c 1,21,-1
 779 1485 l 1,0,1
EndSplineSet
EndChar

StartChar: hungarumlaut
Encoding: 733 733 166
Width: 773
GlyphClass: 1
Flags: W
LayerCount: 2
Fore
SplineSet
633 1535 m 1,0,-1
 777 1535 l 1,1,-1
 498 1232 l 1,2,-1
 377 1232 l 1,3,-1
 633 1535 l 1,0,-1
323 1535 m 1,4,-1
 460 1535 l 1,5,-1
 229 1232 l 1,6,-1
 120 1232 l 1,7,-1
 323 1535 l 1,4,-1
EndSplineSet
EndChar

StartChar: uni02F3
Encoding: 755 755 167
Width: 622
GlyphClass: 1
Flags: W
LayerCount: 2
Fore
SplineSet
157 -230 m 0,0,1
 157 -169 157 -169 202 -128 c 128,-1,2
 247 -87 247 -87 311 -87 c 0,3,4
 374 -87 374 -87 418 -128.5 c 128,-1,5
 462 -170 462 -170 462 -230 c 0,6,7
 462 -289 462 -289 418 -329 c 128,-1,8
 374 -369 374 -369 311 -369 c 128,-1,9
 248 -369 248 -369 202.5 -329.5 c 128,-1,10
 157 -290 157 -290 157 -230 c 0,0,1
230 -230 m 0,11,12
 230 -261 230 -261 253.5 -281 c 128,-1,13
 277 -301 277 -301 311 -301 c 128,-1,14
 345 -301 345 -301 368 -281 c 128,-1,15
 391 -261 391 -261 391 -230 c 0,16,17
 391 -198 391 -198 368 -177 c 128,-1,18
 345 -156 345 -156 311 -156 c 128,-1,19
 277 -156 277 -156 253.5 -177 c 128,-1,20
 230 -198 230 -198 230 -230 c 0,11,12
EndSplineSet
EndChar

StartChar: gravecomb
Encoding: 768 768 168
Width: 0
GlyphClass: 4
Flags: W
LayerCount: 2
Fore
SplineSet
-465 1256 m 1,0,-1
 -574 1256 l 1,1,-1
 -800 1536 l 1,2,-1
 -655 1536 l 1,3,-1
 -465 1256 l 1,0,-1
EndSplineSet
EndChar

StartChar: acutecomb
Encoding: 769 769 169
Width: 0
GlyphClass: 4
Flags: W
LayerCount: 2
Fore
SplineSet
-424 1536 m 1,0,-1
 -279 1536 l 1,1,-1
 -511 1256 l 1,2,-1
 -615 1256 l 1,3,-1
 -424 1536 l 1,0,-1
EndSplineSet
EndChar

StartChar: hookabovecomb
Encoding: 777 777 171
Width: 0
GlyphClass: 4
Flags: W
LayerCount: 2
Fore
SplineSet
-625 1234 m 1,0,-1
 -625 1359 l 1,1,2
 -538 1366 -538 1366 -498 1385.5 c 128,-1,3
 -458 1405 -458 1405 -458 1453 c 0,4,5
 -458 1498 -458 1498 -512.5 1523 c 128,-1,6
 -567 1548 -567 1548 -659 1548 c 1,7,-1
 -652 1625 l 1,8,9
 -515 1625 -515 1625 -436.5 1578 c 128,-1,10
 -358 1531 -358 1531 -358 1452 c 0,11,12
 -358 1386 -358 1386 -403.5 1344.5 c 128,-1,13
 -449 1303 -449 1303 -534 1296 c 1,14,-1
 -535 1234 l 1,15,-1
 -625 1234 l 1,0,-1
EndSplineSet
EndChar

StartChar: uni030F
Encoding: 783 783 172
Width: 0
GlyphClass: 4
Flags: W
LayerCount: 2
Fore
SplineSet
-554 1252 m 1,0,-1
 -675 1252 l 1,1,-1
 -977 1518 l 1,2,-1
 -824 1518 l 1,3,-1
 -554 1252 l 1,0,-1
-311 1252 m 1,4,-1
 -420 1252 l 1,5,-1
 -670 1518 l 1,6,-1
 -529 1518 l 1,7,-1
 -311 1252 l 1,4,-1
EndSplineSet
EndChar

StartChar: dotbelowcomb
Encoding: 803 803 173
Width: 0
GlyphClass: 4
Flags: W
LayerCount: 2
Fore
SplineSet
-672 -231 m 0,0,1
 -672 -197 -672 -197 -650 -173.5 c 128,-1,2
 -628 -150 -628 -150 -590 -150 c 0,3,4
 -551 -150 -551 -150 -529 -173.5 c 128,-1,5
 -507 -197 -507 -197 -507 -231 c 0,6,7
 -507 -264 -507 -264 -529 -287 c 128,-1,8
 -551 -310 -551 -310 -590 -310 c 0,9,10
 -628 -310 -628 -310 -650 -287 c 128,-1,11
 -672 -264 -672 -264 -672 -231 c 0,0,1
EndSplineSet
EndChar

StartChar: tonos
Encoding: 900 900 174
Width: 519
GlyphClass: 1
Flags: W
LayerCount: 2
Fore
SplineSet
273 1588 m 1,0,-1
 391 1588 l 1,1,-1
 282 1284 l 1,2,-1
 199 1284 l 1,3,-1
 273 1588 l 1,0,-1
EndSplineSet
EndChar

StartChar: dieresistonos
Encoding: 901 901 175
Width: 981
GlyphClass: 1
Flags: W
LayerCount: 2
Fore
SplineSet
473 1664 m 1,0,-1
 607 1664 l 1,1,-1
 535 1412 l 1,2,-1
 438 1412 l 1,3,-1
 473 1664 l 1,0,-1
153 1396 m 0,4,5
 153 1430 153 1430 175 1453.5 c 128,-1,6
 197 1477 197 1477 235 1477 c 0,7,8
 274 1477 274 1477 296 1453.5 c 128,-1,9
 318 1430 318 1430 318 1396 c 0,10,11
 318 1363 318 1363 296 1340 c 128,-1,12
 274 1317 274 1317 235 1317 c 0,13,14
 197 1317 197 1317 175 1340 c 128,-1,15
 153 1363 153 1363 153 1396 c 0,4,5
659 1395 m 0,16,17
 659 1429 659 1429 681 1452.5 c 128,-1,18
 703 1476 703 1476 741 1476 c 128,-1,19
 779 1476 779 1476 801.5 1452.5 c 128,-1,20
 824 1429 824 1429 824 1395 c 0,21,22
 824 1362 824 1362 801.5 1339 c 128,-1,23
 779 1316 779 1316 741 1316 c 128,-1,24
 703 1316 703 1316 681 1339 c 128,-1,25
 659 1362 659 1362 659 1395 c 0,16,17
EndSplineSet
EndChar

StartChar: Gamma
Encoding: 915 915 177
Width: 1130
GlyphClass: 2
Flags: W
LayerCount: 2
Fore
SplineSet
1063 1351 m 1,0,-1
 308 1351 l 1,1,-1
 308 0 l 1,2,-1
 185 0 l 1,3,-1
 185 1456 l 1,4,-1
 1063 1456 l 1,5,-1
 1063 1351 l 1,0,-1
EndSplineSet
Substitution2: "'c2sc' Capitals to Small Capitals lookup 0 subtable" Gamma.c2sc
Position2: "'cpsp' Capital Spacing lookup 0 subtable" dx=36 dy=0 dh=72 dv=0
EndChar

StartChar: uni0394
Encoding: 916 916 178
AltUni2: 002206.ffffffff.0 002206.ffffffff.0
Width: 1427
GlyphClass: 1
Flags: W
LayerCount: 2
Fore
SplineSet
777 1456 m 1,0,-1
 1375 0 l 1,1,-1
 44 0 l 1,2,-1
 660 1456 l 1,3,-1
 777 1456 l 1,0,-1
216 104 m 1,4,-1
 1204 104 l 1,5,-1
 717 1311 l 1,6,-1
 216 104 l 1,4,-1
EndSplineSet
Substitution2: "'c2sc' Capitals to Small Capitals lookup 0 subtable" uni0394.c2sc
Position2: "'cpsp' Capital Spacing lookup 0 subtable" dx=36 dy=0 dh=72 dv=0
EndChar

StartChar: Theta
Encoding: 920 920 179
Width: 1378
GlyphClass: 1
Flags: W
LayerCount: 2
Fore
SplineSet
965 675 m 1,0,-1
 411 675 l 1,1,-1
 411 776 l 1,2,-1
 965 776 l 1,3,-1
 965 675 l 1,0,-1
1252 649 m 2,4,5
 1252 448 1252 448 1182.5 296 c 128,-1,6
 1113 144 1113 144 984 62 c 128,-1,7
 855 -20 855 -20 686 -20 c 0,8,9
 520 -20 520 -20 390.5 62 c 128,-1,10
 261 144 261 144 190 294.5 c 128,-1,11
 119 445 119 445 118 642 c 2,12,-1
 118 805 l 2,13,14
 118 1004 118 1004 188.5 1157.5 c 128,-1,15
 259 1311 259 1311 388 1393.5 c 128,-1,16
 517 1476 517 1476 684 1476 c 0,17,18
 852 1476 852 1476 980.5 1395 c 128,-1,19
 1109 1314 1109 1314 1179 1166 c 128,-1,20
 1249 1018 1249 1018 1252 823 c 2,21,-1
 1252 649 l 2,4,5
1130 807 m 2,22,23
 1130 1070 1130 1070 1011 1219 c 128,-1,24
 892 1368 892 1368 684 1368 c 0,25,26
 482 1368 482 1368 361.5 1218.5 c 128,-1,27
 241 1069 241 1069 241 801 c 2,28,-1
 241 649 l 2,29,30
 241 390 241 390 360.5 238.5 c 128,-1,31
 480 87 480 87 686 87 c 0,32,33
 894 87 894 87 1012 236 c 128,-1,34
 1130 385 1130 385 1130 652 c 2,35,-1
 1130 807 l 2,22,23
EndSplineSet
Substitution2: "'c2sc' Capitals to Small Capitals lookup 0 subtable" Theta.c2sc
Position2: "'cpsp' Capital Spacing lookup 0 subtable" dx=36 dy=0 dh=72 dv=0
EndChar

StartChar: Lambda
Encoding: 923 923 180
Width: 1327
GlyphClass: 1
Flags: W
LayerCount: 2
Fore
SplineSet
659 1276 m 1,0,-1
 201 0 l 1,1,-1
 68 0 l 1,2,-1
 600 1456 l 1,3,-1
 719 1456 l 1,4,-1
 1252 0 l 1,5,-1
 1119 0 l 1,6,-1
 659 1276 l 1,0,-1
EndSplineSet
Substitution2: "'c2sc' Capitals to Small Capitals lookup 0 subtable" Lambda.c2sc
Position2: "'cpsp' Capital Spacing lookup 0 subtable" dx=36 dy=0 dh=72 dv=0
EndChar

StartChar: Xi
Encoding: 926 926 181
Width: 1145
GlyphClass: 1
Flags: W
LayerCount: 2
Fore
SplineSet
116 104 m 1,0,-1
 1037 104 l 1,1,-1
 1037 0 l 1,2,-1
 116 0 l 1,3,-1
 116 104 l 1,0,-1
213 785 m 1,4,-1
 931 785 l 1,5,-1
 931 680 l 1,6,-1
 213 680 l 1,7,-1
 213 785 l 1,4,-1
128 1456 m 1,8,-1
 1009 1456 l 1,9,-1
 1009 1351 l 1,10,-1
 128 1351 l 1,11,-1
 128 1456 l 1,8,-1
EndSplineSet
Substitution2: "'c2sc' Capitals to Small Capitals lookup 0 subtable" Xi.c2sc
Position2: "'cpsp' Capital Spacing lookup 0 subtable" dx=36 dy=0 dh=72 dv=0
EndChar

StartChar: Pi
Encoding: 928 928 182
Width: 1449
GlyphClass: 1
Flags: W
LayerCount: 2
Fore
SplineSet
1259 0 m 1,0,-1
 1136 0 l 1,1,-1
 1136 1351 l 1,2,-1
 312 1351 l 1,3,-1
 312 0 l 1,4,-1
 189 0 l 1,5,-1
 189 1456 l 1,6,-1
 1259 1456 l 1,7,-1
 1259 0 l 1,0,-1
EndSplineSet
Substitution2: "'c2sc' Capitals to Small Capitals lookup 0 subtable" Pi.c2sc
Position2: "'cpsp' Capital Spacing lookup 0 subtable" dx=36 dy=0 dh=72 dv=0
EndChar

StartChar: Sigma
Encoding: 931 931 183
Width: 1145
GlyphClass: 1
Flags: W
LayerCount: 2
Fore
SplineSet
705 743 m 1,0,-1
 218 104 l 1,1,-1
 1070 104 l 1,2,-1
 1070 0 l 1,3,-1
 63 0 l 1,4,-1
 63 92 l 1,5,-1
 577 759 l 1,6,-1
 63 1363 l 1,7,-1
 63 1456 l 1,8,-1
 1016 1456 l 1,9,-1
 1016 1351 l 1,10,-1
 227 1351 l 1,11,-1
 705 779 l 1,12,-1
 705 743 l 1,0,-1
EndSplineSet
Substitution2: "'c2sc' Capitals to Small Capitals lookup 0 subtable" Sigma.c2sc
Position2: "'cpsp' Capital Spacing lookup 0 subtable" dx=36 dy=0 dh=72 dv=0
EndChar

StartChar: Phi
Encoding: 934 934 184
Width: 1464
GlyphClass: 1
Flags: W
LayerCount: 2
Fore
SplineSet
795 1268 m 1,0,1
 965 1265 965 1265 1098 1197 c 128,-1,2
 1231 1129 1231 1129 1305 1006.5 c 128,-1,3
 1379 884 1379 884 1379 731 c 128,-1,4
 1379 578 1379 578 1306.5 455.5 c 128,-1,5
 1234 333 1234 333 1100.5 264 c 128,-1,6
 967 195 967 195 795 192 c 1,7,-1
 795 0 l 1,8,-1
 671 0 l 1,9,-1
 671 192 l 1,10,11
 499 195 499 195 366.5 263 c 128,-1,12
 234 331 234 331 161 453.5 c 128,-1,13
 88 576 88 576 88 729 c 0,14,15
 88 881 88 881 161 1004 c 128,-1,16
 234 1127 234 1127 367.5 1196 c 128,-1,17
 501 1265 501 1265 671 1268 c 1,18,-1
 671 1456 l 1,19,-1
 795 1456 l 1,20,-1
 795 1268 l 1,0,1
795 1163 m 1,21,-1
 795 298 l 1,22,23
 1013 302 1013 302 1134.5 419.5 c 128,-1,24
 1256 537 1256 537 1256 731 c 128,-1,25
 1256 925 1256 925 1133 1042 c 128,-1,26
 1010 1159 1010 1159 795 1163 c 1,21,-1
211 729 m 0,27,28
 211 535 211 535 333 418.5 c 128,-1,29
 455 302 455 302 671 298 c 1,30,-1
 671 1162 l 1,31,32
 458 1158 458 1158 334.5 1041 c 128,-1,33
 211 924 211 924 211 729 c 0,27,28
EndSplineSet
Substitution2: "'c2sc' Capitals to Small Capitals lookup 0 subtable" Phi.c2sc
Position2: "'cpsp' Capital Spacing lookup 0 subtable" dx=36 dy=0 dh=72 dv=0
EndChar

StartChar: Psi
Encoding: 936 936 185
Width: 1422
GlyphClass: 1
Flags: W
LayerCount: 2
Fore
SplineSet
765 495 m 1,0,1
 952 510 952 510 1060.5 628.5 c 128,-1,2
 1169 747 1169 747 1170 936 c 2,3,-1
 1170 1456 l 1,4,-1
 1293 1456 l 1,5,-1
 1293 941 l 2,6,7
 1293 699 1293 699 1152.5 551.5 c 128,-1,8
 1012 404 1012 404 765 389 c 1,9,-1
 765 0 l 1,10,-1
 641 0 l 1,11,-1
 641 390 l 1,12,13
 404 405 404 405 265 550 c 128,-1,14
 126 695 126 695 123 928 c 2,15,-1
 123 1456 l 1,16,-1
 246 1456 l 1,17,-1
 246 936 l 2,18,19
 246 812 246 812 295.5 715 c 128,-1,20
 345 618 345 618 434 562 c 128,-1,21
 523 506 523 506 641 495 c 1,22,-1
 641 1456 l 1,23,-1
 765 1456 l 1,24,-1
 765 495 l 1,0,1
EndSplineSet
Substitution2: "'c2sc' Capitals to Small Capitals lookup 0 subtable" Psi.c2sc
Position2: "'cpsp' Capital Spacing lookup 0 subtable" dx=36 dy=0 dh=72 dv=0
EndChar

StartChar: uni03A9
Encoding: 937 937 186
AltUni2: 002126.ffffffff.0 002126.ffffffff.0
Width: 1341
GlyphClass: 2
Flags: W
LayerCount: 2
Fore
SplineSet
749 119 m 1,0,1
 902 172 902 172 988 327 c 128,-1,2
 1074 482 1074 482 1076 716 c 2,3,-1
 1076 846 l 2,4,5
 1076 1085 1076 1085 963 1228 c 128,-1,6
 850 1371 850 1371 662 1371 c 0,7,8
 473 1371 473 1371 361.5 1226.5 c 128,-1,9
 250 1082 250 1082 250 841 c 2,10,-1
 250 729 l 2,11,12
 250 493 250 493 336.5 333 c 128,-1,13
 423 173 423 173 583 119 c 1,14,-1
 583 0 l 1,15,-1
 120 0 l 1,16,-1
 120 104 l 1,17,-1
 408 104 l 1,18,19
 276 201 276 201 200.5 365 c 128,-1,20
 125 529 125 529 125 729 c 2,21,-1
 125 844 l 2,22,23
 125 1030 125 1030 192.5 1174.5 c 128,-1,24
 260 1319 260 1319 382.5 1397.5 c 128,-1,25
 505 1476 505 1476 662 1476 c 0,26,27
 820 1476 820 1476 943 1396.5 c 128,-1,28
 1066 1317 1066 1317 1133 1173 c 128,-1,29
 1200 1029 1200 1029 1200 845 c 2,30,-1
 1200 729 l 2,31,32
 1200 528 1200 528 1123.5 363 c 128,-1,33
 1047 198 1047 198 919 104 c 1,34,-1
 1208 104 l 1,35,-1
 1208 0 l 1,36,-1
 749 0 l 1,37,-1
 749 119 l 1,0,1
EndSplineSet
Substitution2: "'c2sc' Capitals to Small Capitals lookup 0 subtable" uni03A9.c2sc
Position2: "'cpsp' Capital Spacing lookup 0 subtable" dx=36 dy=0 dh=72 dv=0
EndChar

StartChar: alpha
Encoding: 945 945 187
Width: 1153
GlyphClass: 2
Flags: W
LayerCount: 2
Fore
SplineSet
978 1082 m 1,0,-1
 978 268 l 2,1,2
 979 87 979 87 1079 87 c 0,3,4
 1100 87 1100 87 1129 95 c 1,5,-1
 1146 2 l 1,6,7
 1105 -21 1105 -21 1048 -21 c 0,8,9
 970 -21 970 -21 923.5 24.5 c 128,-1,10
 877 70 877 70 863 176 c 1,11,12
 753 -21 753 -21 524 -21 c 0,13,14
 343 -21 343 -21 232.5 109.5 c 128,-1,15
 122 240 122 240 112 469 c 1,16,-1
 111 532 l 1,17,18
 111 797 111 797 223 949.5 c 128,-1,19
 335 1102 335 1102 526 1102 c 0,20,21
 753 1102 753 1102 861 897 c 1,22,-1
 875 1082 l 1,23,-1
 978 1082 l 1,0,-1
231 511 m 0,24,25
 231 307 231 307 313 193.5 c 128,-1,26
 395 80 395 80 546 80 c 0,27,28
 765 80 765 80 858 321 c 1,29,-1
 858 737 l 1,30,31
 814 863 814 863 734.5 931.5 c 128,-1,32
 655 1000 655 1000 548 1000 c 0,33,34
 399 1000 399 1000 315 876 c 128,-1,35
 231 752 231 752 231 511 c 0,24,25
EndSplineSet
Substitution2: "'ss02' Style Set 2 lookup 12 subtable" alpha.ss02
Substitution2: "'smcp' Lowercase to Small Capitals lookup 1 subtable" Alpha.c2sc
EndChar

StartChar: beta
Encoding: 946 946 188
Width: 1213
GlyphClass: 1
Flags: W
LayerCount: 2
Fore
SplineSet
594 1476 m 0,0,1
 778 1476 778 1476 890.5 1369.5 c 128,-1,2
 1003 1263 1003 1263 1003 1093 c 0,3,4
 1003 992 1003 992 951.5 909.5 c 128,-1,5
 900 827 900 827 805 782 c 1,6,7
 941 743 941 743 1015.5 644 c 128,-1,8
 1090 545 1090 545 1090 404 c 0,9,10
 1090 207 1090 207 967.5 93.5 c 128,-1,11
 845 -20 845 -20 640 -20 c 0,12,13
 539 -20 539 -20 448 14 c 128,-1,14
 357 48 357 48 297 108 c 1,15,-1
 297 -399 l 1,16,-1
 177 -399 l 1,17,-1
 177 1063 l 2,18,19
 177 1175 177 1175 232.5 1270.5 c 128,-1,20
 288 1366 288 1366 385 1421 c 128,-1,21
 482 1476 482 1476 594 1476 c 0,0,1
884 1097 m 0,22,23
 884 1218 884 1218 804 1296 c 128,-1,24
 724 1374 724 1374 594 1374 c 0,25,26
 469 1374 469 1374 383 1285 c 128,-1,27
 297 1196 297 1196 297 1058 c 2,28,-1
 297 238 l 1,29,30
 342 166 342 166 432.5 123.5 c 128,-1,31
 523 81 523 81 631 81 c 0,32,33
 792 81 792 81 881 166.5 c 128,-1,34
 970 252 970 252 970 400 c 0,35,36
 970 543 970 543 882 631.5 c 128,-1,37
 794 720 794 720 642 721 c 2,38,-1
 496 721 l 1,39,-1
 496 823 l 1,40,-1
 585 823 l 2,41,42
 884 823 884 823 884 1097 c 0,22,23
EndSplineSet
Substitution2: "'smcp' Lowercase to Small Capitals lookup 1 subtable" Beta.c2sc
EndChar

StartChar: gamma
Encoding: 947 947 189
Width: 1002
GlyphClass: 1
Flags: W
LayerCount: 2
Fore
SplineSet
839 1082 m 1,0,-1
 963 1082 l 1,1,-1
 564 31 l 1,2,-1
 564 -415 l 1,3,-1
 444 -415 l 1,4,-1
 444 31 l 1,5,-1
 44 1082 l 1,6,-1
 168 1082 l 1,7,-1
 483 239 l 1,8,-1
 505 150 l 1,9,-1
 529 239 l 1,10,-1
 839 1082 l 1,0,-1
EndSplineSet
Substitution2: "'smcp' Lowercase to Small Capitals lookup 1 subtable" Gamma.c2sc
EndChar

StartChar: delta
Encoding: 948 948 190
Width: 1140
GlyphClass: 1
Flags: W
LayerCount: 2
Fore
SplineSet
218 1289 m 0,0,1
 218 1412 218 1412 319 1487.5 c 128,-1,2
 420 1563 420 1563 583 1563 c 0,3,4
 745 1563 745 1563 873 1497 c 1,5,-1
 863 1394 l 1,6,7
 723 1459 723 1459 582 1459 c 0,8,9
 473 1459 473 1459 405.5 1413.5 c 128,-1,10
 338 1368 338 1368 338 1291 c 128,-1,11
 338 1214 338 1214 405.5 1162 c 128,-1,12
 473 1110 473 1110 615 1073 c 0,13,14
 823 1013 823 1013 935.5 871.5 c 128,-1,15
 1048 730 1048 730 1048 532 c 2,16,-1
 1048 504 l 2,17,18
 1048 352 1048 352 988.5 232 c 128,-1,19
 929 112 929 112 819.5 46 c 128,-1,20
 710 -20 710 -20 571 -20 c 0,21,22
 358 -20 358 -20 224.5 125.5 c 128,-1,23
 91 271 91 271 91 512 c 2,24,-1
 91 536 l 2,25,26
 91 716 91 716 193 850.5 c 128,-1,27
 295 985 295 985 443 1012 c 1,28,-1
 442 1020 l 1,29,30
 334 1062 334 1062 276 1131.5 c 128,-1,31
 218 1201 218 1201 218 1289 c 0,0,1
212 504 m 2,32,33
 212 316 212 316 310.5 198.5 c 128,-1,34
 409 81 409 81 571 81 c 128,-1,35
 733 81 733 81 830.5 199 c 128,-1,36
 928 317 928 317 928 514 c 2,37,-1
 928 536 l 2,38,39
 928 636 928 636 882 726.5 c 128,-1,40
 836 817 836 817 756 877.5 c 128,-1,41
 676 938 676 938 583 954 c 1,42,43
 418 954 418 954 315 836 c 128,-1,44
 212 718 212 718 212 527 c 2,45,-1
 212 504 l 2,32,33
EndSplineSet
Substitution2: "'smcp' Lowercase to Small Capitals lookup 1 subtable" uni0394.c2sc
EndChar

StartChar: epsilon
Encoding: 949 949 191
Width: 1113
GlyphClass: 2
Flags: W
LayerCount: 2
Fore
SplineSet
107 297 m 0,0,1
 107 497 107 497 332 555 c 1,2,3
 233 590 233 590 179.5 653 c 128,-1,4
 126 716 126 716 126 794 c 0,5,6
 126 939 126 939 239 1020 c 128,-1,7
 352 1101 352 1101 550 1101 c 0,8,9
 735 1101 735 1101 858.5 1013 c 128,-1,10
 982 925 982 925 982 790 c 1,11,-1
 863 790 l 1,12,13
 863 881 863 881 772.5 940.5 c 128,-1,14
 682 1000 682 1000 550 1000 c 0,15,16
 410 1000 410 1000 328.5 946 c 128,-1,17
 247 892 247 892 247 796 c 0,18,19
 247 602 247 602 554 602 c 2,20,-1
 731 602 l 1,21,-1
 731 502 l 1,22,-1
 539 502 l 2,23,24
 387 501 387 501 307.5 452 c 128,-1,25
 228 403 228 403 228 295 c 0,26,27
 228 198 228 198 315.5 139.5 c 128,-1,28
 403 81 403 81 550 81 c 0,29,30
 693 81 693 81 786.5 146 c 128,-1,31
 880 211 880 211 880 310 c 1,32,-1
 1000 310 l 1,33,34
 1000 160 1000 160 873.5 70 c 128,-1,35
 747 -20 747 -20 550 -20 c 0,36,37
 351 -20 351 -20 229 66.5 c 128,-1,38
 107 153 107 153 107 297 c 0,0,1
EndSplineSet
Substitution2: "'smcp' Lowercase to Small Capitals lookup 1 subtable" Epsilon.c2sc
EndChar

StartChar: zeta
Encoding: 950 950 192
Width: 1007
GlyphClass: 1
Flags: W
LayerCount: 2
Fore
SplineSet
925 1456 m 1,0,-1
 925 1378 l 1,1,-1
 525 869 l 2,2,3
 399 712 399 712 349 597.5 c 128,-1,4
 299 483 299 483 299 363 c 0,5,6
 299 268 299 268 355.5 212 c 128,-1,7
 412 156 412 156 552 120 c 2,8,-1
 730 69 l 2,9,10
 825 39 825 39 860.5 -2.5 c 128,-1,11
 896 -44 896 -44 896 -112 c 0,12,13
 896 -183 896 -183 845.5 -265.5 c 128,-1,14
 795 -348 795 -348 730 -387 c 1,15,-1
 662 -330 l 1,16,17
 781 -233 781 -233 781 -126 c 0,18,19
 781 -79 781 -79 741.5 -53 c 128,-1,20
 702 -27 702 -27 559.5 9 c 128,-1,21
 417 45 417 45 347 82 c 128,-1,22
 277 119 277 119 237 169 c 0,23,24
 180 241 180 241 180 360 c 0,25,26
 180 609 180 609 424 916 c 1,27,-1
 780 1354 l 1,28,-1
 73 1354 l 1,29,-1
 73 1456 l 1,30,-1
 925 1456 l 1,0,-1
EndSplineSet
Substitution2: "'smcp' Lowercase to Small Capitals lookup 1 subtable" Zeta.c2sc
EndChar

StartChar: eta
Encoding: 951 951 193
Width: 1140
GlyphClass: 2
Flags: W
LayerCount: 2
Fore
SplineSet
269 1082 m 1,0,-1
 275 910 l 1,1,2
 389 1102 389 1102 621 1102 c 0,3,4
 805 1102 805 1102 892.5 1002 c 128,-1,5
 980 902 980 902 981 692 c 2,6,-1
 981 -415 l 1,7,-1
 861 -415 l 1,8,-1
 861 686 l 2,9,10
 861 845 861 845 797.5 922.5 c 128,-1,11
 734 1000 734 1000 594 1000 c 0,12,13
 350 1000 350 1000 278 747 c 1,14,-1
 278 0 l 1,15,-1
 158 0 l 1,16,-1
 158 1082 l 1,17,-1
 269 1082 l 1,0,-1
EndSplineSet
Substitution2: "'smcp' Lowercase to Small Capitals lookup 1 subtable" Eta.c2sc
EndChar

StartChar: theta
Encoding: 952 952 194
Width: 1173
GlyphClass: 1
Flags: W
LayerCount: 2
Fore
SplineSet
1034 616 m 2,0,1
 1034 310 1034 310 918 145 c 128,-1,2
 802 -20 802 -20 587 -20 c 0,3,4
 375 -20 375 -20 258 143 c 128,-1,5
 141 306 141 306 138 603 c 2,6,-1
 138 844 l 2,7,8
 138 1148 138 1148 255 1312 c 128,-1,9
 372 1476 372 1476 585 1476 c 0,10,11
 799 1476 799 1476 915.5 1314 c 128,-1,12
 1032 1152 1032 1152 1034 853 c 2,13,-1
 1034 616 l 2,0,1
258 774 m 1,14,-1
 914 774 l 1,15,-1
 914 859 l 2,16,17
 914 1109 914 1109 827.5 1241.5 c 128,-1,18
 741 1374 741 1374 585 1374 c 128,-1,19
 429 1374 429 1374 343.5 1241 c 128,-1,20
 258 1108 258 1108 258 855 c 2,21,-1
 258 774 l 1,14,-1
914 672 m 1,22,-1
 258 672 l 1,23,-1
 258 603 l 2,24,25
 258 358 258 358 344 219.5 c 128,-1,26
 430 81 430 81 587 81 c 0,27,28
 739 81 739 81 825 211.5 c 128,-1,29
 911 342 911 342 914 588 c 2,30,-1
 914 672 l 1,22,-1
EndSplineSet
Substitution2: "'smcp' Lowercase to Small Capitals lookup 1 subtable" Theta.c2sc
EndChar

StartChar: iota
Encoding: 953 953 195
Width: 614
GlyphClass: 2
Flags: W
LayerCount: 2
Fore
SplineSet
302 1082 m 1,0,-1
 302 270 l 2,1,2
 302 182 302 182 334.5 138.5 c 128,-1,3
 367 95 367 95 443 95 c 0,4,5
 490 95 490 95 540 105 c 1,6,-1
 545 5 l 1,7,8
 490 -10 490 -10 417 -10 c 0,9,10
 294 -10 294 -10 238 61.5 c 128,-1,11
 182 133 182 133 182 272 c 2,12,-1
 182 1082 l 1,13,-1
 302 1082 l 1,0,-1
EndSplineSet
Substitution2: "'smcp' Lowercase to Small Capitals lookup 1 subtable" Iota.c2sc
EndChar

StartChar: lambda
Encoding: 955 955 196
Width: 1127
GlyphClass: 1
Flags: W
LayerCount: 2
Fore
SplineSet
252 1518 m 0,0,1
 408 1518 408 1518 476 1365 c 1,2,-1
 502 1300 l 1,3,-1
 906 227 l 2,4,5
 934 153 934 153 963 124 c 128,-1,6
 992 95 992 95 1034 95 c 2,7,-1
 1077 99 l 1,8,-1
 1085 0 l 1,9,10
 1061 -11 1061 -11 1017 -11 c 0,11,12
 939 -11 939 -11 888 29 c 128,-1,13
 837 69 837 69 793 182 c 2,14,-1
 528 889 l 1,15,-1
 182 0 l 1,16,-1
 49 0 l 1,17,-1
 466 1052 l 1,18,-1
 373 1291 l 1,19,-1
 358 1324 l 2,20,21
 314 1416 314 1416 229 1416 c 1,22,-1
 182 1412 l 1,23,-1
 177 1507 l 1,24,25
 210 1518 210 1518 252 1518 c 0,0,1
EndSplineSet
Substitution2: "'smcp' Lowercase to Small Capitals lookup 1 subtable" Lambda.c2sc
EndChar

StartChar: xi
Encoding: 958 958 197
Width: 1005
GlyphClass: 1
Flags: W
LayerCount: 2
Fore
SplineSet
902 1333 m 1,0,1
 775 1374 775 1374 652 1374 c 0,2,3
 489 1374 489 1374 401 1311.5 c 128,-1,4
 313 1249 313 1249 313 1142 c 0,5,6
 313 904 313 904 684 904 c 2,7,-1
 808 904 l 1,8,-1
 808 801 l 1,9,-1
 681 801 l 2,10,11
 467 801 467 801 353 709 c 128,-1,12
 239 617 239 617 239 444 c 0,13,14
 239 310 239 310 323.5 224.5 c 128,-1,15
 408 139 408 139 601 90 c 128,-1,16
 794 41 794 41 838 16.5 c 128,-1,17
 882 -8 882 -8 902.5 -41.5 c 128,-1,18
 923 -75 923 -75 923 -126 c 0,19,20
 923 -188 923 -188 877.5 -258.5 c 128,-1,21
 832 -329 832 -329 759 -381 c 1,22,-1
 689 -323 l 1,23,-1
 732 -284 l 2,24,25
 808 -215 808 -215 808 -136 c 0,26,27
 808 -95 808 -95 770 -70.5 c 128,-1,28
 732 -46 732 -46 605 -14.5 c 128,-1,29
 478 17 478 17 393 51.5 c 128,-1,30
 308 86 308 86 247.5 138 c 128,-1,31
 187 190 187 190 153 265 c 128,-1,32
 119 340 119 340 119 448 c 0,33,34
 119 598 119 598 205 703 c 128,-1,35
 291 808 291 808 447 852 c 1,36,37
 329 889 329 889 260.5 964.5 c 128,-1,38
 192 1040 192 1040 192 1138 c 0,39,40
 192 1297 192 1297 314.5 1386.5 c 128,-1,41
 437 1476 437 1476 653 1476 c 0,42,43
 803 1476 803 1476 919 1431 c 1,44,-1
 902 1333 l 1,0,1
EndSplineSet
Substitution2: "'smcp' Lowercase to Small Capitals lookup 1 subtable" Xi.c2sc
EndChar

StartChar: pi
Encoding: 960 960 198
Width: 1219
GlyphClass: 1
Flags: W
LayerCount: 2
Fore
SplineSet
1133 979 m 1,0,-1
 948 979 l 1,1,-1
 948 273 l 2,2,3
 948 183 948 183 980 139 c 128,-1,4
 1012 95 1012 95 1089 95 c 0,5,6
 1136 95 1136 95 1186 105 c 1,7,-1
 1191 5 l 1,8,9
 1136 -10 1136 -10 1063 -10 c 0,10,11
 942 -10 942 -10 886 59 c 128,-1,12
 830 128 830 128 828 262 c 2,13,-1
 828 979 l 1,14,-1
 353 979 l 1,15,-1
 353 0 l 1,16,-1
 233 0 l 1,17,-1
 233 979 l 1,18,-1
 51 979 l 1,19,-1
 51 1082 l 1,20,-1
 1133 1082 l 1,21,-1
 1133 979 l 1,0,-1
EndSplineSet
Substitution2: "'smcp' Lowercase to Small Capitals lookup 1 subtable" Pi.c2sc
EndChar

StartChar: rho
Encoding: 961 961 199
Width: 1140
GlyphClass: 2
Flags: W
LayerCount: 2
Fore
SplineSet
592 1102 m 0,0,1
 797 1102 797 1102 912 948.5 c 128,-1,2
 1027 795 1027 795 1027 527 c 2,3,-1
 1027 511 l 2,4,5
 1027 267 1027 267 917.5 123.5 c 128,-1,6
 808 -20 808 -20 616 -20 c 0,7,8
 394 -20 394 -20 278 132 c 1,9,-1
 278 -416 l 1,10,-1
 158 -416 l 1,11,-1
 158 614 l 2,12,13
 160 837 160 837 279 969.5 c 128,-1,14
 398 1102 398 1102 592 1102 c 0,0,1
278 268 m 1,15,16
 369 81 369 81 589 81 c 0,17,18
 740 81 740 81 823.5 193.5 c 128,-1,19
 907 306 907 306 907 532 c 0,20,21
 907 749 907 749 825 874.5 c 128,-1,22
 743 1000 743 1000 592 1000 c 0,23,24
 451 1000 451 1000 365.5 889 c 128,-1,25
 280 778 280 778 279 589 c 2,26,-1
 278 268 l 1,15,16
EndSplineSet
Substitution2: "'smcp' Lowercase to Small Capitals lookup 1 subtable" Rho.c2sc
EndChar

StartChar: sigma1
Encoding: 962 962 200
Width: 1095
GlyphClass: 1
Flags: W
LayerCount: 2
Fore
SplineSet
573 1102 m 0,0,1
 754 1102 754 1102 866.5 997.5 c 128,-1,2
 979 893 979 893 979 715 c 1,3,-1
 865 715 l 1,4,5
 865 845 865 845 785.5 922.5 c 128,-1,6
 706 1000 706 1000 573 1000 c 0,7,8
 416 1000 416 1000 324 879 c 128,-1,9
 232 758 232 758 232 553 c 2,10,-1
 232 520 l 2,11,12
 232 189 232 189 633 91 c 0,13,14
 780 55 780 55 827.5 8 c 128,-1,15
 875 -39 875 -39 875 -123 c 0,16,17
 875 -184 875 -184 825.5 -261 c 128,-1,18
 776 -338 776 -338 718 -376 c 1,19,-1
 652 -319 l 1,20,-1
 681 -293 l 2,21,22
 760 -219 760 -219 760 -135 c 0,23,24
 760 -83 760 -83 727.5 -56.5 c 128,-1,25
 695 -30 695 -30 594 -8 c 0,26,27
 355 44 355 44 233 176.5 c 128,-1,28
 111 309 111 309 111 519 c 2,29,-1
 111 562 l 2,30,31
 111 717 111 717 168.5 841 c 128,-1,32
 226 965 226 965 331.5 1033.5 c 128,-1,33
 437 1102 437 1102 573 1102 c 0,0,1
EndSplineSet
Substitution2: "'smcp' Lowercase to Small Capitals lookup 1 subtable" Sigma.c2sc
EndChar

StartChar: sigma
Encoding: 963 963 201
Width: 1138
GlyphClass: 1
Flags: W
LayerCount: 2
Fore
SplineSet
1132 979 m 1,0,-1
 818 979 l 1,1,2
 927 911 927 911 987.5 798.5 c 128,-1,3
 1048 686 1048 686 1048 539 c 2,4,-1
 1048 506 l 2,5,6
 1048 358 1048 358 988 237 c 128,-1,7
 928 116 928 116 818.5 48 c 128,-1,8
 709 -20 709 -20 571 -20 c 0,9,10
 356 -20 356 -20 223.5 131.5 c 128,-1,11
 91 283 91 283 91 533 c 2,12,-1
 91 557 l 2,13,14
 91 790 91 790 224.5 936 c 128,-1,15
 358 1082 358 1082 573 1082 c 2,16,-1
 1132 1082 l 1,17,-1
 1132 979 l 1,0,-1
211 524 m 2,18,19
 211 327 211 327 310 204 c 128,-1,20
 409 81 409 81 571 81 c 0,21,22
 730 81 730 81 829.5 203.5 c 128,-1,23
 929 326 929 326 929 534 c 2,24,-1
 929 557 l 2,25,26
 929 742 929 742 830 860.5 c 128,-1,27
 731 979 731 979 568 979 c 0,28,29
 408 979 408 979 309.5 859.5 c 128,-1,30
 211 740 211 740 211 549 c 2,31,-1
 211 524 l 2,18,19
EndSplineSet
Substitution2: "'smcp' Lowercase to Small Capitals lookup 1 subtable" Sigma.c2sc
EndChar

StartChar: tau
Encoding: 964 964 202
Width: 1047
GlyphClass: 1
Flags: W
LayerCount: 2
Fore
SplineSet
969 980 m 1,0,-1
 566 980 l 1,1,-1
 566 274 l 2,2,3
 566 178 566 178 600.5 130.5 c 128,-1,4
 635 83 635 83 711 83 c 0,5,6
 745 83 745 83 810 100 c 1,7,-1
 836 11 l 1,8,9
 779 -20 779 -20 688 -20 c 0,10,11
 561 -20 561 -20 503 52.5 c 128,-1,12
 445 125 445 125 445 279 c 2,13,-1
 445 980 l 1,14,-1
 77 980 l 1,15,-1
 77 1082 l 1,16,-1
 969 1082 l 1,17,-1
 969 980 l 1,0,-1
EndSplineSet
Substitution2: "'smcp' Lowercase to Small Capitals lookup 1 subtable" Tau.c2sc
EndChar

StartChar: upsilon
Encoding: 965 965 203
Width: 1095
GlyphClass: 2
Flags: W
LayerCount: 2
Fore
SplineSet
275 1082 m 1,0,-1
 275 399 l 2,1,2
 276 243 276 243 338 162 c 128,-1,3
 400 81 400 81 516 81 c 0,4,5
 666 81 666 81 759 209 c 128,-1,6
 852 337 852 337 852 540 c 0,7,8
 849 802 849 802 735 1082 c 1,9,-1
 865 1082 l 1,10,11
 923 940 923 940 947 812 c 128,-1,12
 971 684 971 684 971 542 c 0,13,14
 971 285 971 285 850 132.5 c 128,-1,15
 729 -20 729 -20 521 -20 c 0,16,17
 342 -20 342 -20 248.5 88 c 128,-1,18
 155 196 155 196 155 406 c 2,19,-1
 155 1082 l 1,20,-1
 275 1082 l 1,0,-1
EndSplineSet
Substitution2: "'smcp' Lowercase to Small Capitals lookup 1 subtable" Upsilon.c2sc
EndChar

StartChar: phi
Encoding: 966 966 204
Width: 1404
GlyphClass: 1
Flags: W
LayerCount: 2
Fore
SplineSet
636 -19 m 1,0,1
 382 -3 382 -3 247.5 147 c 128,-1,2
 113 297 113 297 113 554 c 0,3,4
 113 725 113 725 181.5 862 c 128,-1,5
 250 999 250 999 373 1082 c 1,6,-1
 436 995 l 1,7,8
 342 926 342 926 288.5 807 c 128,-1,9
 235 688 235 688 233 553 c 0,10,11
 233 346 233 346 337.5 223 c 128,-1,12
 442 100 442 100 636 83 c 1,13,-1
 636 874 l 2,14,15
 636 968 636 968 696 1025 c 128,-1,16
 756 1082 756 1082 849 1082 c 0,17,18
 972 1082 972 1082 1075 1012 c 128,-1,19
 1178 942 1178 942 1236 818.5 c 128,-1,20
 1294 695 1294 695 1294 545 c 0,21,22
 1294 302 1294 302 1151 149.5 c 128,-1,23
 1008 -3 1008 -3 756 -19 c 1,24,-1
 756 -478 l 1,25,-1
 636 -478 l 1,26,-1
 636 -19 l 1,0,1
756 82 m 1,27,28
 949 98 949 98 1062 225.5 c 128,-1,29
 1175 353 1175 353 1175 544 c 0,30,31
 1173 730 1173 730 1081 854.5 c 128,-1,32
 989 979 989 979 849 979 c 0,33,34
 808 979 808 979 782 950.5 c 128,-1,35
 756 922 756 922 756 877 c 2,36,-1
 756 82 l 1,27,28
EndSplineSet
Substitution2: "'smcp' Lowercase to Small Capitals lookup 1 subtable" Phi.c2sc
EndChar

StartChar: psi
Encoding: 968 968 205
Width: 1400
GlyphClass: 2
Flags: W
LayerCount: 2
Fore
SplineSet
751 1082 m 1,0,-1
 751 83 l 1,1,2
 950 98 950 98 1060.5 226.5 c 128,-1,3
 1171 355 1171 355 1171 578 c 0,4,5
 1168 821 1168 821 1031 1082 c 1,6,-1
 1162 1082 l 1,7,8
 1234 944 1234 944 1262 826.5 c 128,-1,9
 1290 709 1290 709 1290 579 c 0,10,11
 1290 301 1290 301 1149.5 147.5 c 128,-1,12
 1009 -6 1009 -6 751 -18 c 1,13,-1
 751 -443 l 1,14,-1
 632 -443 l 1,15,-1
 632 -17 l 1,16,17
 388 0 388 0 257 149 c 128,-1,18
 126 298 126 298 121 572 c 1,19,-1
 121 1082 l 1,20,-1
 241 1082 l 1,21,-1
 241 580 l 2,22,23
 243 358 243 358 341.5 230 c 128,-1,24
 440 102 440 102 632 84 c 1,25,-1
 632 1082 l 1,26,-1
 751 1082 l 1,0,-1
EndSplineSet
Substitution2: "'smcp' Lowercase to Small Capitals lookup 1 subtable" Psi.c2sc
EndChar

StartChar: omega
Encoding: 969 969 206
Width: 1688
GlyphClass: 2
Flags: W
LayerCount: 2
Fore
SplineSet
404 1082 m 1,0,1
 259 798 259 798 256 529 c 0,2,3
 256 323 256 323 326.5 202 c 128,-1,4
 397 81 397 81 523 81 c 0,5,6
 646 81 646 81 713.5 179 c 128,-1,7
 781 277 781 277 783 466 c 2,8,-1
 783 770 l 1,9,-1
 904 770 l 1,10,-1
 904 467 l 2,11,12
 906 278 906 278 973 179.5 c 128,-1,13
 1040 81 1040 81 1165 81 c 0,14,15
 1289 81 1289 81 1360.5 201 c 128,-1,16
 1432 321 1432 321 1432 529 c 0,17,18
 1429 793 1429 793 1283 1082 c 1,19,-1
 1414 1082 l 1,20,21
 1491 928 1491 928 1521 800.5 c 128,-1,22
 1551 673 1551 673 1551 531 c 0,23,24
 1551 275 1551 275 1450 127.5 c 128,-1,25
 1349 -20 1349 -20 1170 -20 c 0,26,27
 1051 -20 1051 -20 967 42 c 128,-1,28
 883 104 883 104 843 233 c 1,29,30
 765 -20 765 -20 517 -20 c 0,31,32
 337 -20 337 -20 237 128 c 128,-1,33
 137 276 137 276 137 531 c 0,34,35
 137 679 137 679 168.5 809.5 c 128,-1,36
 200 940 200 940 274 1082 c 1,37,-1
 404 1082 l 1,0,1
EndSplineSet
Substitution2: "'smcp' Lowercase to Small Capitals lookup 1 subtable" uni03A9.c2sc
EndChar

StartChar: theta1
Encoding: 977 977 207
Width: 1175
GlyphClass: 1
Flags: W
LayerCount: 2
Fore
SplineSet
1141 675 m 1,0,1
 1070 646 1070 646 976 640 c 1,2,-1
 976 419 l 2,3,4
 974 208 974 208 867.5 94 c 128,-1,5
 761 -20 761 -20 559 -20 c 0,6,7
 364 -20 364 -20 248.5 99.5 c 128,-1,8
 133 219 133 219 133 430 c 2,9,-1
 133 757 l 1,10,-1
 253 759 l 1,11,-1
 253 424 l 2,12,13
 254 261 254 261 334 172.5 c 128,-1,14
 414 84 414 84 559 84 c 0,15,16
 708 84 708 84 780.5 165 c 128,-1,17
 853 246 853 246 856 412 c 2,18,-1
 856 642 l 1,19,20
 623 663 623 663 487.5 796.5 c 128,-1,21
 352 930 352 930 352 1143 c 2,22,-1
 352 1155 l 2,23,24
 352 1304 352 1304 436.5 1396 c 128,-1,25
 521 1488 521 1488 653 1488 c 0,26,27
 805 1488 805 1488 890.5 1384 c 128,-1,28
 976 1280 976 1280 976 1089 c 2,29,-1
 976 745 l 1,30,31
 1059 751 1059 751 1131 774 c 1,32,-1
 1141 675 l 1,0,1
472 1134 m 2,33,34
 472 970 472 970 573 868 c 128,-1,35
 674 766 674 766 856 748 c 1,36,-1
 856 1105 l 1,37,38
 851 1383 851 1383 653 1383 c 0,39,40
 571 1383 571 1383 522 1324 c 128,-1,41
 473 1265 473 1265 472 1160 c 2,42,-1
 472 1134 l 2,33,34
EndSplineSet
EndChar

StartChar: Upsilon1
Encoding: 978 978 208
Width: 1098
GlyphClass: 2
Flags: W
LayerCount: 2
Fore
SplineSet
1042 1467 m 0,0,1
 1103 1467 1103 1467 1155 1440 c 1,2,-1
 1126 1345 l 1,3,4
 1102 1360 1102 1360 1058 1360 c 0,5,6
 1004 1360 1004 1360 968 1326 c 128,-1,7
 932 1292 932 1292 897 1215 c 2,8,-1
 616 594 l 1,9,-1
 616 0 l 1,10,-1
 493 0 l 1,11,-1
 493 598 l 1,12,-1
 210 1217 l 2,13,14
 174 1293 174 1293 138.5 1326.5 c 128,-1,15
 103 1360 103 1360 50 1360 c 0,16,17
 6 1360 6 1360 -18 1345 c 1,18,-1
 -47 1439 l 1,19,20
 3 1467 3 1467 65 1467 c 0,21,22
 154 1467 154 1467 210 1420 c 128,-1,23
 266 1373 266 1373 313 1269 c 2,24,-1
 532 775 l 1,25,-1
 554 701 l 1,26,-1
 578 778 l 1,27,-1
 796 1268 l 2,28,29
 846 1377 846 1377 901.5 1422 c 128,-1,30
 957 1467 957 1467 1042 1467 c 0,0,1
EndSplineSet
EndChar

StartChar: omega1
Encoding: 982 982 209
Width: 1610
GlyphClass: 2
Flags: W
LayerCount: 2
Fore
SplineSet
1573 979 m 1,0,-1
 1407 979 l 1,1,2
 1495 774 1495 774 1495 531 c 0,3,4
 1495 277 1495 277 1399.5 128.5 c 128,-1,5
 1304 -20 1304 -20 1133 -20 c 0,6,7
 886 -20 886 -20 806 232 c 1,8,9
 727 -20 727 -20 481 -20 c 0,10,11
 310 -20 310 -20 214.5 128.5 c 128,-1,12
 119 277 119 277 119 531 c 0,13,14
 119 772 119 772 207 979 c 1,15,-1
 56 979 l 1,16,-1
 56 1082 l 1,17,-1
 1573 1082 l 1,18,-1
 1573 979 l 1,0,-1
1376 529 m 0,19,20
 1372 751 1372 751 1275 979 c 1,21,-1
 338 979 l 1,22,23
 240 749 240 749 238 529 c 0,24,25
 238 323 238 323 304 202 c 128,-1,26
 370 81 370 81 487 81 c 0,27,28
 611 81 611 81 677.5 180 c 128,-1,29
 744 279 744 279 746 466 c 2,30,-1
 746 747 l 1,31,-1
 867 747 l 1,32,-1
 867 467 l 2,33,34
 869 278 869 278 936 179.5 c 128,-1,35
 1003 81 1003 81 1128 81 c 0,36,37
 1244 81 1244 81 1310 202 c 128,-1,38
 1376 323 1376 323 1376 529 c 0,19,20
EndSplineSet
EndChar

StartChar: uni0402
Encoding: 1026 1026 210
Width: 1524
GlyphClass: 1
Flags: W
LayerCount: 2
Fore
SplineSet
1176 1351 m 1,0,-1
 610 1351 l 1,1,-1
 610 817 l 1,2,3
 691 848 691 848 780.5 866.5 c 128,-1,4
 870 885 870 885 940 885 c 0,5,6
 1177 885 1177 885 1308 767 c 128,-1,7
 1439 649 1439 649 1439 423 c 0,8,9
 1439 297 1439 297 1381.5 197.5 c 128,-1,10
 1324 98 1324 98 1216 43.5 c 128,-1,11
 1108 -11 1108 -11 960 -11 c 1,12,-1
 959 88 l 1,13,14
 1127 88 1127 88 1221.5 179 c 128,-1,15
 1316 270 1316 270 1316 423 c 0,16,17
 1316 594 1316 594 1219 685.5 c 128,-1,18
 1122 777 1122 777 939 777 c 0,19,20
 775 777 775 777 610 710 c 1,21,-1
 610 0 l 1,22,-1
 486 0 l 1,23,-1
 486 1351 l 1,24,-1
 54 1351 l 1,25,-1
 54 1456 l 1,26,-1
 1176 1456 l 1,27,-1
 1176 1351 l 1,0,-1
EndSplineSet
Substitution2: "'c2sc' Capitals to Small Capitals lookup 0 subtable" uni0402.c2sc
Position2: "'cpsp' Capital Spacing lookup 0 subtable" dx=36 dy=0 dh=72 dv=0
EndChar

StartChar: uni0404
Encoding: 1028 1028 211
Width: 1352
GlyphClass: 2
Flags: W
LayerCount: 2
Fore
SplineSet
1217 454 m 1,0,1
 1192 224 1192 224 1052.5 102 c 128,-1,2
 913 -20 913 -20 681 -20 c 0,3,4
 519 -20 519 -20 394.5 61 c 128,-1,5
 270 142 270 142 202 290.5 c 128,-1,6
 134 439 134 439 133 630 c 2,7,-1
 133 818 l 2,8,9
 133 1012 133 1012 201 1162 c 128,-1,10
 269 1312 269 1312 396 1394 c 128,-1,11
 523 1476 523 1476 690 1476 c 0,12,13
 924 1476 924 1476 1059.5 1349.5 c 128,-1,14
 1195 1223 1195 1223 1217 1000 c 1,15,-1
 1094 1000 l 1,16,17
 1048 1371 1048 1371 690 1371 c 0,18,19
 494 1371 494 1371 377.5 1226 c 128,-1,20
 261 1081 261 1081 257 835 c 1,21,-1
 257 789 l 1,22,-1
 864 789 l 1,23,-1
 864 685 l 1,24,-1
 257 685 l 1,25,-1
 257 636 l 2,26,27
 257 384 257 384 371.5 234 c 128,-1,28
 486 84 486 84 681 84 c 0,29,30
 874 84 874 84 972 176.5 c 128,-1,31
 1070 269 1070 269 1093 454 c 1,32,-1
 1217 454 l 1,0,1
EndSplineSet
Substitution2: "'c2sc' Capitals to Small Capitals lookup 0 subtable" uni0404.c2sc
Position2: "'cpsp' Capital Spacing lookup 0 subtable" dx=36 dy=0 dh=72 dv=0
EndChar

StartChar: uni0409
Encoding: 1033 1033 212
Width: 2161
GlyphClass: 1
Flags: W
LayerCount: 2
Fore
SplineSet
1207 1456 m 1,0,-1
 1207 848 l 1,1,-1
 1576 848 l 2,2,3
 1720 847 1720 847 1828 794.5 c 128,-1,4
 1936 742 1936 742 1993 646 c 128,-1,5
 2050 550 2050 550 2050 424 c 0,6,7
 2050 229 2050 229 1920 114.5 c 128,-1,8
 1790 0 1790 0 1564 0 c 2,9,-1
 1084 0 l 1,10,-1
 1084 1351 l 1,11,-1
 524 1351 l 1,12,-1
 490 749 l 2,13,14
 470 426 470 426 428.5 279.5 c 128,-1,15
 387 133 387 133 310.5 67.5 c 128,-1,16
 234 2 234 2 103 0 c 2,17,-1
 51 0 l 1,18,-1
 51 104 l 1,19,-1
 91 105 l 2,20,21
 194 110 194 110 246 170 c 128,-1,22
 298 230 298 230 326.5 364.5 c 128,-1,23
 355 499 355 499 371 780 c 2,24,-1
 407 1456 l 1,25,-1
 1207 1456 l 1,0,-1
1207 744 m 1,26,-1
 1207 104 l 1,27,-1
 1567 104 l 2,28,29
 1735 104 1735 104 1831 192 c 128,-1,30
 1927 280 1927 280 1927 426 c 0,31,32
 1927 566 1927 566 1834 653.5 c 128,-1,33
 1741 741 1741 741 1580 744 c 2,34,-1
 1207 744 l 1,26,-1
EndSplineSet
Substitution2: "'c2sc' Capitals to Small Capitals lookup 0 subtable" uni0409.c2sc
Position2: "'cpsp' Capital Spacing lookup 0 subtable" dx=36 dy=0 dh=72 dv=0
EndChar

StartChar: uni040A
Encoding: 1034 1034 213
Width: 2210
GlyphClass: 1
Flags: W
LayerCount: 2
Fore
SplineSet
309 785 m 1,0,-1
 1133 785 l 1,1,-1
 1133 1456 l 1,2,-1
 1256 1456 l 1,3,-1
 1256 827 l 1,4,-1
 1618 827 l 2,5,6
 1765 827 1765 827 1874 777 c 128,-1,7
 1983 727 1983 727 2041 634 c 128,-1,8
 2099 541 2099 541 2099 416 c 0,9,10
 2099 226 2099 226 1970 113.5 c 128,-1,11
 1841 1 1841 1 1619 0 c 2,12,-1
 1133 0 l 1,13,-1
 1133 681 l 1,14,-1
 309 681 l 1,15,-1
 309 0 l 1,16,-1
 186 0 l 1,17,-1
 186 1456 l 1,18,-1
 309 1456 l 1,19,-1
 309 785 l 1,0,-1
1256 723 m 1,20,-1
 1256 108 l 1,21,-1
 1616 108 l 2,22,23
 1785 108 1785 108 1880.5 192 c 128,-1,24
 1976 276 1976 276 1976 418 c 0,25,26
 1976 554 1976 554 1882.5 637.5 c 128,-1,27
 1789 721 1789 721 1625 723 c 2,28,-1
 1256 723 l 1,20,-1
EndSplineSet
Substitution2: "'c2sc' Capitals to Small Capitals lookup 0 subtable" uni040A.c2sc
Position2: "'cpsp' Capital Spacing lookup 0 subtable" dx=36 dy=0 dh=72 dv=0
EndChar

StartChar: uni040B
Encoding: 1035 1035 214
Width: 1647
GlyphClass: 1
Flags: W
LayerCount: 2
Fore
SplineSet
1175 1351 m 1,0,-1
 616 1351 l 1,1,-1
 616 810 l 1,2,3
 804 861 804 861 988 861 c 0,4,5
 1238 861 1238 861 1355 752.5 c 128,-1,6
 1472 644 1472 644 1475 424 c 2,7,-1
 1475 0 l 1,8,-1
 1351 0 l 1,9,-1
 1351 418 l 2,10,11
 1350 592 1350 592 1264.5 674 c 128,-1,12
 1179 756 1179 756 988 756 c 0,13,14
 805 756 805 756 616 704 c 1,15,-1
 616 0 l 1,16,-1
 493 0 l 1,17,-1
 493 1351 l 1,18,-1
 54 1351 l 1,19,-1
 54 1456 l 1,20,-1
 1175 1456 l 1,21,-1
 1175 1351 l 1,0,-1
EndSplineSet
Substitution2: "'c2sc' Capitals to Small Capitals lookup 0 subtable" uni040B.c2sc
Position2: "'cpsp' Capital Spacing lookup 0 subtable" dx=36 dy=0 dh=72 dv=0
EndChar

StartChar: uni040F
Encoding: 1039 1039 215
Width: 1444
GlyphClass: 1
Flags: W
LayerCount: 2
Fore
SplineSet
185 1456 m 1,0,-1
 309 1456 l 1,1,-1
 309 104 l 1,2,-1
 1133 104 l 1,3,-1
 1133 1456 l 1,4,-1
 1256 1456 l 1,5,-1
 1256 0 l 1,6,-1
 788 0 l 1,7,-1
 788 -353 l 1,8,-1
 664 -353 l 1,9,-1
 664 0 l 1,10,-1
 185 0 l 1,11,-1
 185 1456 l 1,0,-1
EndSplineSet
Substitution2: "'c2sc' Capitals to Small Capitals lookup 0 subtable" uni040F.c2sc
Position2: "'cpsp' Capital Spacing lookup 0 subtable" dx=36 dy=0 dh=72 dv=0
EndChar

StartChar: uni0411
Encoding: 1041 1041 216
Width: 1285
GlyphClass: 1
Flags: W
LayerCount: 2
Fore
SplineSet
1055 1351 m 1,0,-1
 301 1351 l 1,1,-1
 301 824 l 1,2,-1
 662 824 l 2,3,4
 811 824 811 824 920 774.5 c 128,-1,5
 1029 725 1029 725 1086.5 632.5 c 128,-1,6
 1144 540 1144 540 1144 414 c 0,7,8
 1144 221 1144 221 1015 110.5 c 128,-1,9
 886 0 886 0 658 0 c 2,10,-1
 177 0 l 1,11,-1
 177 1456 l 1,12,-1
 1055 1456 l 1,13,-1
 1055 1351 l 1,0,-1
301 719 m 1,14,-1
 301 104 l 1,15,-1
 661 104 l 2,16,17
 830 104 830 104 925 187.5 c 128,-1,18
 1020 271 1020 271 1020 416 c 0,19,20
 1020 554 1020 554 928 635.5 c 128,-1,21
 836 717 836 717 670 719 c 2,22,-1
 301 719 l 1,14,-1
EndSplineSet
Substitution2: "'c2sc' Capitals to Small Capitals lookup 0 subtable" uni0411.c2sc
Position2: "'cpsp' Capital Spacing lookup 0 subtable" dx=36 dy=0 dh=72 dv=0
EndChar

StartChar: uni0414
Encoding: 1044 1044 217
Width: 1482
GlyphClass: 1
Flags: W
LayerCount: 2
Fore
SplineSet
1261 104 m 1,0,-1
 1416 104 l 1,1,-1
 1415 -353 l 1,2,-1
 1292 -353 l 1,3,-1
 1292 0 l 1,4,-1
 194 0 l 1,5,-1
 194 -353 l 1,6,-1
 71 -353 l 1,7,-1
 71 104 l 1,8,-1
 168 104 l 1,9,10
 279 220 279 220 347.5 442.5 c 128,-1,11
 416 665 416 665 430 930 c 2,12,-1
 456 1456 l 1,13,-1
 1261 1456 l 1,14,-1
 1261 104 l 1,0,-1
311 104 m 1,15,-1
 1138 104 l 1,16,-1
 1138 1351 l 1,17,-1
 574 1351 l 1,18,-1
 554 934 l 2,19,20
 541 674 541 674 477.5 455 c 128,-1,21
 414 236 414 236 311 104 c 1,15,-1
EndSplineSet
Substitution2: "'c2sc' Capitals to Small Capitals lookup 0 subtable" uni0414.c2sc
Position2: "'cpsp' Capital Spacing lookup 0 subtable" dx=36 dy=0 dh=72 dv=0
EndChar

StartChar: uni0416
Encoding: 1046 1046 218
Width: 1802
GlyphClass: 2
Flags: W
LayerCount: 2
Fore
SplineSet
1129 693 m 1,0,-1
 965 693 l 1,1,-1
 965 0 l 1,2,-1
 842 0 l 1,3,-1
 842 693 l 1,4,-1
 673 693 l 1,5,-1
 179 0 l 1,6,-1
 23 0 l 1,7,-1
 562 752 l 1,8,-1
 59 1456 l 1,9,-1
 208 1456 l 1,10,-1
 666 798 l 1,11,-1
 842 798 l 1,12,-1
 842 1456 l 1,13,-1
 965 1456 l 1,14,-1
 965 798 l 1,15,-1
 1137 798 l 1,16,-1
 1595 1456 l 1,17,-1
 1743 1456 l 1,18,-1
 1240 753 l 1,19,-1
 1780 0 l 1,20,-1
 1625 0 l 1,21,-1
 1129 693 l 1,0,-1
EndSplineSet
Substitution2: "'c2sc' Capitals to Small Capitals lookup 0 subtable" uni0416.c2sc
Position2: "'cpsp' Capital Spacing lookup 0 subtable" dx=36 dy=0 dh=72 dv=0
EndChar

StartChar: uni0417
Encoding: 1047 1047 219
Width: 1218
GlyphClass: 2
Flags: W
LayerCount: 2
Fore
SplineSet
979 1076 m 0,0,1
 979 1213 979 1213 880 1292 c 128,-1,2
 781 1371 781 1371 598 1371 c 0,3,4
 440 1371 440 1371 337 1287 c 128,-1,5
 234 1203 234 1203 234 1074 c 1,6,-1
 111 1074 l 1,7,8
 111 1190 111 1190 174 1281.5 c 128,-1,9
 237 1373 237 1373 350.5 1424.5 c 128,-1,10
 464 1476 464 1476 598 1476 c 0,11,12
 834 1476 834 1476 968 1371 c 128,-1,13
 1102 1266 1102 1266 1102 1073 c 0,14,15
 1102 962 1102 962 1031 875 c 128,-1,16
 960 788 960 788 840 746 c 1,17,18
 1124 670 1124 670 1124 395 c 0,19,20
 1124 206 1124 206 981.5 93 c 128,-1,21
 839 -20 839 -20 598 -20 c 0,22,23
 452 -20 452 -20 332 35.5 c 128,-1,24
 212 91 212 91 151 185.5 c 128,-1,25
 90 280 90 280 90 404 c 1,26,-1
 213 404 l 1,27,28
 213 264 213 264 322 173.5 c 128,-1,29
 431 83 431 83 598 83 c 0,30,31
 787 83 787 83 894 166.5 c 128,-1,32
 1001 250 1001 250 1001 391 c 0,33,34
 1001 540 1001 540 906 613.5 c 128,-1,35
 811 687 811 687 613 689 c 2,36,-1
 427 689 l 1,37,-1
 427 795 l 1,38,-1
 607 795 l 2,39,40
 789 796 789 796 884 866.5 c 128,-1,41
 979 937 979 937 979 1076 c 0,0,1
EndSplineSet
Substitution2: "'c2sc' Capitals to Small Capitals lookup 0 subtable" uni0417.c2sc
Position2: "'cpsp' Capital Spacing lookup 0 subtable" dx=36 dy=0 dh=72 dv=0
EndChar

StartChar: uni0418
Encoding: 1048 1048 220
Width: 1454
GlyphClass: 2
Flags: W
LayerCount: 2
Fore
SplineSet
1141 1456 m 1,0,-1
 1264 1456 l 1,1,-1
 1264 0 l 1,2,-1
 1141 0 l 1,3,-1
 1141 1246 l 1,4,-1
 312 0 l 1,5,-1
 188 0 l 1,6,-1
 188 1456 l 1,7,-1
 312 1456 l 1,8,-1
 312 211 l 1,9,-1
 1141 1456 l 1,0,-1
EndSplineSet
Substitution2: "'c2sc' Capitals to Small Capitals lookup 0 subtable" uni0418.c2sc
Position2: "'cpsp' Capital Spacing lookup 0 subtable" dx=36 dy=0 dh=72 dv=0
EndChar

StartChar: uni041B
Encoding: 1051 1051 221
Width: 1438
GlyphClass: 2
Flags: W
LayerCount: 2
Fore
SplineSet
1251 1456 m 1,0,-1
 1251 0 l 1,1,-1
 1128 0 l 1,2,-1
 1128 1351 l 1,3,-1
 513 1351 l 1,4,-1
 479 749 l 2,5,6
 459 426 459 426 417.5 279.5 c 128,-1,7
 376 133 376 133 299.5 67.5 c 128,-1,8
 223 2 223 2 92 0 c 2,9,-1
 40 0 l 1,10,-1
 40 104 l 1,11,-1
 80 105 l 2,12,13
 183 110 183 110 235 170 c 128,-1,14
 287 230 287 230 315.5 364.5 c 128,-1,15
 344 499 344 499 360 780 c 2,16,-1
 396 1456 l 1,17,-1
 1251 1456 l 1,0,-1
EndSplineSet
Substitution2: "'c2sc' Capitals to Small Capitals lookup 0 subtable" uni041B.c2sc
Position2: "'cpsp' Capital Spacing lookup 0 subtable" dx=36 dy=0 dh=72 dv=0
EndChar

StartChar: uni0423
Encoding: 1059 1059 222
Width: 1285
GlyphClass: 2
Flags: W
LayerCount: 2
Fore
SplineSet
670 523 m 1,0,-1
 1084 1456 l 1,1,-1
 1229 1456 l 1,2,-1
 666 237 l 1,3,-1
 630 168 l 1,4,5
 524 -21 524 -21 318 -21 c 0,6,7
 257 -21 257 -21 224 -10 c 1,8,-1
 235 90 l 1,9,10
 256 83 256 83 319 83 c 0,11,12
 443 83 443 83 518 210 c 2,13,-1
 543 255 l 1,14,-1
 606 385 l 1,15,-1
 55 1456 l 1,16,-1
 196 1456 l 1,17,-1
 670 523 l 1,0,-1
EndSplineSet
Substitution2: "'c2sc' Capitals to Small Capitals lookup 0 subtable" uni0423.c2sc
Position2: "'cpsp' Capital Spacing lookup 0 subtable" dx=36 dy=0 dh=72 dv=0
EndChar

StartChar: uni0424
Encoding: 1060 1060 223
Width: 1521
GlyphClass: 1
Flags: W
LayerCount: 2
Fore
SplineSet
822 1308 m 1,0,-1
 856 1308 l 2,1,2
 1025 1307 1025 1307 1161 1233 c 128,-1,3
 1297 1159 1297 1159 1373 1026.5 c 128,-1,4
 1449 894 1449 894 1449 732 c 0,5,6
 1449 569 1449 569 1374 437 c 128,-1,7
 1299 305 1299 305 1163.5 230 c 128,-1,8
 1028 155 1028 155 859 153 c 2,9,-1
 822 153 l 1,10,-1
 822 -60 l 1,11,-1
 702 -60 l 1,12,-1
 702 153 l 1,13,-1
 674 153 l 2,14,15
 502 153 502 153 365.5 226.5 c 128,-1,16
 229 300 229 300 152.5 433 c 128,-1,17
 76 566 76 566 76 730 c 0,18,19
 76 893 76 893 152.5 1026.5 c 128,-1,20
 229 1160 229 1160 366 1234 c 128,-1,21
 503 1308 503 1308 674 1308 c 2,22,-1
 702 1308 l 1,23,-1
 702 1516 l 1,24,-1
 822 1516 l 1,25,-1
 822 1308 l 1,0,-1
822 1206 m 1,26,-1
 822 254 l 1,27,-1
 851 254 l 2,28,29
 1069 254 1069 254 1199 385 c 128,-1,30
 1329 516 1329 516 1329 732 c 0,31,32
 1329 937 1329 937 1208 1066 c 128,-1,33
 1087 1195 1087 1195 884 1205 c 1,34,-1
 822 1206 l 1,26,-1
675 1206 m 2,35,36
 456 1206 456 1206 326 1076 c 128,-1,37
 196 946 196 946 196 730 c 0,38,39
 196 521 196 521 317 393 c 128,-1,40
 438 265 438 265 642 255 c 1,41,-1
 702 254 l 1,42,-1
 702 1206 l 1,43,-1
 675 1206 l 2,35,36
EndSplineSet
Substitution2: "'c2sc' Capitals to Small Capitals lookup 0 subtable" uni0424.c2sc
Position2: "'cpsp' Capital Spacing lookup 0 subtable" dx=36 dy=0 dh=72 dv=0
EndChar

StartChar: uni0426
Encoding: 1062 1062 224
Width: 1461
GlyphClass: 1
Flags: W
LayerCount: 2
Fore
SplineSet
179 1456 m 1,0,-1
 303 1456 l 1,1,-1
 303 104 l 1,2,-1
 1127 104 l 1,3,-1
 1127 1456 l 1,4,-1
 1250 1456 l 1,5,-1
 1250 106 l 1,6,-1
 1393 106 l 1,7,-1
 1384 -351 l 1,8,-1
 1270 -351 l 1,9,-1
 1270 0 l 1,10,-1
 179 0 l 1,11,-1
 179 1456 l 1,0,-1
EndSplineSet
Substitution2: "'c2sc' Capitals to Small Capitals lookup 0 subtable" uni0426.c2sc
Position2: "'cpsp' Capital Spacing lookup 0 subtable" dx=36 dy=0 dh=72 dv=0
EndChar

StartChar: uni0427
Encoding: 1063 1063 225
Width: 1363
GlyphClass: 2
Flags: W
LayerCount: 2
Fore
SplineSet
1177 1456 m 1,0,-1
 1177 0 l 1,1,-1
 1053 0 l 1,2,-1
 1053 662 l 1,3,4
 848 605 848 605 659 605 c 0,5,6
 411 605 411 605 293 712 c 128,-1,7
 175 819 175 819 172 1041 c 2,8,-1
 172 1456 l 1,9,-1
 296 1456 l 1,10,-1
 296 1048 l 2,11,12
 297 871 297 871 383.5 790.5 c 128,-1,13
 470 710 470 710 659 710 c 0,14,15
 850 710 850 710 1053 767 c 1,16,-1
 1053 1456 l 1,17,-1
 1177 1456 l 1,0,-1
EndSplineSet
Substitution2: "'c2sc' Capitals to Small Capitals lookup 0 subtable" uni0427.c2sc
Position2: "'cpsp' Capital Spacing lookup 0 subtable" dx=36 dy=0 dh=72 dv=0
EndChar

StartChar: uni0428
Encoding: 1064 1064 226
Width: 1896
GlyphClass: 1
Flags: W
LayerCount: 2
Fore
SplineSet
306 1456 m 1,0,-1
 306 104 l 1,1,-1
 888 104 l 1,2,-1
 888 1456 l 1,3,-1
 1011 1456 l 1,4,-1
 1011 104 l 1,5,-1
 1591 104 l 1,6,-1
 1591 1456 l 1,7,-1
 1714 1456 l 1,8,-1
 1714 0 l 1,9,-1
 182 0 l 1,10,-1
 182 1456 l 1,11,-1
 306 1456 l 1,0,-1
EndSplineSet
Substitution2: "'c2sc' Capitals to Small Capitals lookup 0 subtable" uni0428.c2sc
Position2: "'cpsp' Capital Spacing lookup 0 subtable" dx=36 dy=0 dh=72 dv=0
EndChar

StartChar: uni0429
Encoding: 1065 1065 227
Width: 1930
GlyphClass: 1
Flags: W
LayerCount: 2
Fore
SplineSet
306 1456 m 1,0,-1
 306 104 l 1,1,-1
 888 104 l 1,2,-1
 888 1456 l 1,3,-1
 1011 1456 l 1,4,-1
 1011 104 l 1,5,-1
 1591 104 l 1,6,-1
 1591 1456 l 1,7,-1
 1714 1456 l 1,8,-1
 1714 101 l 1,9,-1
 1852 101 l 1,10,-1
 1843 -351 l 1,11,-1
 1734 -351 l 1,12,-1
 1734 0 l 1,13,-1
 182 0 l 1,14,-1
 182 1456 l 1,15,-1
 306 1456 l 1,0,-1
EndSplineSet
Substitution2: "'c2sc' Capitals to Small Capitals lookup 0 subtable" uni0429.c2sc
Position2: "'cpsp' Capital Spacing lookup 0 subtable" dx=36 dy=0 dh=72 dv=0
EndChar

StartChar: uni042A
Encoding: 1066 1066 228
Width: 1585
GlyphClass: 1
Flags: W
LayerCount: 2
Fore
SplineSet
-10 1456 m 1,0,-1
 601 1456 l 1,1,-1
 601 824 l 1,2,-1
 962 824 l 2,3,4
 1111 824 1111 824 1220 774.5 c 128,-1,5
 1329 725 1329 725 1386.5 632.5 c 128,-1,6
 1444 540 1444 540 1444 414 c 0,7,8
 1444 221 1444 221 1315 110.5 c 128,-1,9
 1186 0 1186 0 958 0 c 2,10,-1
 478 0 l 1,11,-1
 478 1354 l 1,12,-1
 -10 1354 l 1,13,-1
 -10 1456 l 1,0,-1
601 719 m 1,14,-1
 601 104 l 1,15,-1
 961 104 l 2,16,17
 1130 104 1130 104 1225 187.5 c 128,-1,18
 1320 271 1320 271 1320 416 c 0,19,20
 1320 554 1320 554 1228 635.5 c 128,-1,21
 1136 717 1136 717 970 719 c 2,22,-1
 601 719 l 1,14,-1
EndSplineSet
Substitution2: "'c2sc' Capitals to Small Capitals lookup 0 subtable" uni042A.c2sc
Position2: "'cpsp' Capital Spacing lookup 0 subtable" dx=36 dy=0 dh=72 dv=0
EndChar

StartChar: uni042B
Encoding: 1067 1067 229
Width: 1710
GlyphClass: 2
Flags: W
LayerCount: 2
Fore
SplineSet
309 824 m 1,0,-1
 670 824 l 2,1,2
 819 824 819 824 928 774.5 c 128,-1,3
 1037 725 1037 725 1094.5 632.5 c 128,-1,4
 1152 540 1152 540 1152 414 c 0,5,6
 1152 221 1152 221 1023 110.5 c 128,-1,7
 894 0 894 0 666 0 c 2,8,-1
 186 0 l 1,9,-1
 186 1456 l 1,10,-1
 309 1456 l 1,11,-1
 309 824 l 1,0,-1
309 719 m 1,12,-1
 309 104 l 1,13,-1
 669 104 l 2,14,15
 838 104 838 104 933 187.5 c 128,-1,16
 1028 271 1028 271 1028 416 c 0,17,18
 1028 554 1028 554 936 635.5 c 128,-1,19
 844 717 844 717 678 719 c 2,20,-1
 309 719 l 1,12,-1
1515 0 m 1,21,-1
 1392 0 l 1,22,-1
 1392 1456 l 1,23,-1
 1515 1456 l 1,24,-1
 1515 0 l 1,21,-1
EndSplineSet
Substitution2: "'c2sc' Capitals to Small Capitals lookup 0 subtable" uni042B.c2sc
Position2: "'cpsp' Capital Spacing lookup 0 subtable" dx=36 dy=0 dh=72 dv=0
EndChar

StartChar: uni042C
Encoding: 1068 1068 230
Width: 1254
GlyphClass: 1
Flags: W
LayerCount: 2
Fore
SplineSet
301 824 m 1,0,-1
 662 824 l 2,1,2
 811 824 811 824 920 774.5 c 128,-1,3
 1029 725 1029 725 1086.5 632.5 c 128,-1,4
 1144 540 1144 540 1144 414 c 0,5,6
 1144 221 1144 221 1015 110.5 c 128,-1,7
 886 0 886 0 658 0 c 2,8,-1
 178 0 l 1,9,-1
 178 1456 l 1,10,-1
 301 1456 l 1,11,-1
 301 824 l 1,0,-1
301 719 m 1,12,-1
 301 104 l 1,13,-1
 661 104 l 2,14,15
 830 104 830 104 925 187.5 c 128,-1,16
 1020 271 1020 271 1020 416 c 0,17,18
 1020 554 1020 554 928 635.5 c 128,-1,19
 836 717 836 717 670 719 c 2,20,-1
 301 719 l 1,12,-1
EndSplineSet
Substitution2: "'c2sc' Capitals to Small Capitals lookup 0 subtable" uni042C.c2sc
Position2: "'cpsp' Capital Spacing lookup 0 subtable" dx=36 dy=0 dh=72 dv=0
EndChar

StartChar: uni042D
Encoding: 1069 1069 231
Width: 1352
GlyphClass: 2
Flags: W
LayerCount: 2
Fore
SplineSet
264 454 m 1,0,1
 289 263 289 263 388 173.5 c 128,-1,2
 487 84 487 84 676 84 c 0,3,4
 873 84 873 84 987 236 c 128,-1,5
 1101 388 1101 388 1101 643 c 2,6,-1
 1101 679 l 1,7,-1
 493 679 l 1,8,-1
 493 784 l 1,9,-1
 1101 784 l 1,10,-1
 1101 820 l 2,11,12
 1101 1073 1101 1073 984 1222 c 128,-1,13
 867 1371 867 1371 668 1371 c 0,14,15
 310 1371 310 1371 264 1000 c 1,16,-1
 141 1000 l 1,17,18
 163 1226 163 1226 300 1351 c 128,-1,19
 437 1476 437 1476 668 1476 c 0,20,21
 919 1476 919 1476 1071.5 1296.5 c 128,-1,22
 1224 1117 1224 1117 1224 810 c 2,23,-1
 1224 636 l 2,24,25
 1224 442 1224 442 1155.5 291.5 c 128,-1,26
 1087 141 1087 141 962.5 60.5 c 128,-1,27
 838 -20 838 -20 676 -20 c 0,28,29
 442 -20 442 -20 303 103 c 128,-1,30
 164 226 164 226 141 454 c 1,31,-1
 264 454 l 1,0,1
EndSplineSet
Substitution2: "'c2sc' Capitals to Small Capitals lookup 0 subtable" uni042D.c2sc
Position2: "'cpsp' Capital Spacing lookup 0 subtable" dx=36 dy=0 dh=72 dv=0
EndChar

StartChar: uni042E
Encoding: 1070 1070 232
Width: 1864
GlyphClass: 2
Flags: W
LayerCount: 2
Fore
SplineSet
1735 649 m 2,0,1
 1735 448 1735 448 1665.5 296 c 128,-1,2
 1596 144 1596 144 1467 62 c 128,-1,3
 1338 -20 1338 -20 1169 -20 c 0,4,5
 914 -20 914 -20 757 162.5 c 128,-1,6
 600 345 600 345 600 655 c 2,7,-1
 600 686 l 1,8,-1
 332 686 l 1,9,-1
 332 0 l 1,10,-1
 209 0 l 1,11,-1
 209 1456 l 1,12,-1
 332 1456 l 1,13,-1
 332 787 l 1,14,-1
 600 787 l 1,15,16
 600 1005 600 1005 670.5 1158 c 128,-1,17
 741 1311 741 1311 870 1393.5 c 128,-1,18
 999 1476 999 1476 1167 1476 c 128,-1,19
 1335 1476 1335 1476 1463.5 1395 c 128,-1,20
 1592 1314 1592 1314 1662 1166 c 128,-1,21
 1732 1018 1732 1018 1735 823 c 2,22,-1
 1735 649 l 2,0,1
1612 807 m 2,23,24
 1612 1070 1612 1070 1493 1219 c 128,-1,25
 1374 1368 1374 1368 1167 1368 c 0,26,27
 964 1368 964 1368 843.5 1218.5 c 128,-1,28
 723 1069 723 1069 723 801 c 2,29,-1
 723 649 l 2,30,31
 723 390 723 390 843 238.5 c 128,-1,32
 963 87 963 87 1169 87 c 0,33,34
 1378 87 1378 87 1495 236.5 c 128,-1,35
 1612 386 1612 386 1612 653 c 2,36,-1
 1612 807 l 2,23,24
EndSplineSet
Substitution2: "'c2sc' Capitals to Small Capitals lookup 0 subtable" uni042E.c2sc
Position2: "'cpsp' Capital Spacing lookup 0 subtable" dx=36 dy=0 dh=72 dv=0
EndChar

StartChar: uni042F
Encoding: 1071 1071 233
Width: 1252
GlyphClass: 2
Flags: W
LayerCount: 2
Fore
SplineSet
962 0 m 1,0,-1
 962 593 l 1,1,-1
 543 593 l 1,2,-1
 225 0 l 1,3,-1
 92 0 l 1,4,-1
 435 627 l 1,5,6
 294 676 294 676 220 775 c 128,-1,7
 146 874 146 874 146 1017 c 0,8,9
 146 1223 146 1223 276.5 1339.5 c 128,-1,10
 407 1456 407 1456 644 1456 c 2,11,-1
 1086 1456 l 1,12,-1
 1086 0 l 1,13,-1
 962 0 l 1,0,-1
269 1018 m 0,14,15
 269 874 269 874 359.5 786 c 128,-1,16
 450 698 450 698 609 698 c 2,17,-1
 962 698 l 1,18,-1
 962 1351 l 1,19,-1
 640 1351 l 2,20,21
 462 1351 462 1351 365.5 1264.5 c 128,-1,22
 269 1178 269 1178 269 1018 c 0,14,15
EndSplineSet
Substitution2: "'c2sc' Capitals to Small Capitals lookup 0 subtable" uni042F.c2sc
Position2: "'cpsp' Capital Spacing lookup 0 subtable" dx=36 dy=0 dh=72 dv=0
EndChar

StartChar: uni0431
Encoding: 1073 1073 234
Width: 1127
GlyphClass: 1
Flags: W
LayerCount: 2
Fore
SplineSet
592 1010 m 0,0,1
 798 1010 798 1010 926 875.5 c 128,-1,2
 1054 741 1054 741 1054 519 c 2,3,-1
 1054 493 l 2,4,5
 1054 346 1054 346 995.5 228.5 c 128,-1,6
 937 111 937 111 827.5 45.5 c 128,-1,7
 718 -20 718 -20 576 -20 c 0,8,9
 362 -20 362 -20 229.5 122.5 c 128,-1,10
 97 265 97 265 97 503 c 2,11,-1
 97 599 l 2,12,13
 97 935 97 935 225 1136 c 128,-1,14
 353 1337 353 1337 589 1376 c 0,15,16
 738 1400 738 1400 798.5 1441 c 128,-1,17
 859 1482 859 1482 859 1553 c 1,18,-1
 962 1553 l 1,19,20
 962 1469 962 1469 927 1414 c 128,-1,21
 892 1359 892 1359 822 1325.5 c 128,-1,22
 752 1292 752 1292 608 1269 c 0,23,24
 443 1243 443 1243 342.5 1128.5 c 128,-1,25
 242 1014 242 1014 212 822 c 1,26,27
 276 906 276 906 372.5 958 c 128,-1,28
 469 1010 469 1010 592 1010 c 0,0,1
217 518 m 2,29,-1
 217 493 l 2,30,31
 217 310 217 310 316 195.5 c 128,-1,32
 415 81 415 81 576 81 c 0,33,34
 738 81 738 81 836 196.5 c 128,-1,35
 934 312 934 312 934 500 c 2,36,-1
 934 526 l 2,37,38
 934 695 934 695 834.5 802 c 128,-1,39
 735 909 735 909 574 909 c 128,-1,40
 413 909 413 909 315 800.5 c 128,-1,41
 217 692 217 692 217 518 c 2,29,-1
EndSplineSet
Substitution2: "'smcp' Lowercase to Small Capitals lookup 1 subtable" uni0411.c2sc
EndChar

StartChar: uni0432
Encoding: 1074 1074 235
Width: 1145
GlyphClass: 2
Flags: W
LayerCount: 2
Fore
SplineSet
169 0 m 1,0,-1
 169 1082 l 1,1,-1
 566 1082 l 2,2,3
 772 1082 772 1082 882 1008.5 c 128,-1,4
 992 935 992 935 992 793 c 0,5,6
 992 712 992 712 943 648.5 c 128,-1,7
 894 585 894 585 800 556 c 1,8,9
 906 536 906 536 970.5 465 c 128,-1,10
 1035 394 1035 394 1035 300 c 0,11,12
 1035 157 1035 157 929.5 78.5 c 128,-1,13
 824 0 824 0 631 0 c 2,14,-1
 169 0 l 1,0,-1
288 498 m 1,15,-1
 288 100 l 1,16,-1
 635 100 l 2,17,18
 770 100 770 100 843 152 c 128,-1,19
 916 204 916 204 916 302 c 0,20,21
 916 392 916 392 843 445 c 128,-1,22
 770 498 770 498 635 498 c 2,23,-1
 288 498 l 1,15,-1
288 598 m 1,24,-1
 591 598 l 1,25,26
 873 602 873 602 873 790 c 0,27,28
 873 889 873 889 795.5 934.5 c 128,-1,29
 718 980 718 980 566 980 c 2,30,-1
 288 980 l 1,31,-1
 288 598 l 1,24,-1
EndSplineSet
Substitution2: "'smcp' Lowercase to Small Capitals lookup 1 subtable" uni0412.c2sc
EndChar

StartChar: uni0433
Encoding: 1075 1075 236
Width: 863
GlyphClass: 2
Flags: W
LayerCount: 2
Fore
SplineSet
830 979 m 1,0,-1
 283 979 l 1,1,-1
 283 0 l 1,2,-1
 163 0 l 1,3,-1
 163 1082 l 1,4,-1
 830 1082 l 1,5,-1
 830 979 l 1,0,-1
EndSplineSet
Substitution2: "'smcp' Lowercase to Small Capitals lookup 1 subtable" uni0413.c2sc
EndChar

StartChar: uni0434
Encoding: 1076 1076 237
Width: 1174
GlyphClass: 2
Flags: W
LayerCount: 2
Fore
SplineSet
131 101 m 1,0,-1
 184 170 l 1,1,2
 310 341 310 341 329 670 c 2,3,-1
 348 1082 l 1,4,-1
 987 1082 l 1,5,-1
 987 101 l 1,6,-1
 1099 101 l 1,7,-1
 1099 -318 l 1,8,-1
 980 -318 l 1,9,-1
 980 0 l 1,10,-1
 167 0 l 1,11,-1
 167 -318 l 1,12,-1
 52 -318 l 1,13,-1
 53 101 l 1,14,-1
 131 101 l 1,0,-1
269 101 m 1,15,-1
 867 101 l 1,16,-1
 867 970 l 1,17,-1
 462 970 l 1,18,-1
 449 689 l 2,19,20
 431 302 431 302 269 101 c 1,15,-1
EndSplineSet
Substitution2: "'smcp' Lowercase to Small Capitals lookup 1 subtable" uni0414.c2sc
EndChar

StartChar: uni0436
Encoding: 1078 1078 238
Width: 1571
GlyphClass: 2
Flags: W
LayerCount: 2
Fore
SplineSet
983 500 m 1,0,-1
 839 500 l 1,1,-1
 839 0 l 1,2,-1
 719 0 l 1,3,-1
 719 500 l 1,4,-1
 576 500 l 1,5,-1
 176 0 l 1,6,-1
 24 0 l 1,7,-1
 472 555 l 1,8,-1
 74 1082 l 1,9,-1
 219 1082 l 1,10,-1
 574 607 l 1,11,-1
 719 607 l 1,12,-1
 719 1082 l 1,13,-1
 839 1082 l 1,14,-1
 839 607 l 1,15,-1
 985 607 l 1,16,-1
 1340 1082 l 1,17,-1
 1487 1082 l 1,18,-1
 1087 555 l 1,19,-1
 1536 0 l 1,20,-1
 1383 0 l 1,21,-1
 983 500 l 1,0,-1
EndSplineSet
Substitution2: "'smcp' Lowercase to Small Capitals lookup 1 subtable" uni0416.c2sc
EndChar

StartChar: uni0437
Encoding: 1079 1079 239
Width: 1037
GlyphClass: 2
Flags: W
LayerCount: 2
Fore
SplineSet
790 796 m 0,0,1
 790 894 790 894 717 947 c 128,-1,2
 644 1000 644 1000 516 1000 c 0,3,4
 400 1000 400 1000 317.5 940.5 c 128,-1,5
 235 881 235 881 235 790 c 1,6,-1
 116 790 l 1,7,8
 116 925 116 925 231.5 1013 c 128,-1,9
 347 1101 347 1101 516 1101 c 0,10,11
 702 1101 702 1101 806 1021 c 128,-1,12
 910 941 910 941 910 794 c 0,13,14
 910 716 910 716 862 653 c 128,-1,15
 814 590 814 590 722 555 c 1,16,17
 930 498 930 498 930 297 c 0,18,19
 930 151 930 151 817 66 c 128,-1,20
 704 -19 704 -19 517 -19 c 0,21,22
 336 -19 336 -19 217 72 c 128,-1,23
 98 163 98 163 98 310 c 1,24,-1
 218 310 l 1,25,26
 218 212 218 212 304.5 146.5 c 128,-1,27
 391 81 391 81 517 81 c 0,28,29
 654 81 654 81 731.5 138.5 c 128,-1,30
 809 196 809 196 809 295 c 0,31,32
 809 404 809 404 738 452 c 128,-1,33
 667 500 667 500 521 500 c 2,34,-1
 356 500 l 1,35,-1
 356 604 l 1,36,-1
 541 604 l 1,37,38
 790 610 790 610 790 796 c 0,0,1
EndSplineSet
Substitution2: "'smcp' Lowercase to Small Capitals lookup 1 subtable" uni0417.c2sc
EndChar

StartChar: uni0438
Encoding: 1080 1080 240
Width: 1151
GlyphClass: 2
Flags: W
LayerCount: 2
Fore
SplineSet
867 1082 m 1,0,-1
 987 1082 l 1,1,-1
 987 0 l 1,2,-1
 867 0 l 1,3,-1
 867 889 l 1,4,-1
 283 0 l 1,5,-1
 164 0 l 1,6,-1
 164 1082 l 1,7,-1
 283 1082 l 1,8,-1
 283 192 l 1,9,-1
 867 1082 l 1,0,-1
EndSplineSet
Substitution2: "'smcp' Lowercase to Small Capitals lookup 1 subtable" uni0418.c2sc
EndChar

StartChar: uni043A
Encoding: 1082 1082 241
Width: 1061
GlyphClass: 2
Flags: W
LayerCount: 2
Fore
SplineSet
450 496 m 1,0,-1
 284 496 l 1,1,-1
 284 0 l 1,2,-1
 163 0 l 1,3,-1
 163 1082 l 1,4,-1
 284 1082 l 1,5,-1
 284 602 l 1,6,-1
 448 602 l 1,7,-1
 845 1082 l 1,8,-1
 996 1082 l 1,9,-1
 552 557 l 1,10,-1
 1045 0 l 1,11,-1
 887 0 l 1,12,-1
 450 496 l 1,0,-1
EndSplineSet
Substitution2: "'smcp' Lowercase to Small Capitals lookup 1 subtable" uni041A.c2sc
EndChar

StartChar: uni043B
Encoding: 1083 1083 242
Width: 1153
GlyphClass: 2
Flags: W
LayerCount: 2
Fore
SplineSet
988 1082 m 1,0,-1
 988 0 l 1,1,-1
 868 0 l 1,2,-1
 868 979 l 1,3,-1
 425 979 l 1,4,-1
 406 574 l 2,5,6
 394 349 394 349 361 230.5 c 128,-1,7
 328 112 328 112 263 56 c 128,-1,8
 198 0 198 0 90 0 c 2,9,-1
 44 0 l 1,10,-1
 44 106 l 1,11,-1
 81 108 l 2,12,13
 184 110 184 110 229 208 c 128,-1,14
 274 306 274 306 288 558 c 2,15,-1
 310 1082 l 1,16,-1
 988 1082 l 1,0,-1
EndSplineSet
Substitution2: "'smcp' Lowercase to Small Capitals lookup 1 subtable" uni041B.c2sc
EndChar

StartChar: uni043C
Encoding: 1084 1084 243
Width: 1497
GlyphClass: 2
Flags: W
LayerCount: 2
Fore
SplineSet
755 162 m 1,0,-1
 1185 1082 l 1,1,-1
 1333 1082 l 1,2,-1
 1333 0 l 1,3,-1
 1213 0 l 1,4,-1
 1213 888 l 1,5,-1
 797 0 l 1,6,-1
 712 0 l 1,7,-1
 288 908 l 1,8,-1
 288 0 l 1,9,-1
 169 0 l 1,10,-1
 169 1082 l 1,11,-1
 326 1082 l 1,12,-1
 755 162 l 1,0,-1
EndSplineSet
Substitution2: "'smcp' Lowercase to Small Capitals lookup 1 subtable" uni041C.c2sc
EndChar

StartChar: uni043D
Encoding: 1085 1085 244
Width: 1151
GlyphClass: 2
Flags: W
LayerCount: 2
Fore
SplineSet
987 0 m 1,0,-1
 867 0 l 1,1,-1
 867 496 l 1,2,-1
 284 496 l 1,3,-1
 284 0 l 1,4,-1
 164 0 l 1,5,-1
 164 1082 l 1,6,-1
 284 1082 l 1,7,-1
 284 597 l 1,8,-1
 867 597 l 1,9,-1
 867 1082 l 1,10,-1
 987 1082 l 1,11,-1
 987 0 l 1,0,-1
EndSplineSet
Substitution2: "'smcp' Lowercase to Small Capitals lookup 1 subtable" uni041D.c2sc
EndChar

StartChar: uni043F
Encoding: 1087 1087 245
Width: 1151
GlyphClass: 2
Flags: W
LayerCount: 2
Fore
SplineSet
987 0 m 1,0,-1
 867 0 l 1,1,-1
 867 979 l 1,2,-1
 284 979 l 1,3,-1
 284 0 l 1,4,-1
 164 0 l 1,5,-1
 164 1082 l 1,6,-1
 987 1082 l 1,7,-1
 987 0 l 1,0,-1
EndSplineSet
Substitution2: "'smcp' Lowercase to Small Capitals lookup 1 subtable" uni041F.c2sc
EndChar

StartChar: uni0442
Encoding: 1090 1090 246
Width: 973
GlyphClass: 2
Flags: W
LayerCount: 2
Fore
SplineSet
933 980 m 1,0,-1
 539 980 l 1,1,-1
 539 0 l 1,2,-1
 419 0 l 1,3,-1
 419 980 l 1,4,-1
 40 980 l 1,5,-1
 40 1082 l 1,6,-1
 933 1082 l 1,7,-1
 933 980 l 1,0,-1
EndSplineSet
Substitution2: "'smcp' Lowercase to Small Capitals lookup 1 subtable" uni0422.c2sc
EndChar

StartChar: uni0444
Encoding: 1092 1092 247
Width: 1484
GlyphClass: 2
Flags: W
LayerCount: 2
Fore
SplineSet
111 532 m 1,0,1
 111 796 111 796 214.5 949 c 128,-1,2
 318 1102 318 1102 501 1102 c 0,3,4
 606 1102 606 1102 679 1055 c 1,5,-1
 679 1536 l 1,6,-1
 798 1536 l 1,7,-1
 798 1051 l 1,8,9
 872 1102 872 1102 982 1102 c 0,10,11
 1155 1102 1155 1102 1259 963 c 128,-1,12
 1363 824 1363 824 1372 576 c 1,13,-1
 1373 511 l 2,14,15
 1373 264 1373 264 1269 121.5 c 128,-1,16
 1165 -21 1165 -21 984 -21 c 0,17,18
 876 -21 876 -21 798 26 c 1,19,-1
 798 -416 l 1,20,-1
 679 -416 l 1,21,-1
 679 25 l 1,22,23
 602 -21 602 -21 499 -21 c 0,24,25
 328 -21 328 -21 225 108.5 c 128,-1,26
 122 238 122 238 112 467 c 1,27,-1
 111 532 l 1,0,1
1254 532 m 0,28,29
 1254 750 1254 750 1175.5 875 c 128,-1,30
 1097 1000 1097 1000 956 1000 c 0,31,32
 854 1000 854 1000 798 956 c 1,33,-1
 798 119 l 1,34,35
 861 80 861 80 958 80 c 0,36,37
 1098 80 1098 80 1176 192.5 c 128,-1,38
 1254 305 1254 305 1254 532 c 0,28,29
231 511 m 0,39,40
 231 307 231 307 306 193.5 c 128,-1,41
 381 80 381 80 522 80 c 0,42,43
 616 80 616 80 679 121 c 1,44,-1
 679 959 l 1,45,46
 621 1000 621 1000 524 1000 c 0,47,48
 384 1000 384 1000 307.5 875.5 c 128,-1,49
 231 751 231 751 231 511 c 0,39,40
EndSplineSet
Substitution2: "'smcp' Lowercase to Small Capitals lookup 1 subtable" uni0424.c2sc
EndChar

StartChar: uni0446
Encoding: 1094 1094 248
Width: 1166
GlyphClass: 2
Flags: W
LayerCount: 2
Fore
SplineSet
164 1082 m 1,0,-1
 284 1082 l 1,1,-1
 284 101 l 1,2,-1
 867 101 l 1,3,-1
 867 1082 l 1,4,-1
 987 1082 l 1,5,-1
 987 101 l 1,6,-1
 1097 101 l 1,7,-1
 1088 -321 l 1,8,-1
 978 -321 l 1,9,-1
 978 0 l 1,10,-1
 164 0 l 1,11,-1
 164 1082 l 1,0,-1
EndSplineSet
Substitution2: "'smcp' Lowercase to Small Capitals lookup 1 subtable" uni0426.c2sc
EndChar

StartChar: uni0447
Encoding: 1095 1095 249
Width: 1090
GlyphClass: 2
Flags: W
LayerCount: 2
Fore
SplineSet
926 0 m 1,0,-1
 806 0 l 1,1,-1
 806 455 l 1,2,3
 658 401 658 401 523 401 c 0,4,5
 308 401 308 401 211 495.5 c 128,-1,6
 114 590 114 590 110 790 c 1,7,-1
 110 1082 l 1,8,-1
 229 1082 l 1,9,-1
 229 796 l 2,10,11
 231 641 231 641 297.5 572.5 c 128,-1,12
 364 504 364 504 523 504 c 1,13,14
 668 508 668 508 806 556 c 1,15,-1
 806 1082 l 1,16,-1
 926 1082 l 1,17,-1
 926 0 l 1,0,-1
EndSplineSet
Substitution2: "'smcp' Lowercase to Small Capitals lookup 1 subtable" uni0427.c2sc
EndChar

StartChar: uni0448
Encoding: 1096 1096 250
Width: 1625
GlyphClass: 2
Flags: W
LayerCount: 2
Fore
SplineSet
284 1082 m 1,0,-1
 284 101 l 1,1,-1
 765 101 l 1,2,-1
 765 1082 l 1,3,-1
 885 1082 l 1,4,-1
 885 101 l 1,5,-1
 1362 101 l 1,6,-1
 1362 1082 l 1,7,-1
 1482 1082 l 1,8,-1
 1482 0 l 1,9,-1
 164 0 l 1,10,-1
 164 1082 l 1,11,-1
 284 1082 l 1,0,-1
EndSplineSet
Substitution2: "'smcp' Lowercase to Small Capitals lookup 1 subtable" uni0428.c2sc
EndChar

StartChar: uni0449
Encoding: 1097 1097 251
Width: 1643
GlyphClass: 2
Flags: W
LayerCount: 2
Fore
SplineSet
278 1082 m 1,0,-1
 278 101 l 1,1,-1
 760 101 l 1,2,-1
 760 1082 l 1,3,-1
 880 1082 l 1,4,-1
 880 101 l 1,5,-1
 1356 101 l 1,6,-1
 1356 1082 l 1,7,-1
 1476 1082 l 1,8,-1
 1476 101 l 1,9,-1
 1606 101 l 1,10,-1
 1597 -321 l 1,11,-1
 1487 -321 l 1,12,-1
 1487 0 l 1,13,-1
 158 0 l 1,14,-1
 158 1082 l 1,15,-1
 278 1082 l 1,0,-1
EndSplineSet
Substitution2: "'smcp' Lowercase to Small Capitals lookup 1 subtable" uni0429.c2sc
EndChar

StartChar: uni044A
Encoding: 1098 1098 252
Width: 1290
GlyphClass: 1
Flags: W
LayerCount: 2
Fore
SplineSet
35 1082 m 1,0,-1
 499 1082 l 1,1,-1
 499 689 l 1,2,-1
 811 689 l 2,3,4
 931 689 931 689 1021.5 645.5 c 128,-1,5
 1112 602 1112 602 1158.5 525 c 128,-1,6
 1205 448 1205 448 1205 346 c 0,7,8
 1205 189 1205 189 1097.5 94.5 c 128,-1,9
 990 0 990 0 807 0 c 2,10,-1
 380 0 l 1,11,-1
 380 980 l 1,12,-1
 35 980 l 1,13,-1
 35 1082 l 1,0,-1
499 587 m 1,14,-1
 499 101 l 1,15,-1
 809 101 l 2,16,17
 938 101 938 101 1011.5 166 c 128,-1,18
 1085 231 1085 231 1085 344 c 0,19,20
 1085 452 1085 452 1013.5 518.5 c 128,-1,21
 942 585 942 585 818 587 c 2,22,-1
 499 587 l 1,14,-1
EndSplineSet
Substitution2: "'smcp' Lowercase to Small Capitals lookup 1 subtable" uni042A.c2sc
EndChar

StartChar: uni044B
Encoding: 1099 1099 253
Width: 1538
GlyphClass: 2
Flags: W
LayerCount: 2
Fore
SplineSet
288 689 m 1,0,-1
 600 689 l 2,1,2
 720 689 720 689 810.5 645.5 c 128,-1,3
 901 602 901 602 947.5 525 c 128,-1,4
 994 448 994 448 994 346 c 0,5,6
 994 189 994 189 886.5 94.5 c 128,-1,7
 779 0 779 0 596 0 c 2,8,-1
 169 0 l 1,9,-1
 169 1082 l 1,10,-1
 288 1082 l 1,11,-1
 288 689 l 1,0,-1
288 587 m 1,12,-1
 288 101 l 1,13,-1
 598 101 l 2,14,15
 727 101 727 101 800.5 166 c 128,-1,16
 874 231 874 231 874 344 c 0,17,18
 874 452 874 452 802.5 518.5 c 128,-1,19
 731 585 731 585 607 587 c 2,20,-1
 288 587 l 1,12,-1
1361 0 m 1,21,-1
 1241 0 l 1,22,-1
 1241 1082 l 1,23,-1
 1361 1082 l 1,24,-1
 1361 0 l 1,21,-1
EndSplineSet
Substitution2: "'smcp' Lowercase to Small Capitals lookup 1 subtable" uni042B.c2sc
EndChar

StartChar: uni044C
Encoding: 1100 1100 254
Width: 1096
GlyphClass: 1
Flags: W
LayerCount: 2
Fore
SplineSet
288 689 m 1,0,-1
 600 689 l 2,1,2
 720 689 720 689 810.5 645.5 c 128,-1,3
 901 602 901 602 947.5 525 c 128,-1,4
 994 448 994 448 994 346 c 0,5,6
 994 189 994 189 886.5 94.5 c 128,-1,7
 779 0 779 0 596 0 c 2,8,-1
 169 0 l 1,9,-1
 169 1082 l 1,10,-1
 288 1082 l 1,11,-1
 288 689 l 1,0,-1
288 587 m 1,12,-1
 288 101 l 1,13,-1
 598 101 l 2,14,15
 727 101 727 101 800.5 166 c 128,-1,16
 874 231 874 231 874 344 c 0,17,18
 874 452 874 452 802.5 518.5 c 128,-1,19
 731 585 731 585 607 587 c 2,20,-1
 288 587 l 1,12,-1
EndSplineSet
Substitution2: "'smcp' Lowercase to Small Capitals lookup 1 subtable" uni042C.c2sc
EndChar

StartChar: uni044D
Encoding: 1101 1101 255
Width: 1095
GlyphClass: 2
Flags: W
LayerCount: 2
Fore
SplineSet
517 1000 m 0,0,1
 393 1000 393 1000 310 928.5 c 128,-1,2
 227 857 227 857 227 744 c 1,3,-1
 111 744 l 1,4,5
 111 842 111 842 165.5 924 c 128,-1,6
 220 1006 220 1006 315 1054 c 128,-1,7
 410 1102 410 1102 517 1102 c 0,8,9
 716 1102 716 1102 842 962.5 c 128,-1,10
 968 823 968 823 978 597 c 1,11,-1
 979 520 l 2,12,13
 979 364 979 364 921 239.5 c 128,-1,14
 863 115 863 115 759 47.5 c 128,-1,15
 655 -20 655 -20 518 -20 c 0,16,17
 340 -20 340 -20 225.5 87.5 c 128,-1,18
 111 195 111 195 111 366 c 1,19,-1
 227 366 l 1,20,21
 227 237 227 237 309.5 159 c 128,-1,22
 392 81 392 81 518 81 c 0,23,24
 668 81 668 81 759.5 193 c 128,-1,25
 851 305 851 305 858 496 c 1,26,-1
 369 496 l 1,27,-1
 369 597 l 1,28,-1
 858 597 l 1,29,30
 849 780 849 780 758.5 890 c 128,-1,31
 668 1000 668 1000 517 1000 c 0,0,1
EndSplineSet
Substitution2: "'smcp' Lowercase to Small Capitals lookup 1 subtable" uni042D.c2sc
EndChar

StartChar: uni044E
Encoding: 1102 1102 256
Width: 1665
GlyphClass: 2
Flags: W
LayerCount: 2
Fore
SplineSet
288 589 m 1,0,-1
 597 589 l 1,1,2
 602 737 602 737 665 855.5 c 128,-1,3
 728 974 728 974 836 1038 c 128,-1,4
 944 1102 944 1102 1078 1102 c 0,5,6
 1293 1102 1293 1102 1427.5 950 c 128,-1,7
 1562 798 1562 798 1562 548 c 2,8,-1
 1562 524 l 2,9,10
 1562 368 1562 368 1501 242 c 128,-1,11
 1440 116 1440 116 1330 48 c 128,-1,12
 1220 -20 1220 -20 1080 -20 c 0,13,14
 873 -20 873 -20 740 120.5 c 128,-1,15
 607 261 607 261 597 487 c 1,16,-1
 288 487 l 1,17,-1
 288 0 l 1,18,-1
 169 0 l 1,19,-1
 169 1082 l 1,20,-1
 288 1082 l 1,21,-1
 288 589 l 1,0,-1
715 524 m 2,22,23
 715 330 715 330 815.5 205.5 c 128,-1,24
 916 81 916 81 1080 81 c 0,25,26
 1241 81 1241 81 1341.5 205.5 c 128,-1,27
 1442 330 1442 330 1442 534 c 2,28,-1
 1442 557 l 2,29,30
 1442 749 1442 749 1341 874.5 c 128,-1,31
 1240 1000 1240 1000 1078 1000 c 0,32,33
 917 1000 917 1000 816 874.5 c 128,-1,34
 715 749 715 749 715 546 c 2,35,-1
 715 524 l 2,22,23
EndSplineSet
Substitution2: "'smcp' Lowercase to Small Capitals lookup 1 subtable" uni042E.c2sc
EndChar

StartChar: uni044F
Encoding: 1103 1103 257
Width: 1112
GlyphClass: 2
Flags: W
LayerCount: 2
Fore
SplineSet
945 1082 m 1,0,-1
 945 0 l 1,1,-1
 825 0 l 1,2,-1
 825 436 l 1,3,-1
 489 436 l 1,4,-1
 225 0 l 1,5,-1
 93 0 l 1,6,-1
 365 451 l 1,7,8
 254 480 254 480 192.5 563 c 128,-1,9
 131 646 131 646 131 759 c 0,10,11
 131 906 131 906 236.5 994 c 128,-1,12
 342 1082 342 1082 522 1082 c 2,13,-1
 945 1082 l 1,0,-1
251 757 m 0,14,15
 251 662 251 662 311.5 601 c 128,-1,16
 372 540 372 540 480 538 c 2,17,-1
 825 538 l 1,18,-1
 825 980 l 1,19,-1
 519 980 l 2,20,21
 394 980 394 980 322.5 920 c 128,-1,22
 251 860 251 860 251 757 c 0,14,15
EndSplineSet
Substitution2: "'smcp' Lowercase to Small Capitals lookup 1 subtable" uni042F.c2sc
EndChar

StartChar: uni0452
Encoding: 1106 1106 258
Width: 1124
GlyphClass: 1
Flags: W
LayerCount: 2
Fore
SplineSet
584 1235 m 1,0,-1
 275 1235 l 1,1,-1
 275 899 l 1,2,3
 334 996 334 996 426 1049 c 128,-1,4
 518 1102 518 1102 627 1102 c 0,5,6
 801 1102 801 1102 886 1004 c 128,-1,7
 971 906 971 906 972 710 c 2,8,-1
 972 -89 l 2,9,10
 972 -259 972 -259 892 -348 c 128,-1,11
 812 -437 812 -437 668 -437 c 0,12,13
 606 -437 606 -437 545 -418 c 1,14,-1
 559 -319 l 1,15,16
 602 -335 602 -335 668 -335 c 0,17,18
 756 -335 756 -335 804.5 -271 c 128,-1,19
 853 -207 853 -207 853 -89 c 2,20,-1
 853 705 l 2,21,22
 853 854 853 854 792.5 926 c 128,-1,23
 732 998 732 998 598 998 c 0,24,25
 487 998 487 998 401.5 928.5 c 128,-1,26
 316 859 316 859 275 741 c 1,27,-1
 275 0 l 1,28,-1
 156 0 l 1,29,-1
 156 1235 l 1,30,-1
 -26 1235 l 1,31,-1
 -26 1337 l 1,32,-1
 156 1337 l 1,33,-1
 156 1536 l 1,34,-1
 275 1536 l 1,35,-1
 275 1337 l 1,36,-1
 584 1337 l 1,37,-1
 584 1235 l 1,0,-1
EndSplineSet
Substitution2: "'smcp' Lowercase to Small Capitals lookup 1 subtable" uni0402.c2sc
EndChar

